FrauncesItalic-144ptS000Thin.ufo
<glyph name="ampersand" format="2">
  <advance width="1121"/>
  <unicode hex="0026"/>
  <outline>
    <contour>
      <point x="209" y="239" type="line" smooth="yes"/>
      <point x="65" y="117"/>
      <point x="-42" y="-7"/>
      <point x="-42" y="-137" type="curve" smooth="yes"/>
      <point x="-42" y="-262"/>
      <point x="-13" y="-307"/>
      <point x="26" y="-307" type="curve" smooth="yes"/>
      <point x="49" y="-307"/>
      <point x="65" y="-290"/>
      <point x="65" y="-269" type="curve" smooth="yes"/>
      <point x="65" y="-230"/>
      <point x="-29" y="-220"/>
      <point x="-29" y="-125" type="curve" smooth="yes"/>
      <point x="-29" y="-13"/>
      <point x="58" y="100"/>
      <point x="215" y="233" type="curve" smooth="yes"/>
      <point x="987" y="886" type="line" smooth="yes"/>
      <point x="1158" y="1030"/>
      <point x="1220" y="1123"/>
      <point x="1220" y="1270" type="curve" smooth="yes"/>
      <point x="1220" y="1372"/>
      <point x="1171" y="1430"/>
      <point x="1143" y="1430" type="curve" smooth="yes"/>
      <point x="1119" y="1430"/>
      <point x="1109" y="1415"/>
      <point x="1109" y="1388" type="curve" smooth="yes"/>
      <point x="1109" y="1335"/>
      <point x="1203" y="1302"/>
      <point x="1203" y="1228" type="curve" smooth="yes"/>
      <point x="1203" y="1115"/>
      <point x="1158" y="1043"/>
      <point x="984" y="896" type="curve" smooth="yes"/>
    </contour>
    <contour>
      <point x="988" y="379" type="curve" smooth="yes"/>
      <point x="988" y="214"/>
      <point x="826" y="-5"/>
      <point x="586" y="-5" type="curve" smooth="yes"/>
      <point x="386" y="-5"/>
      <point x="242" y="174"/>
      <point x="293" y="485" type="curve" smooth="yes"/>
      <point x="345" y="803"/>
      <point x="497" y="994"/>
      <point x="670" y="994" type="curve" smooth="yes"/>
      <point x="769" y="994"/>
      <point x="817" y="914"/>
      <point x="817" y="804" type="curve" smooth="yes"/>
      <point x="817" y="777"/>
      <point x="815" y="749"/>
      <point x="808" y="736" type="curve"/>
      <point x="828" y="754"/>
      <point x="841" y="761"/>
      <point x="856" y="761" type="curve" smooth="yes"/>
      <point x="868" y="761"/>
      <point x="879" y="765"/>
      <point x="879" y="782" type="curve" smooth="yes"/>
      <point x="879" y="906"/>
      <point x="820" y="1003"/>
      <point x="680" y="1003" type="curve" smooth="yes"/>
      <point x="469" y="1003"/>
      <point x="288" y="792"/>
      <point x="234" y="495" type="curve" smooth="yes"/>
      <point x="177" y="178"/>
      <point x="339" y="-20"/>
      <point x="561" y="-20" type="curve" smooth="yes"/>
      <point x="827" y="-20"/>
      <point x="1025" y="199"/>
      <point x="1025" y="539" type="curve" smooth="yes"/>
      <point x="1025" y="576"/>
      <point x="1016" y="599"/>
      <point x="994" y="599" type="curve" smooth="yes"/>
      <point x="966" y="599"/>
      <point x="944" y="572"/>
      <point x="944" y="544" type="curve" smooth="yes"/>
      <point x="944" y="500"/>
      <point x="988" y="444"/>
    </contour>
  </outline>
</glyph>
<glyph name="quotesingle" format="2">
  <advance width="159"/>
  <unicode hex="0027"/>
  <outline>
    <contour>
      <point x="246" y="1000" type="curve" smooth="yes"/>
      <point x="249" y="1000"/>
      <point x="252" y="1002"/>
      <point x="254" y="1007" type="curve" smooth="yes"/>
      <point x="406" y="1481" type="line" smooth="yes"/>
      <point x="419" y="1522"/>
      <point x="410" y="1538"/>
      <point x="392" y="1538" type="curve" smooth="yes"/>
      <point x="373" y="1538"/>
      <point x="355" y="1518"/>
      <point x="347" y="1481" type="curve" smooth="yes"/>
      <point x="242" y="1007" type="line" smooth="yes"/>
      <point x="240" y="1002"/>
      <point x="243" y="1000"/>
    </contour>
  </outline>
</glyph>
<glyph name="plus" format="2">
  <advance width="910"/>
  <unicode hex="002B"/>
  <outline>
    <contour>
      <point x="452" y="344" type="curve" smooth="yes"/>
      <point x="455" y="344"/>
      <point x="457" y="346"/>
      <point x="458" y="350" type="curve" smooth="yes"/>
      <point x="619" y="1047" type="line" smooth="yes"/>
      <point x="620" y="1051"/>
      <point x="619" y="1054"/>
      <point x="616" y="1054" type="curve" smooth="yes"/>
      <point x="613" y="1055"/>
      <point x="611" y="1053"/>
      <point x="610" y="1050" type="curve" smooth="yes"/>
      <point x="449" y="353" type="line" smooth="yes"/>
      <point x="448" y="349"/>
      <point x="449" y="345"/>
    </contour>
    <component base="minus"/>
  </outline>
</glyph>
<glyph name="hyphen" format="2">
  <advance width="528"/>
  <unicode hex="002D"/>
  <outline>
    <contour>
      <point x="487" y="492.0" type="curve" smooth="yes"/>
      <point x="61" y="492.0" type="line" smooth="yes"/>
      <point x="56.0" y="492.0"/>
      <point x="51" y="489"/>
      <point x="48" y="484" type="curve" smooth="yes"/>
      <point x="32" y="457" type="line" smooth="yes"/>
      <point x="27" y="448"/>
      <point x="31.0" y="442.0"/>
      <point x="39" y="442.0" type="curve" smooth="yes"/>
      <point x="459" y="442.0" type="line" smooth="yes"/>
      <point x="468.0" y="442.0"/>
      <point x="475" y="447"/>
      <point x="478" y="452" type="curve" smooth="yes"/>
      <point x="496" y="482" type="line" smooth="yes"/>
      <point x="500" y="489"/>
      <point x="495.0" y="492.0"/>
    </contour>
  </outline>
</glyph>
<glyph name="two" format="2">
  <advance width="954"/>
  <unicode hex="0032"/>
  <outline>
    <contour>
      <point x="116" y="199" type="line"/>
      <point x="402" y="391" type="line" smooth="yes"/>
      <point x="846" y="691"/>
      <point x="1005" y="858"/>
      <point x="1058" y="1036" type="curve" smooth="yes"/>
      <point x="1126" y="1262"/>
      <point x="1028" y="1420"/>
      <point x="805" y="1420" type="curve" smooth="yes"/>
      <point x="586" y="1420"/>
      <point x="383" y="1258"/>
      <point x="333" y="1093" type="curve" smooth="yes"/>
      <point x="320" y="1049"/>
      <point x="327" y="1029"/>
      <point x="349" y="1029" type="curve" smooth="yes"/>
      <point x="377" y="1029"/>
      <point x="398" y="1050"/>
      <point x="411" y="1095" type="curve" smooth="yes"/>
      <point x="429" y="1152" type="line" smooth="yes"/>
      <point x="472" y="1288"/>
      <point x="603" y="1408"/>
      <point x="798" y="1408" type="curve" smooth="yes"/>
      <point x="961" y="1408"/>
      <point x="1072" y="1288"/>
      <point x="1001" y="1051" type="curve" smooth="yes"/>
      <point x="936" y="838"/>
      <point x="788" y="661"/>
      <point x="398" y="399" type="curve" smooth="yes"/>
      <point x="110" y="206" type="line"/>
    </contour>
    <contour>
      <point x="-5" y="56" type="curve" smooth="yes"/>
      <point x="-19" y="10"/>
      <point x="-10" y="-8"/>
      <point x="11" y="-8" type="curve" smooth="yes"/>
      <point x="29" y="-8"/>
      <point x="48" y="8"/>
      <point x="60" y="47" type="curve" smooth="yes"/>
      <point x="100" y="184"/>
      <point x="151" y="232"/>
      <point x="210" y="232" type="curve" smooth="yes"/>
      <point x="254" y="232"/>
      <point x="297" y="199"/>
      <point x="365" y="123" type="curve" smooth="yes"/>
      <point x="451" y="27"/>
      <point x="510" y="-13"/>
      <point x="588" y="-13" type="curve" smooth="yes"/>
      <point x="683" y="-13"/>
      <point x="760" y="34"/>
      <point x="855" y="191" type="curve" smooth="yes"/>
      <point x="857" y="193"/>
      <point x="857" y="195"/>
      <point x="855" y="196" type="curve" smooth="yes"/>
      <point x="853" y="197"/>
      <point x="852" y="197"/>
      <point x="848" y="192" type="curve" smooth="yes"/>
      <point x="778" y="75"/>
      <point x="722" y="43"/>
      <point x="638" y="43" type="curve" smooth="yes"/>
      <point x="489" y="43"/>
      <point x="359" y="242"/>
      <point x="221" y="242" type="curve" smooth="yes"/>
      <point x="120" y="242"/>
      <point x="24" y="155"/>
    </contour>
  </outline>
</glyph>
<glyph name="four" format="2">
  <advance width="899"/>
  <unicode hex="0034"/>
  <outline>
    <contour>
      <point x="741" y="912" type="curve" smooth="yes"/>
      <point x="481" y="53" type="line" smooth="yes"/>
      <point x="476" y="39"/>
      <point x="467" y="30"/>
      <point x="452" y="29" type="curve" smooth="yes"/>
      <point x="260" y="13" type="line" smooth="yes"/>
      <point x="255" y="13"/>
      <point x="251" y="11"/>
      <point x="250" y="6" type="curve" smooth="yes"/>
      <point x="249" y="2"/>
      <point x="251" y="0"/>
      <point x="256" y="0" type="curve" smooth="yes"/>
      <point x="718" y="0" type="line" smooth="yes"/>
      <point x="724" y="0"/>
      <point x="726" y="3"/>
      <point x="727" y="6" type="curve" smooth="yes"/>
      <point x="728" y="10"/>
      <point x="726" y="13"/>
      <point x="722" y="13" type="curve" smooth="yes"/>
      <point x="555" y="28" type="line" smooth="yes"/>
      <point x="540" y="29"/>
      <point x="534" y="38"/>
      <point x="539" y="53" type="curve" smooth="yes"/>
      <point x="824" y="991" type="line" smooth="yes"/>
      <point x="825" y="996"/>
      <point x="826" y="999"/>
      <point x="823" y="999" type="curve" smooth="yes"/>
      <point x="820" y="999"/>
      <point x="819" y="996"/>
      <point x="814" y="991" type="curve" smooth="yes"/>
      <point x="754" y="934" type="line" smooth="yes"/>
      <point x="745" y="926"/>
      <point x="743" y="919"/>
    </contour>
    <contour>
      <point x="757" y="1137" type="curve" smooth="yes"/>
      <point x="2" y="397" type="line" smooth="yes"/>
      <point x="-2" y="393"/>
      <point x="-3" y="390"/>
      <point x="-4" y="388" type="curve" smooth="yes"/>
      <point x="-6" y="386"/>
      <point x="-4" y="383"/>
      <point x="0" y="383" type="curve" smooth="yes"/>
      <point x="846" y="383" type="line" smooth="yes"/>
      <point x="851" y="383"/>
      <point x="857" y="387"/>
      <point x="858" y="391" type="curve" smooth="yes"/>
      <point x="859" y="395"/>
      <point x="856" y="396"/>
      <point x="852" y="396" type="curve" smooth="yes"/>
      <point x="6" y="396" type="line"/>
      <point x="8" y="387" type="line"/>
      <point x="789" y="1155" type="line" smooth="yes"/>
      <point x="863" y="1227"/>
      <point x="891" y="1269"/>
      <point x="908" y="1326" type="curve" smooth="yes"/>
      <point x="924" y="1377"/>
      <point x="913" y="1409"/>
      <point x="881" y="1409" type="curve" smooth="yes"/>
      <point x="853" y="1409"/>
      <point x="828" y="1381"/>
      <point x="817" y="1344" type="curve" smooth="yes"/>
      <point x="805" y="1303"/>
      <point x="823" y="1268"/>
      <point x="806" y="1214" type="curve" smooth="yes"/>
      <point x="798" y="1186"/>
      <point x="781" y="1160"/>
    </contour>
  </outline>
</glyph>
<glyph name="eight" format="2">
  <advance width="946"/>
  <unicode hex="0038"/>
  <outline>
    <contour>
      <point x="359" y="-22" type="curve" smooth="yes"/>
      <point x="569" y="-22"/>
      <point x="774" y="107"/>
      <point x="829" y="277" type="curve" smooth="yes"/>
      <point x="880" y="438"/>
      <point x="810" y="568"/>
      <point x="580" y="679" type="curve" smooth="yes"/>
      <point x="357" y="786"/>
      <point x="291" y="914"/>
      <point x="353" y="1103" type="curve" smooth="yes"/>
      <point x="409" y="1277"/>
      <point x="604" y="1410"/>
      <point x="804" y="1410" type="curve" smooth="yes"/>
      <point x="1025" y="1410"/>
      <point x="1115" y="1251"/>
      <point x="1045" y="1034" type="curve" smooth="yes"/>
      <point x="981" y="837"/>
      <point x="819" y="705"/>
      <point x="637" y="637" type="curve"/>
      <point x="636" y="629" type="line"/>
      <point x="840" y="694"/>
      <point x="1032" y="850"/>
      <point x="1090" y="1032" type="curve" smooth="yes"/>
      <point x="1169" y="1275"/>
      <point x="1046" y="1420"/>
      <point x="808" y="1420" type="curve" smooth="yes"/>
      <point x="599" y="1420"/>
      <point x="369" y="1268"/>
      <point x="308" y="1076" type="curve" smooth="yes"/>
      <point x="242" y="870"/>
      <point x="318" y="739"/>
      <point x="544" y="631" type="curve" smooth="yes"/>
      <point x="756" y="530"/>
      <point x="831" y="417"/>
      <point x="780" y="260" type="curve" smooth="yes"/>
      <point x="727" y="97"/>
      <point x="559" y="-13"/>
      <point x="362" y="-13" type="curve" smooth="yes"/>
      <point x="161" y="-13"/>
      <point x="63" y="101"/>
      <point x="138" y="334" type="curve" smooth="yes"/>
      <point x="179" y="465"/>
      <point x="310" y="618"/>
      <point x="489" y="670" type="curve"/>
      <point x="491" y="679" type="line"/>
      <point x="253" y="609"/>
      <point x="121" y="444"/>
      <point x="83" y="329" type="curve" smooth="yes"/>
      <point x="15" y="114"/>
      <point x="134" y="-22"/>
    </contour>
  </outline>
</glyph>
<glyph name="question" format="2">
  <advance width="631"/>
  <unicode hex="003F"/>
  <outline>
    <contour>
      <point x="255" y="580" type="line" smooth="yes"/>
      <point x="265" y="613"/>
      <point x="277" y="635"/>
      <point x="320" y="656" type="curve" smooth="yes"/>
      <point x="366" y="679" type="line" smooth="yes"/>
      <point x="588" y="790"/>
      <point x="698" y="926"/>
      <point x="760" y="1130" type="curve" smooth="yes"/>
      <point x="820" y="1330"/>
      <point x="754" y="1427"/>
      <point x="608" y="1427" type="curve" smooth="yes"/>
      <point x="435" y="1427"/>
      <point x="329" y="1335"/>
      <point x="296" y="1228" type="curve" smooth="yes"/>
      <point x="277" y="1164" type="line" smooth="yes"/>
      <point x="269" y="1140"/>
      <point x="249" y="1122"/>
      <point x="232" y="1122" type="curve" smooth="yes"/>
      <point x="213" y="1122"/>
      <point x="206" y="1141"/>
      <point x="215" y="1172" type="curve" smooth="yes"/>
      <point x="259" y="1317"/>
      <point x="433" y="1438"/>
      <point x="612" y="1438" type="curve" smooth="yes"/>
      <point x="804" y="1438"/>
      <point x="876" y="1321"/>
      <point x="820" y="1136" type="curve" smooth="yes"/>
      <point x="763" y="948"/>
      <point x="630" y="794"/>
      <point x="372" y="669" type="curve" smooth="yes"/>
      <point x="332" y="649" type="line" smooth="yes"/>
      <point x="291" y="629"/>
      <point x="276" y="609"/>
      <point x="266" y="576" type="curve" smooth="yes"/>
      <point x="186" y="310" type="line" smooth="yes"/>
      <point x="185" y="307"/>
      <point x="182" y="304"/>
      <point x="179" y="304" type="curve" smooth="yes"/>
      <point x="176" y="304"/>
      <point x="175" y="306"/>
      <point x="176" y="311" type="curve" smooth="yes"/>
    </contour>
    <component base="period" xOffset="40"/>
  </outline>
</glyph>
<glyph name="J" format="2">
  <advance width="541"/>
  <unicode hex="004A"/>
  <anchor x="592.0" y="1468" name="center"/>
  <outline>
    <contour>
      <point x="579" y="1335" type="curve" smooth="yes"/>
      <point x="585" y="1360"/>
      <point x="593" y="1362"/>
      <point x="620" y="1367" type="curve" smooth="yes"/>
      <point x="742" y="1388" type="line" smooth="yes"/>
      <point x="751" y="1389"/>
      <point x="755" y="1392"/>
      <point x="755" y="1395" type="curve" smooth="yes"/>
      <point x="755" y="1399"/>
      <point x="753" y="1400"/>
      <point x="749" y="1400" type="curve" smooth="yes"/>
      <point x="371" y="1400" type="line" smooth="yes"/>
      <point x="366" y="1400"/>
      <point x="361" y="1398"/>
      <point x="361" y="1394" type="curve" smooth="yes"/>
      <point x="360" y="1388"/>
      <point x="366" y="1387"/>
      <point x="376" y="1386" type="curve" smooth="yes"/>
      <point x="488" y="1372" type="line" smooth="yes"/>
      <point x="516" y="1369"/>
      <point x="526" y="1356"/>
      <point x="520" y="1331" type="curve" smooth="yes"/>
      <point x="503" y="1255"/>
      <point x="168" y="58"/>
      <point x="145" y="-2" type="curve" smooth="yes"/>
      <point x="138" y="-18"/>
      <point x="131" y="-53"/>
      <point x="130" y="-76" type="curve" smooth="yes"/>
      <point x="125" y="-217"/>
      <point x="90" y="-254"/>
      <point x="48" y="-254" type="curve" smooth="yes"/>
      <point x="7" y="-254"/>
      <point x="-29" y="-221"/>
      <point x="-76" y="-221" type="curve" smooth="yes"/>
      <point x="-101" y="-221"/>
      <point x="-117" y="-235"/>
      <point x="-118" y="-258" type="curve" smooth="yes"/>
      <point x="-119" y="-284"/>
      <point x="-95" y="-304"/>
      <point x="-48" y="-304" type="curve" smooth="yes"/>
      <point x="64" y="-304"/>
      <point x="148" y="-236"/>
      <point x="193" y="-51" type="curve" smooth="yes"/>
      <point x="207" y="7"/>
      <point x="555" y="1249"/>
    </contour>
  </outline>
</glyph>
<glyph name="K" format="2">
  <advance width="1138"/>
  <unicode hex="004B"/>
  <anchor x="571" y="1487" name="center"/>
  <outline>
    <contour>
      <point x="232" y="78" type="curve" smooth="yes"/>
      <point x="320" y="420"/>
      <point x="473" y="960"/>
      <point x="579" y="1328" type="curve" smooth="yes"/>
      <point x="586" y="1354"/>
      <point x="599" y="1364"/>
      <point x="615" y="1366" type="curve" smooth="yes"/>
      <point x="745" y="1388" type="line" smooth="yes"/>
      <point x="756" y="1390"/>
      <point x="758" y="1392"/>
      <point x="758" y="1396" type="curve" smooth="yes"/>
      <point x="758" y="1398"/>
      <point x="756" y="1400"/>
      <point x="752" y="1400" type="curve" smooth="yes"/>
      <point x="372" y="1400" type="line" smooth="yes"/>
      <point x="368" y="1400"/>
      <point x="364" y="1398"/>
      <point x="364" y="1394" type="curve" smooth="yes"/>
      <point x="364" y="1390"/>
      <point x="365" y="1388"/>
      <point x="377" y="1386" type="curve" smooth="yes"/>
      <point x="501" y="1370" type="line" smooth="yes"/>
      <point x="515" y="1368"/>
      <point x="528" y="1358"/>
      <point x="524" y="1336" type="curve" smooth="yes"/>
      <point x="431" y="970"/>
      <point x="280" y="436"/>
      <point x="172" y="72" type="curve" smooth="yes"/>
      <point x="162" y="42"/>
      <point x="150" y="28"/>
      <point x="124" y="26" type="curve" smooth="yes"/>
      <point x="9" y="14" type="line" smooth="yes"/>
      <point x="3" y="14"/>
      <point x="-3" y="12"/>
      <point x="-3" y="6" type="curve" smooth="yes"/>
      <point x="-3" y="4"/>
      <point x="1" y="0"/>
      <point x="7" y="0" type="curve" smooth="yes"/>
      <point x="385" y="0" type="line" smooth="yes"/>
      <point x="389" y="0"/>
      <point x="391" y="2"/>
      <point x="391" y="6" type="curve" smooth="yes"/>
      <point x="391" y="10"/>
      <point x="387" y="12"/>
      <point x="383" y="12" type="curve" smooth="yes"/>
      <point x="252" y="24" type="line" smooth="yes"/>
      <point x="232" y="26"/>
      <point x="225" y="50"/>
    </contour>
    <contour>
      <point x="607" y="769" type="line"/>
      <point x="808" y="146" type="line" smooth="yes"/>
      <point x="848" y="24"/>
      <point x="880" y="-20"/>
      <point x="937" y="-20" type="curve" smooth="yes"/>
      <point x="981" y="-20"/>
      <point x="1021" y="3"/>
      <point x="1037" y="38" type="curve" smooth="yes"/>
      <point x="1040" y="44"/>
      <point x="1039" y="48"/>
      <point x="1037" y="48" type="curve" smooth="yes"/>
      <point x="1035" y="48"/>
      <point x="1033" y="47"/>
      <point x="1031" y="43" type="curve" smooth="yes"/>
      <point x="1016" y="17"/>
      <point x="999" y="6"/>
      <point x="974" y="6" type="curve" smooth="yes"/>
      <point x="926" y="6"/>
      <point x="896" y="52"/>
      <point x="853" y="178" type="curve" smooth="yes"/>
      <point x="640" y="802" type="line"/>
    </contour>
    <contour>
      <point x="317" y="446" type="line"/>
      <point x="1082" y="1270" type="line" smooth="yes"/>
      <point x="1157" y="1351"/>
      <point x="1199" y="1372"/>
      <point x="1234" y="1372" type="curve" smooth="yes"/>
      <point x="1277" y="1372"/>
      <point x="1302" y="1341"/>
      <point x="1343" y="1341" type="curve" smooth="yes"/>
      <point x="1381" y="1341"/>
      <point x="1400" y="1356"/>
      <point x="1401" y="1377" type="curve" smooth="yes"/>
      <point x="1402" y="1399"/>
      <point x="1380" y="1420"/>
      <point x="1335" y="1420" type="curve" smooth="yes"/>
      <point x="1237" y="1420"/>
      <point x="1164" y="1377"/>
      <point x="1067" y="1273" type="curve" smooth="yes"/>
      <point x="310" y="459" type="line"/>
    </contour>
  </outline>
</glyph>
<glyph name="R" format="2">
  <advance width="1083"/>
  <unicode hex="0052"/>
  <anchor x="833" y="1485" name="center"/>
  <outline>
    <contour>
      <point x="351" y="632" type="line"/>
      <point x="401" y="596"/>
      <point x="481" y="572"/>
      <point x="567" y="572" type="curve" smooth="yes"/>
      <point x="881" y="572"/>
      <point x="1078" y="752"/>
      <point x="1121" y="965" type="curve" smooth="yes"/>
      <point x="1177" y="1245"/>
      <point x="1008" y="1400"/>
      <point x="724" y="1400" type="curve" smooth="yes"/>
      <point x="372" y="1400" type="line" smooth="yes"/>
      <point x="368" y="1400"/>
      <point x="364" y="1398"/>
      <point x="364" y="1394" type="curve" smooth="yes"/>
      <point x="364" y="1390"/>
      <point x="365" y="1388"/>
      <point x="377" y="1386" type="curve" smooth="yes"/>
      <point x="501" y="1370" type="line" smooth="yes"/>
      <point x="515" y="1368"/>
      <point x="528" y="1358"/>
      <point x="524" y="1336" type="curve" smooth="yes"/>
      <point x="429" y="964"/>
      <point x="280" y="436"/>
      <point x="172" y="72" type="curve" smooth="yes"/>
      <point x="162" y="42"/>
      <point x="150" y="28"/>
      <point x="124" y="26" type="curve" smooth="yes"/>
      <point x="9" y="14" type="line" smooth="yes"/>
      <point x="3" y="14"/>
      <point x="-3" y="12"/>
      <point x="-3" y="6" type="curve" smooth="yes"/>
      <point x="-3" y="2"/>
      <point x="1" y="0"/>
      <point x="7" y="0" type="curve" smooth="yes"/>
      <point x="385" y="0" type="line" smooth="yes"/>
      <point x="389" y="0"/>
      <point x="391" y="2"/>
      <point x="391" y="6" type="curve" smooth="yes"/>
      <point x="391" y="10"/>
      <point x="387" y="12"/>
      <point x="383" y="12" type="curve" smooth="yes"/>
      <point x="252" y="24" type="line" smooth="yes"/>
      <point x="232" y="26"/>
      <point x="225" y="50"/>
      <point x="232" y="78" type="curve" smooth="yes"/>
      <point x="322" y="438"/>
      <point x="475" y="966"/>
      <point x="579" y="1328" type="curve" smooth="yes"/>
      <point x="593" y="1378"/>
      <point x="644" y="1392"/>
      <point x="724" y="1392" type="curve" smooth="yes"/>
      <point x="1000" y="1392"/>
      <point x="1127" y="1249"/>
      <point x="1071" y="975" type="curve" smooth="yes"/>
      <point x="1025" y="753"/>
      <point x="867" y="580"/>
      <point x="567" y="580" type="curve" smooth="yes"/>
      <point x="481" y="580"/>
      <point x="412" y="605"/>
      <point x="357" y="636" type="curve"/>
    </contour>
    <contour>
      <point x="625" y="576" type="line"/>
      <point x="727" y="232" type="line" smooth="yes"/>
      <point x="786" y="32"/>
      <point x="822" y="-20"/>
      <point x="886" y="-20" type="curve" smooth="yes"/>
      <point x="938" y="-20"/>
      <point x="986" y="20"/>
      <point x="987" y="44" type="curve" smooth="yes"/>
      <point x="987" y="46"/>
      <point x="987" y="48"/>
      <point x="985" y="48" type="curve" smooth="yes"/>
      <point x="983" y="48"/>
      <point x="981" y="46"/>
      <point x="978" y="42" type="curve" smooth="yes"/>
      <point x="964" y="18"/>
      <point x="949" y="6"/>
      <point x="925" y="6" type="curve" smooth="yes"/>
      <point x="877" y="6"/>
      <point x="844" y="40"/>
      <point x="787" y="220" type="curve" smooth="yes"/>
      <point x="671" y="584" type="line"/>
    </contour>
  </outline>
</glyph>
<glyph name="T" format="2">
  <advance width="903"/>
  <unicode hex="0054"/>
  <anchor x="357" y="1516" name="center"/>
  <outline>
    <contour>
      <point x="479" y="1428" type="curve" smooth="yes"/>
      <point x="347" y="1428"/>
      <point x="277" y="1385"/>
      <point x="252" y="1306" type="curve" smooth="yes"/>
      <point x="227" y="1229"/>
      <point x="252" y="1173"/>
      <point x="289" y="1169" type="curve" smooth="yes"/>
      <point x="314" y="1167"/>
      <point x="329" y="1184"/>
      <point x="332" y="1204" type="curve" smooth="yes"/>
      <point x="336" y="1240"/>
      <point x="279" y="1260"/>
      <point x="301" y="1334" type="curve" smooth="yes"/>
      <point x="314" y="1380"/>
      <point x="369" y="1420"/>
      <point x="477" y="1420" type="curve" smooth="yes"/>
      <point x="580" y="1420"/>
      <point x="937" y="1308"/>
      <point x="1055" y="1308" type="curve" smooth="yes"/>
      <point x="1132" y="1308"/>
      <point x="1203" y="1362"/>
      <point x="1205" y="1442" type="curve" smooth="yes"/>
      <point x="1206" y="1473"/>
      <point x="1194" y="1486"/>
      <point x="1179" y="1486" type="curve" smooth="yes"/>
      <point x="1162" y="1486"/>
      <point x="1149" y="1476"/>
      <point x="1143" y="1454" type="curve" smooth="yes"/>
      <point x="1136" y="1427"/>
      <point x="1140" y="1395"/>
      <point x="1133" y="1373" type="curve" smooth="yes"/>
      <point x="1122" y="1337"/>
      <point x="1090" y="1321"/>
      <point x="1029" y="1321" type="curve" smooth="yes"/>
      <point x="945" y="1321"/>
      <point x="585" y="1428"/>
    </contour>
    <contour>
      <point x="397" y="78" type="curve" smooth="yes"/>
      <point x="493" y="417"/>
      <point x="651" y="954"/>
      <point x="780" y="1370" type="curve"/>
      <point x="722" y="1380" type="line"/>
      <point x="608" y="970"/>
      <point x="451" y="439"/>
      <point x="337" y="72" type="curve" smooth="yes"/>
      <point x="327" y="42"/>
      <point x="315" y="28"/>
      <point x="289" y="26" type="curve" smooth="yes"/>
      <point x="174" y="14" type="line" smooth="yes"/>
      <point x="168" y="14"/>
      <point x="162" y="12"/>
      <point x="162" y="6" type="curve" smooth="yes"/>
      <point x="162" y="2"/>
      <point x="166" y="0"/>
      <point x="172" y="0" type="curve" smooth="yes"/>
      <point x="548" y="0" type="line" smooth="yes"/>
      <point x="554" y="0"/>
      <point x="556" y="2"/>
      <point x="556" y="6" type="curve" smooth="yes"/>
      <point x="556" y="10"/>
      <point x="552" y="12"/>
      <point x="548" y="12" type="curve" smooth="yes"/>
      <point x="423" y="24" type="line" smooth="yes"/>
      <point x="397" y="26"/>
      <point x="387" y="42"/>
    </contour>
  </outline>
</glyph>
<glyph name="V" format="2">
  <advance width="976"/>
  <unicode hex="0056"/>
  <outline>
    <contour>
      <point x="995" y="1394" type="curve" smooth="yes"/>
      <point x="995" y="1390"/>
      <point x="998" y="1387"/>
      <point x="1008" y="1386" type="curve" smooth="yes"/>
      <point x="1066" y="1378" type="line" smooth="yes"/>
      <point x="1126" y="1370"/>
      <point x="1159" y="1316"/>
      <point x="1112" y="1241" type="curve" smooth="yes"/>
      <point x="395" y="100" type="line"/>
      <point x="398" y="101" type="line"/>
      <point x="408" y="493"/>
      <point x="422" y="964"/>
      <point x="433" y="1290" type="curve" smooth="yes"/>
      <point x="434" y="1324"/>
      <point x="441" y="1360"/>
      <point x="476" y="1366" type="curve" smooth="yes"/>
      <point x="606" y="1388" type="line" smooth="yes"/>
      <point x="617" y="1390"/>
      <point x="619" y="1392"/>
      <point x="619" y="1396" type="curve" smooth="yes"/>
      <point x="619" y="1398"/>
      <point x="617" y="1400"/>
      <point x="613" y="1400" type="curve" smooth="yes"/>
      <point x="253" y="1400" type="line" smooth="yes"/>
      <point x="249" y="1400"/>
      <point x="245" y="1398"/>
      <point x="245" y="1394" type="curve" smooth="yes"/>
      <point x="245" y="1390"/>
      <point x="246" y="1389"/>
      <point x="258" y="1386" type="curve" smooth="yes"/>
      <point x="346" y="1366" type="line" smooth="yes"/>
      <point x="375" y="1359"/>
      <point x="380" y="1340"/>
      <point x="379" y="1296" type="curve" smooth="yes"/>
      <point x="373" y="990"/>
      <point x="354" y="267"/>
      <point x="343" y="146" type="curve" smooth="yes"/>
      <point x="341" y="125"/>
      <point x="338" y="116"/>
      <point x="332" y="96" type="curve" smooth="yes"/>
      <point x="312" y="30" type="line" smooth="yes"/>
      <point x="307" y="14"/>
      <point x="307" y="0"/>
      <point x="323" y="0" type="curve" smooth="yes"/>
      <point x="353" y="0" type="line" smooth="yes"/>
      <point x="365" y="0"/>
      <point x="372" y="6"/>
      <point x="376" y="20" type="curve" smooth="yes"/>
      <point x="393" y="74" type="line" smooth="yes"/>
      <point x="398" y="89"/>
      <point x="405" y="103"/>
      <point x="414" y="118" type="curve" smooth="yes"/>
      <point x="1121" y="1236" type="line" smooth="yes"/>
      <point x="1175" y="1321"/>
      <point x="1214" y="1361"/>
      <point x="1264" y="1376" type="curve" smooth="yes"/>
      <point x="1304" y="1388" type="line" smooth="yes"/>
      <point x="1315" y="1391"/>
      <point x="1317" y="1392"/>
      <point x="1317" y="1396" type="curve" smooth="yes"/>
      <point x="1317" y="1398"/>
      <point x="1315" y="1400"/>
      <point x="1311" y="1400" type="curve" smooth="yes"/>
      <point x="1003" y="1400" type="line" smooth="yes"/>
      <point x="999" y="1400"/>
      <point x="995" y="1398"/>
    </contour>
  </outline>
</glyph>
<glyph name="Y" format="2">
  <advance width="944"/>
  <unicode hex="0059"/>
  <anchor x="790" y="1498.0" name="center"/>
  <outline>
    <contour>
      <point x="519" y="446" type="line"/>
      <point x="523" y="444" type="line"/>
      <point x="515" y="531"/>
      <point x="429" y="1274"/>
      <point x="420" y="1341" type="curve" smooth="yes"/>
      <point x="414" y="1378"/>
      <point x="397" y="1400"/>
      <point x="360" y="1400" type="curve" smooth="yes"/>
      <point x="252" y="1400" type="line" smooth="yes"/>
      <point x="247" y="1400"/>
      <point x="244" y="1399"/>
      <point x="244" y="1394" type="curve" smooth="yes"/>
      <point x="244" y="1389"/>
      <point x="247" y="1387"/>
      <point x="252" y="1387" type="curve" smooth="yes"/>
      <point x="327" y="1383"/>
      <point x="358" y="1361"/>
      <point x="364" y="1317" type="curve" smooth="yes"/>
      <point x="372" y="1260"/>
      <point x="457" y="522"/>
      <point x="462" y="466" type="curve" smooth="yes"/>
      <point x="464" y="443"/>
      <point x="469" y="429"/>
      <point x="463" y="407" type="curve" smooth="yes"/>
      <point x="376" y="80" type="line" smooth="yes"/>
      <point x="368" y="49"/>
      <point x="341" y="27"/>
      <point x="290" y="23" type="curve" smooth="yes"/>
      <point x="197" y="16" type="line" smooth="yes"/>
      <point x="189" y="15"/>
      <point x="182" y="13"/>
      <point x="182" y="8" type="curve" smooth="yes"/>
      <point x="182" y="4"/>
      <point x="185" y="0"/>
      <point x="192" y="0" type="curve" smooth="yes"/>
      <point x="555" y="0" type="line" smooth="yes"/>
      <point x="565" y="0"/>
      <point x="575" y="2"/>
      <point x="575" y="9" type="curve" smooth="yes"/>
      <point x="575" y="12"/>
      <point x="570" y="14"/>
      <point x="559" y="15" type="curve" smooth="yes"/>
      <point x="472" y="22" type="line" smooth="yes"/>
      <point x="427" y="26"/>
      <point x="420" y="43"/>
      <point x="428" y="75" type="curve" smooth="yes"/>
      <point x="513" y="404" type="line" smooth="yes"/>
      <point x="518" y="422"/>
      <point x="520" y="433"/>
      <point x="528" y="446" type="curve" smooth="yes"/>
      <point x="1000" y="1214" type="line" smooth="yes"/>
      <point x="1051" y="1296"/>
      <point x="1093" y="1328"/>
      <point x="1152" y="1335" type="curve" smooth="yes"/>
      <point x="1193" y="1340"/>
      <point x="1220" y="1356"/>
      <point x="1221" y="1387" type="curve" smooth="yes"/>
      <point x="1222" y="1404"/>
      <point x="1211" y="1420"/>
      <point x="1185" y="1420" type="curve" smooth="yes"/>
      <point x="1137" y="1420"/>
      <point x="1083" y="1371"/>
      <point x="995" y="1226" type="curve" smooth="yes"/>
    </contour>
  </outline>
</glyph>
<glyph name="bracketleft" format="2">
  <advance width="647"/>
  <unicode hex="005B"/>
  <outline>
    <contour>
      <point x="652" y="1432" type="line" smooth="yes"/>
      <point x="653" y="1436"/>
      <point x="655" y="1438"/>
      <point x="659" y="1438" type="curve" smooth="yes"/>
      <point x="889" y="1438" type="line" smooth="yes"/>
      <point x="892" y="1438"/>
      <point x="896" y="1439"/>
      <point x="897" y="1443" type="curve" smooth="yes"/>
      <point x="899" y="1447"/>
      <point x="896" y="1448"/>
      <point x="893" y="1448" type="curve" smooth="yes"/>
      <point x="609" y="1448" type="line" smooth="yes"/>
      <point x="603" y="1448"/>
      <point x="597" y="1444"/>
      <point x="595" y="1437" type="curve" smooth="yes"/>
      <point x="96" y="-213" type="line" smooth="yes"/>
      <point x="93" y="-220"/>
      <point x="96" y="-224"/>
      <point x="102" y="-224" type="curve" smooth="yes"/>
      <point x="386" y="-224" type="line" smooth="yes"/>
      <point x="389" y="-224"/>
      <point x="392" y="-223"/>
      <point x="393" y="-219" type="curve" smooth="yes"/>
      <point x="394" y="-215"/>
      <point x="393" y="-214"/>
      <point x="390" y="-214" type="curve" smooth="yes"/>
      <point x="160" y="-214" type="line" smooth="yes"/>
      <point x="156" y="-214"/>
      <point x="154" y="-212"/>
      <point x="155" y="-208" type="curve" smooth="yes"/>
    </contour>
  </outline>
</glyph>
<glyph name="asciicircum" format="2">
  <advance width="596"/>
  <unicode hex="005E"/>
  <outline>
    <contour>
      <point x="557" y="1415" type="line"/>
      <point x="152" y="836" type="line" smooth="yes"/>
      <point x="148" y="830"/>
      <point x="145" y="829"/>
      <point x="142" y="829" type="curve" smooth="yes"/>
      <point x="138" y="829"/>
      <point x="139" y="833"/>
      <point x="143" y="839" type="curve" smooth="yes"/>
      <point x="536" y="1408" type="line" smooth="yes"/>
      <point x="543" y="1418"/>
      <point x="547" y="1420"/>
      <point x="552" y="1420" type="curve" smooth="yes"/>
      <point x="557" y="1420"/>
      <point x="560" y="1418"/>
      <point x="562" y="1408" type="curve" smooth="yes"/>
      <point x="680" y="837" type="line" smooth="yes"/>
      <point x="682" y="830"/>
      <point x="679" y="828"/>
      <point x="676" y="828" type="curve" smooth="yes"/>
      <point x="673" y="828"/>
      <point x="671" y="830"/>
      <point x="670" y="834" type="curve" smooth="yes"/>
      <point x="545" y="1415" type="line"/>
    </contour>
  </outline>
</glyph>
<glyph name="underscore" format="2">
  <advance width="721"/>
  <unicode hex="005F"/>
  <outline>
    <contour>
      <point x="-78.0" y="-126.0" type="curve" smooth="yes"/>
      <point x="-78.0" y="-139"/>
      <point x="-73" y="-141"/>
      <point x="-61" y="-141" type="curve" smooth="yes"/>
      <point x="639.0" y="-141" type="line" smooth="yes"/>
      <point x="651" y="-141"/>
      <point x="656" y="-139"/>
      <point x="656" y="-126.0" type="curve" smooth="yes"/>
      <point x="656" y="-113"/>
      <point x="651" y="-111"/>
      <point x="639.0" y="-111" type="curve" smooth="yes"/>
      <point x="-61" y="-111" type="line" smooth="yes"/>
      <point x="-73" y="-111"/>
      <point x="-78.0" y="-113"/>
    </contour>
  </outline>
</glyph>
<glyph name="b" format="2">
  <advance width="810"/>
  <unicode hex="0062"/>
  <outline>
    <contour>
      <point x="373" y="1054" type="line" smooth="yes"/>
      <point x="432" y="1270"/>
      <point x="568" y="1404"/>
      <point x="731" y="1404" type="curve" smooth="yes"/>
      <point x="791" y="1404"/>
      <point x="846" y="1378"/>
      <point x="897" y="1378" type="curve" smooth="yes"/>
      <point x="928" y="1378"/>
      <point x="947" y="1388"/>
      <point x="947" y="1406" type="curve" smooth="yes"/>
      <point x="947" y="1425"/>
      <point x="930" y="1438"/>
      <point x="876" y="1438" type="curve" smooth="yes"/>
      <point x="550" y="1438"/>
      <point x="389" y="1277"/>
      <point x="307" y="980" type="curve" smooth="yes"/>
      <point x="41" y="16" type="line" smooth="yes"/>
      <point x="39" y="7"/>
      <point x="40" y="1"/>
      <point x="45" y="0" type="curve" smooth="yes"/>
      <point x="51" y="-1"/>
      <point x="54" y="2"/>
      <point x="58" y="10" type="curve" smooth="yes"/>
      <point x="145" y="186" type="line"/>
      <point x="137" y="186" type="line"/>
      <point x="137" y="44"/>
      <point x="188.667" y="-15"/>
      <point x="323" y="-15" type="curve" smooth="yes"/>
      <point x="491" y="-15"/>
      <point x="720" y="207"/>
      <point x="770" y="509" type="curve" smooth="yes"/>
      <point x="811" y="757"/>
      <point x="732" y="865"/>
      <point x="630" y="865" type="curve" smooth="yes"/>
      <point x="467.72" y="865"/>
      <point x="300.205" y="696.493"/>
      <point x="203" y="463" type="curve"/>
      <point x="211" y="463" type="line"/>
    </contour>
    <contour>
      <point x="604" y="843" type="curve" smooth="yes"/>
      <point x="689" y="843"/>
      <point x="755" y="762"/>
      <point x="718" y="512" type="curve" smooth="yes"/>
      <point x="673" y="211"/>
      <point x="469" y="-1"/>
      <point x="303" y="-1" type="curve" smooth="yes"/>
      <point x="204.096" y="-1"/>
      <point x="151" y="55"/>
      <point x="151" y="186" type="curve" smooth="yes"/>
      <point x="151" y="452"/>
      <point x="391.181" y="843"/>
    </contour>
  </outline>
</glyph>
<glyph name="c" format="2">
  <advance width="637"/>
  <unicode hex="0063"/>
  <anchor x="504" y="984" name="center"/>
  <outline>
    <contour>
      <point x="483" y="858" type="curve" smooth="yes"/>
      <point x="560" y="858"/>
      <point x="609" y="822"/>
      <point x="609" y="772" type="curve" smooth="yes"/>
      <point x="609" y="736"/>
      <point x="589" y="694"/>
      <point x="589" y="662" type="curve" smooth="yes"/>
      <point x="589" y="646"/>
      <point x="600" y="634"/>
      <point x="612" y="634" type="curve" smooth="yes"/>
      <point x="634" y="634"/>
      <point x="650" y="660"/>
      <point x="650" y="718" type="curve" smooth="yes"/>
      <point x="650" y="805"/>
      <point x="585" y="870"/>
      <point x="487" y="870" type="curve" smooth="yes"/>
      <point x="296" y="870"/>
      <point x="78.756" y="619.92"/>
      <point x="46" y="341" type="curve" smooth="yes"/>
      <point x="16.68" y="95.315"/>
      <point x="90" y="-20"/>
      <point x="243" y="-20" type="curve" smooth="yes"/>
      <point x="368" y="-20"/>
      <point x="516.793" y="74.014"/>
      <point x="562" y="256" type="curve" smooth="yes"/>
      <point x="564" y="263"/>
      <point x="562" y="267"/>
      <point x="559" y="267" type="curve" smooth="yes"/>
      <point x="556" y="267"/>
      <point x="555" y="264"/>
      <point x="552" y="256" type="curve" smooth="yes"/>
      <point x="497" y="80"/>
      <point x="373" y="2"/>
      <point x="270" y="2" type="curve" smooth="yes"/>
      <point x="143.751" y="2"/>
      <point x="74.005" y="110.039"/>
      <point x="102" y="340" type="curve" smooth="yes"/>
      <point x="137.997" y="634.977"/>
      <point x="325.414" y="858"/>
    </contour>
  </outline>
</glyph>
<glyph name="d" format="2">
  <advance width="796"/>
  <unicode hex="0064"/>
  <anchor x="302" y="1022" name="center"/>
  <outline>
    <contour>
      <point x="716" y="754" type="line"/>
      <point x="730" y="814"/>
      <point x="701" y="866"/>
      <point x="593" y="866" type="curve" smooth="yes"/>
      <point x="373" y="866"/>
      <point x="83" y="569"/>
      <point x="35" y="289" type="curve" smooth="yes"/>
      <point x="-4" y="61"/>
      <point x="67" y="-15"/>
      <point x="142" y="-15" type="curve" smooth="yes"/>
      <point x="267" y="-15"/>
      <point x="474" y="166"/>
      <point x="635" y="529" type="curve"/>
      <point x="626" y="533" type="line"/>
      <point x="525" y="206"/>
      <point x="501" y="110"/>
      <point x="501" y="55" type="curve" smooth="yes"/>
      <point x="501" y="4"/>
      <point x="531" y="-15"/>
      <point x="570" y="-15" type="curve" smooth="yes"/>
      <point x="618" y="-15"/>
      <point x="674" y="22"/>
      <point x="738" y="108" type="curve" smooth="yes"/>
      <point x="741" y="112"/>
      <point x="742" y="115"/>
      <point x="740" y="117" type="curve" smooth="yes"/>
      <point x="737" y="119"/>
      <point x="734" y="117"/>
      <point x="731" y="113" type="curve" smooth="yes"/>
      <point x="668" y="38"/>
      <point x="630" y="19"/>
      <point x="600" y="19" type="curve" smooth="yes"/>
      <point x="554.0" y="19"/>
      <point x="543" y="50"/>
      <point x="591" y="213" type="curve" smooth="yes"/>
      <point x="877" y="1186" type="line" smooth="yes"/>
      <point x="884" y="1209"/>
      <point x="885" y="1229"/>
      <point x="886" y="1272" type="curve" smooth="yes"/>
      <point x="889.0000324097238" y="1358.000929078749"/>
      <point x="949.5575221238938" y="1417.0"/>
      <point x="1000" y="1417" type="curve" smooth="yes"/>
      <point x="1047.5636363636363" y="1417.0"/>
      <point x="1072" y="1380"/>
      <point x="1109" y="1380" type="curve" smooth="yes"/>
      <point x="1131" y="1380"/>
      <point x="1139.0" y="1391.3636363636363"/>
      <point x="1139" y="1405" type="curve" smooth="yes"/>
      <point x="1139.0" y="1424.25"/>
      <point x="1117" y="1438"/>
      <point x="1077" y="1438" type="curve" smooth="yes"/>
      <point x="939.0" y="1438.0"/>
      <point x="882" y="1376"/>
      <point x="853" y="1276" type="curve" smooth="yes"/>
      <point x="677" y="678" type="line" smooth="yes"/>
      <point x="565" y="298"/>
      <point x="293" y="12"/>
      <point x="185" y="12" type="curve" smooth="yes"/>
      <point x="103" y="12"/>
      <point x="53" y="90"/>
      <point x="89" y="294" type="curve" smooth="yes"/>
      <point x="138" y="579"/>
      <point x="381" y="856"/>
      <point x="602" y="856" type="curve" smooth="yes"/>
      <point x="685" y="856"/>
      <point x="713" y="804"/>
      <point x="702" y="756" type="curve"/>
    </contour>
  </outline>
</glyph>
<glyph name="k" format="2">
  <advance width="813"/>
  <unicode hex="006B"/>
  <anchor x="278" y="980" name="center"/>
  <outline>
    <contour>
      <point x="221" y="500" type="curve"/>
      <point x="196" y="455" type="line"/>
      <point x="276.6" y="703.764"/>
      <point x="528.357" y="888.454"/>
      <point x="685" y="875" type="curve" smooth="yes"/>
      <point x="787" y="867"/>
      <point x="813" y="809"/>
      <point x="804" y="737" type="curve" smooth="yes"/>
      <point x="787.008" y="604.065"/>
      <point x="610.296" y="442.875"/>
      <point x="173" y="341" type="curve"/>
      <point x="171" y="352" type="line"/>
      <point x="588.538" y="448.723"/>
      <point x="735.005" y="612.048"/>
      <point x="749" y="744" type="curve" smooth="yes"/>
      <point x="757" y="814"/>
      <point x="738" y="856"/>
      <point x="672" y="863" type="curve" smooth="yes"/>
      <point x="536.689" y="877.395"/>
      <point x="267.744" y="676.079"/>
      <point x="202" y="440" type="curve" smooth="yes"/>
      <point x="125.059" y="163.213"/>
      <point x="110" y="112"/>
      <point x="110" y="72" type="curve" smooth="yes"/>
      <point x="110" y="53"/>
      <point x="120" y="45"/>
      <point x="120" y="33" type="curve" smooth="yes"/>
      <point x="120" y="3"/>
      <point x="92.359" y="-15"/>
      <point x="59" y="-15" type="curve" smooth="yes"/>
      <point x="39" y="-15"/>
      <point x="34" y="-1"/>
      <point x="43" y="30" type="curve" smooth="yes"/>
      <point x="311" y="983" type="line" smooth="yes"/>
      <point x="403.563" y="1312.15"/>
      <point x="573" y="1438"/>
      <point x="931" y="1438" type="curve" smooth="yes"/>
      <point x="977" y="1438"/>
      <point x="995" y="1425"/>
      <point x="995" y="1406" type="curve" smooth="yes"/>
      <point x="995" y="1388"/>
      <point x="977" y="1378"/>
      <point x="945" y="1378" type="curve" smooth="yes"/>
      <point x="897" y="1378"/>
      <point x="839" y="1404"/>
      <point x="765" y="1404" type="curve" smooth="yes"/>
      <point x="619" y="1404"/>
      <point x="455" y="1327"/>
      <point x="389" y="1091" type="curve" smooth="yes"/>
      <point x="323" y="855"/>
      <point x="262.923" y="635.203"/>
    </contour>
    <contour>
      <point x="386" y="411" type="line"/>
      <point x="434" y="428" type="line"/>
      <point x="527" y="128" type="line" smooth="yes"/>
      <point x="552.797" y="44.785"/>
      <point x="571" y="19"/>
      <point x="606" y="19" type="curve" smooth="yes"/>
      <point x="630" y="19"/>
      <point x="670.51" y="43.927"/>
      <point x="703" y="103" type="curve" smooth="yes"/>
      <point x="705" y="107"/>
      <point x="708" y="109"/>
      <point x="711" y="107" type="curve" smooth="yes"/>
      <point x="713" y="105"/>
      <point x="713" y="103"/>
      <point x="710" y="98" type="curve" smooth="yes"/>
      <point x="667.2" y="16.381"/>
      <point x="625" y="-15"/>
      <point x="575" y="-15" type="curve" smooth="yes"/>
      <point x="531" y="-15"/>
      <point x="504.947" y="9.717"/>
      <point x="477" y="104" type="curve" smooth="yes"/>
    </contour>
  </outline>
</glyph>
<glyph name="o" format="2">
  <advance width="759"/>
  <unicode hex="006F"/>
  <anchor x="526" y="1000" name="center"/>
  <outline>
    <contour>
      <point x="506" y="861" type="curve" smooth="yes"/>
      <point x="322" y="876"/>
      <point x="105" y="687"/>
      <point x="55" y="395" type="curve" smooth="yes"/>
      <point x="8" y="116"/>
      <point x="131" y="-15"/>
      <point x="281" y="-15" type="curve" smooth="yes"/>
      <point x="465" y="-15"/>
      <point x="659" y="182"/>
      <point x="702" y="433" type="curve" smooth="yes"/>
      <point x="747" y="695"/>
      <point x="664" y="849"/>
    </contour>
    <contour>
      <point x="283" y="-7" type="curve" smooth="yes"/>
      <point x="152.509" y="-7"/>
      <point x="56.983" y="91.901"/>
      <point x="108" y="388" type="curve" smooth="yes"/>
      <point x="156.007" y="667.041"/>
      <point x="341.181" y="867.07"/>
      <point x="505" y="853" type="curve" smooth="yes"/>
      <point x="623.671" y="842.857"/>
      <point x="696.022" y="720.125"/>
      <point x="646" y="440" type="curve" smooth="yes"/>
      <point x="602.993" y="194.959"/>
      <point x="439.864" y="-7"/>
    </contour>
  </outline>
</glyph>
<glyph name="q" format="2">
  <advance width="748"/>
  <unicode hex="0071"/>
  <outline>
    <contour>
      <point x="602.0" y="462.0" type="line"/>
      <point x="361" y="-399" type="line" smooth="yes"/>
      <point x="348" y="-445"/>
      <point x="309" y="-466"/>
      <point x="217.0" y="-477.0" type="curve" smooth="yes"/>
      <point x="200" y="-479"/>
      <point x="198" y="-482"/>
      <point x="198.0" y="-485.0" type="curve" smooth="yes"/>
      <point x="198.0" y="-488"/>
      <point x="202" y="-490"/>
      <point x="210.0" y="-489.0" type="curve" smooth="yes"/>
      <point x="480.0" y="-471.0" type="line" smooth="yes"/>
      <point x="486" y="-471"/>
      <point x="489.0" y="-469.0"/>
      <point x="489.0" y="-467.0" type="curve" smooth="yes"/>
      <point x="489.0" y="-464.0"/>
      <point x="486" y="-463"/>
      <point x="482" y="-462" type="curve" smooth="yes"/>
      <point x="431" y="-454" type="line" smooth="yes"/>
      <point x="404" y="-450"/>
      <point x="393" y="-429"/>
      <point x="401" y="-403" type="curve" smooth="yes"/>
      <point x="733.0" y="734.0" type="line" smooth="yes"/>
      <point x="748" y="786"/>
      <point x="768.0" y="809"/>
      <point x="768.0" y="832.0" type="curve" smooth="yes"/>
      <point x="768" y="853"/>
      <point x="740" y="865"/>
      <point x="688.0" y="865.0" type="curve" smooth="yes"/>
      <point x="403.0" y="865"/>
      <point x="26" y="514"/>
      <point x="26.0" y="140.0" type="curve" smooth="yes"/>
      <point x="26" y="37"/>
      <point x="73.0" y="-15.0"/>
      <point x="144.0" y="-15.0" type="curve" smooth="yes"/>
      <point x="269.10042735042737" y="-15.0"/>
      <point x="468.6796400838401" y="176.34043546672984"/>
      <point x="605.0" y="457.0" type="curve"/>
    </contour>
    <contour>
      <point x="80.0" y="152.0" type="curve" smooth="yes"/>
      <point x="80" y="520"/>
      <point x="388.0" y="847"/>
      <point x="665.0" y="847.0" type="curve" smooth="yes"/>
      <point x="688" y="847"/>
      <point x="702.0" y="831.0"/>
      <point x="702.0" y="784.0" type="curve" smooth="yes"/>
      <point x="702.0" y="556"/>
      <point x="382" y="18.0"/>
      <point x="174.0" y="18.0" type="curve" smooth="yes"/>
      <point x="115.0" y="18.0"/>
      <point x="80" y="59"/>
    </contour>
  </outline>
</glyph>
<glyph name="s" format="2">
  <advance width="588"/>
  <unicode hex="0073"/>
  <anchor x="435" y="1004" name="center"/>
  <outline>
    <contour>
      <point x="232" y="-3" type="curve" smooth="yes"/>
      <point x="175" y="-3"/>
      <point x="117" y="32"/>
      <point x="64" y="125" type="curve" smooth="yes"/>
      <point x="46" y="156"/>
      <point x="33" y="165"/>
      <point x="22" y="165" type="curve" smooth="yes"/>
      <point x="8" y="165"/>
      <point x="2" y="155"/>
      <point x="2" y="139" type="curve" smooth="yes"/>
      <point x="2" y="63"/>
      <point x="104" y="-15"/>
      <point x="217" y="-15" type="curve" smooth="yes"/>
      <point x="356" y="-15"/>
      <point x="460" y="63"/>
      <point x="460" y="181" type="curve" smooth="yes"/>
      <point x="460" y="255"/>
      <point x="433" y="300"/>
      <point x="328" y="415" type="curve" smooth="yes"/>
      <point x="199" y="556"/>
      <point x="186" y="603"/>
      <point x="186" y="671" type="curve" smooth="yes"/>
      <point x="186" y="778"/>
      <point x="278" y="853"/>
      <point x="402" y="853" type="curve" smooth="yes"/>
      <point x="459" y="853"/>
      <point x="510" y="820"/>
      <point x="540" y="762" type="curve" smooth="yes"/>
      <point x="554" y="736"/>
      <point x="565" y="729"/>
      <point x="578" y="729" type="curve" smooth="yes"/>
      <point x="592" y="729"/>
      <point x="604" y="737"/>
      <point x="604" y="755" type="curve" smooth="yes"/>
      <point x="604" y="809"/>
      <point x="536" y="865"/>
      <point x="414" y="865" type="curve" smooth="yes"/>
      <point x="267" y="865"/>
      <point x="142" y="762"/>
      <point x="142" y="639" type="curve" smooth="yes"/>
      <point x="142" y="562"/>
      <point x="167" y="518"/>
      <point x="281" y="389" type="curve" smooth="yes"/>
      <point x="397" y="257"/>
      <point x="424" y="200"/>
      <point x="424" y="146" type="curve" smooth="yes"/>
      <point x="424" y="59"/>
      <point x="342" y="-3"/>
    </contour>
  </outline>
</glyph>
<glyph name="bar" format="2">
  <advance width="444"/>
  <unicode hex="007C"/>
  <outline>
    <contour>
      <point x="267" y="612" type="curve" smooth="yes"/>
      <point x="214" y="435"/>
      <point x="77" y="21"/>
      <point x="10" y="-196" type="curve" smooth="yes"/>
      <point x="6" y="-213"/>
      <point x="10" y="-224"/>
      <point x="24" y="-224" type="curve" smooth="yes"/>
      <point x="38" y="-224"/>
      <point x="50" y="-213"/>
      <point x="54" y="-196" type="curve" smooth="yes"/>
      <point x="111" y="-12"/>
      <point x="232" y="422"/>
      <point x="289" y="612" type="curve" smooth="yes"/>
      <point x="347" y="802"/>
      <point x="488" y="1236"/>
      <point x="544" y="1420" type="curve" smooth="yes"/>
      <point x="549" y="1437"/>
      <point x="545" y="1448"/>
      <point x="531" y="1448" type="curve" smooth="yes"/>
      <point x="517" y="1448"/>
      <point x="505" y="1437"/>
      <point x="500" y="1420" type="curve" smooth="yes"/>
      <point x="434" y="1203"/>
      <point x="321" y="788"/>
    </contour>
  </outline>
</glyph>
<glyph name="cent" format="2">
  <advance width="737"/>
  <unicode hex="00A2"/>
  <outline>
    <contour>
      <point x="787" y="679" type="curve" smooth="yes"/>
      <point x="815" y="785"/>
      <point x="733" y="872"/>
      <point x="570" y="872" type="curve" smooth="yes"/>
      <point x="341" y="872"/>
      <point x="133" y="664"/>
      <point x="67" y="418" type="curve" smooth="yes"/>
      <point x="-8" y="138"/>
      <point x="107" y="-17"/>
      <point x="303" y="-17" type="curve" smooth="yes"/>
      <point x="448" y="-17"/>
      <point x="587" y="72"/>
      <point x="680" y="245" type="curve" smooth="yes"/>
      <point x="681" y="247"/>
      <point x="681" y="250"/>
      <point x="679" y="250" type="curve" smooth="yes"/>
      <point x="677" y="250"/>
      <point x="676" y="249"/>
      <point x="674" y="246" type="curve" smooth="yes"/>
      <point x="589" y="98"/>
      <point x="468" y="25"/>
      <point x="342" y="25" type="curve" smooth="yes"/>
      <point x="160" y="25"/>
      <point x="54" y="174"/>
      <point x="127" y="448" type="curve" smooth="yes"/>
      <point x="192" y="690"/>
      <point x="365" y="865"/>
      <point x="557" y="865" type="curve" smooth="yes"/>
      <point x="682" y="865"/>
      <point x="740" y="801"/>
      <point x="716" y="712" type="curve" smooth="yes"/>
      <point x="707" y="680" type="line" smooth="yes"/>
      <point x="699" y="650"/>
      <point x="712" y="632"/>
      <point x="735" y="632" type="curve" smooth="yes"/>
      <point x="756" y="632"/>
      <point x="780" y="652"/>
    </contour>
    <contour>
      <point x="424" y="434" type="curve" smooth="yes"/>
      <point x="434" y="471"/>
      <point x="589" y="999"/>
      <point x="592" y="1013" type="curve" smooth="yes"/>
      <point x="596" y="1026"/>
      <point x="590" y="1032"/>
      <point x="582" y="1032" type="curve" smooth="yes"/>
      <point x="572" y="1032"/>
      <point x="563" y="1026"/>
      <point x="559" y="1013" type="curve" smooth="yes"/>
      <point x="556" y="999"/>
      <point x="426" y="471"/>
      <point x="416" y="434" type="curve" smooth="yes"/>
      <point x="407" y="397"/>
      <point x="258" y="-112"/>
      <point x="255" y="-124" type="curve" smooth="yes"/>
      <point x="251" y="-137"/>
      <point x="258" y="-143"/>
      <point x="266" y="-143" type="curve" smooth="yes"/>
      <point x="275" y="-143"/>
      <point x="285" y="-136"/>
      <point x="288" y="-125" type="curve" smooth="yes"/>
      <point x="291" y="-112"/>
      <point x="414" y="397"/>
    </contour>
  </outline>
</glyph>
<glyph name="currency" format="2">
  <advance width="1042"/>
  <unicode hex="00A4"/>
  <outline>
    <contour>
      <point x="539" y="445" type="curve" smooth="yes"/>
      <point x="374" y="445"/>
      <point x="288" y="566"/>
      <point x="333" y="737" type="curve" smooth="yes"/>
      <point x="379" y="907"/>
      <point x="530" y="1024"/>
      <point x="694" y="1024" type="curve" smooth="yes"/>
      <point x="860" y="1024"/>
      <point x="949" y="908"/>
      <point x="903" y="737" type="curve" smooth="yes"/>
      <point x="857" y="565"/>
      <point x="706" y="445"/>
    </contour>
    <contour>
      <point x="542" y="455" type="curve" smooth="yes"/>
      <point x="706" y="455"/>
      <point x="850" y="574"/>
      <point x="893" y="737" type="curve" smooth="yes"/>
      <point x="937" y="898"/>
      <point x="854" y="1014"/>
      <point x="692" y="1014" type="curve" smooth="yes"/>
      <point x="532" y="1014"/>
      <point x="387" y="899"/>
      <point x="343" y="737" type="curve" smooth="yes"/>
      <point x="300" y="573"/>
      <point x="382" y="455"/>
    </contour>
    <contour>
      <point x="915" y="315" type="curve" smooth="yes"/>
      <point x="913" y="313"/>
      <point x="910" y="313"/>
      <point x="908" y="316" type="curve" smooth="yes"/>
      <point x="761" y="522" type="line"/>
      <point x="770" y="529" type="line"/>
      <point x="917" y="323" type="line" smooth="yes"/>
      <point x="919" y="320"/>
      <point x="918" y="317"/>
    </contour>
    <contour>
      <point x="320" y="1153" type="curve" smooth="yes"/>
      <point x="322" y="1155"/>
      <point x="325" y="1155"/>
      <point x="328" y="1152" type="curve" smooth="yes"/>
      <point x="474" y="947" type="line"/>
      <point x="465" y="940" type="line"/>
      <point x="319" y="1145" type="line" smooth="yes"/>
      <point x="317" y="1148"/>
      <point x="317" y="1151"/>
    </contour>
    <contour>
      <point x="95" y="315" type="curve" smooth="yes"/>
      <point x="94" y="317"/>
      <point x="95" y="320"/>
      <point x="99" y="323" type="curve" smooth="yes"/>
      <point x="357" y="529" type="line"/>
      <point x="362" y="522" type="line"/>
      <point x="104" y="316" type="line" smooth="yes"/>
      <point x="100" y="313"/>
      <point x="97" y="313"/>
    </contour>
    <contour>
      <point x="1140" y="1153" type="curve" smooth="yes"/>
      <point x="1141" y="1151"/>
      <point x="1141" y="1148"/>
      <point x="1137" y="1145" type="curve" smooth="yes"/>
      <point x="881" y="940" type="line"/>
      <point x="876" y="947" type="line"/>
      <point x="1132" y="1152" type="line" smooth="yes"/>
      <point x="1135" y="1155"/>
      <point x="1138" y="1155"/>
    </contour>
  </outline>
</glyph>
<glyph name="section" format="2">
  <advance width="898"/>
  <unicode hex="00A7"/>
  <outline>
    <contour>
      <point x="311" y="-346" type="curve" smooth="yes"/>
      <point x="486" y="-346"/>
      <point x="623" y="-225"/>
      <point x="669" y="-72" type="curve" smooth="yes"/>
      <point x="709" y="60"/>
      <point x="668" y="172"/>
      <point x="445" y="271" type="curve" smooth="yes"/>
      <point x="229" y="367"/>
      <point x="190" y="476"/>
      <point x="228" y="603" type="curve" smooth="yes"/>
      <point x="267" y="733"/>
      <point x="361" y="819"/>
      <point x="473" y="852" type="curve"/>
      <point x="465" y="860" type="line"/>
      <point x="340" y="819"/>
      <point x="227" y="716"/>
      <point x="185" y="577" type="curve" smooth="yes"/>
      <point x="140" y="428"/>
      <point x="191" y="323"/>
      <point x="405" y="227" type="curve" smooth="yes"/>
      <point x="622" y="131"/>
      <point x="663" y="23"/>
      <point x="627" y="-97" type="curve" smooth="yes"/>
      <point x="583" y="-243"/>
      <point x="459" y="-333"/>
      <point x="315" y="-333" type="curve" smooth="yes"/>
      <point x="151" y="-333"/>
      <point x="32" y="-251"/>
      <point x="19" y="-52" type="curve" smooth="yes"/>
      <point x="19" y="-48"/>
      <point x="17" y="-47"/>
      <point x="12" y="-48" type="curve" smooth="yes"/>
      <point x="9" y="-49"/>
      <point x="7" y="-52"/>
      <point x="7" y="-55" type="curve" smooth="yes"/>
      <point x="0" y="-339" type="line" smooth="yes"/>
      <point x="0" y="-342"/>
      <point x="2" y="-344"/>
      <point x="6" y="-344" type="curve" smooth="yes"/>
      <point x="12" y="-344"/>
      <point x="56" y="-249"/>
      <point x="63" y="-249" type="curve" smooth="yes"/>
      <point x="85" y="-249"/>
      <point x="129" y="-346"/>
    </contour>
    <contour>
      <point x="748" y="1412" type="curve" smooth="yes"/>
      <point x="882" y="1412"/>
      <point x="972" y="1342"/>
      <point x="1003" y="1190" type="curve" smooth="yes"/>
      <point x="1016" y="1120" type="line" smooth="yes"/>
      <point x="1021" y="1096"/>
      <point x="1033" y="1086"/>
      <point x="1045" y="1086" type="curve" smooth="yes"/>
      <point x="1065" y="1086"/>
      <point x="1078" y="1106"/>
      <point x="1079" y="1148" type="curve" smooth="yes"/>
      <point x="1084" y="1292"/>
      <point x="963" y="1420"/>
      <point x="749" y="1420" type="curve" smooth="yes"/>
      <point x="568" y="1420"/>
      <point x="403" y="1317"/>
      <point x="354" y="1160" type="curve" smooth="yes"/>
      <point x="305" y="1007"/>
      <point x="361" y="861"/>
      <point x="569" y="767" type="curve" smooth="yes"/>
      <point x="785" y="669"/>
      <point x="827" y="563"/>
      <point x="790" y="443" type="curve" smooth="yes"/>
      <point x="752" y="318"/>
      <point x="657" y="235"/>
      <point x="539" y="213" type="curve"/>
      <point x="541" y="200" type="line"/>
      <point x="684" y="226"/>
      <point x="793" y="335"/>
      <point x="832" y="468" type="curve" smooth="yes"/>
      <point x="873" y="600"/>
      <point x="832" y="713"/>
      <point x="608" y="811" type="curve" smooth="yes"/>
      <point x="410" y="898"/>
      <point x="349" y="1019"/>
      <point x="391" y="1153" type="curve" smooth="yes"/>
      <point x="443" y="1316"/>
      <point x="578" y="1412"/>
    </contour>
  </outline>
</glyph>
<glyph name="logicalnot" format="2">
  <advance width="898"/>
  <unicode hex="00AC"/>
  <outline>
    <contour>
      <point x="213" y="836" type="curve" smooth="yes"/>
      <point x="212" y="833"/>
      <point x="215" y="832"/>
      <point x="218" y="832" type="curve" smooth="yes"/>
      <point x="903" y="832" type="line"/>
      <point x="902" y="836" type="line"/>
      <point x="832" y="534" type="line" smooth="yes"/>
      <point x="832" y="531"/>
      <point x="833" y="529"/>
      <point x="835" y="529" type="curve" smooth="yes"/>
      <point x="838" y="529"/>
      <point x="841" y="531"/>
      <point x="841" y="534" type="curve" smooth="yes"/>
      <point x="911" y="835" type="line" smooth="yes"/>
      <point x="912" y="839"/>
      <point x="910" y="841"/>
      <point x="906" y="841" type="curve" smooth="yes"/>
      <point x="220" y="841" type="line" smooth="yes"/>
      <point x="217" y="841"/>
      <point x="214" y="839"/>
    </contour>
  </outline>
</glyph>
<glyph name="registered" format="2">
  <advance width="1168"/>
  <unicode hex="00AE"/>
  <outline>
    <contour>
      <point x="576" y="308" type="curve" smooth="yes"/>
      <point x="277" y="308"/>
      <point x="107" y="579"/>
      <point x="189" y="938" type="curve" smooth="yes"/>
      <point x="263" y="1252"/>
      <point x="541" y="1477"/>
      <point x="849" y="1477" type="curve" smooth="yes"/>
      <point x="1144" y="1477"/>
      <point x="1324" y="1215"/>
      <point x="1240" y="858" type="curve" smooth="yes"/>
      <point x="1167" y="542"/>
      <point x="888" y="308"/>
    </contour>
    <contour>
      <point x="579" y="318" type="curve" smooth="yes"/>
      <point x="884" y="318"/>
      <point x="1159" y="550"/>
      <point x="1231" y="859" type="curve" smooth="yes"/>
      <point x="1312" y="1208"/>
      <point x="1133" y="1467"/>
      <point x="847" y="1467" type="curve" smooth="yes"/>
      <point x="546" y="1467"/>
      <point x="273" y="1249"/>
      <point x="200" y="939" type="curve" smooth="yes"/>
      <point x="119" y="587"/>
      <point x="285" y="318"/>
    </contour>
    <contour>
      <point x="984" y="1031" type="curve" smooth="yes"/>
      <point x="1009" y="1182"/>
      <point x="911" y="1266"/>
      <point x="747" y="1266" type="curve" smooth="yes"/>
      <point x="549" y="1266" type="line" smooth="yes"/>
      <point x="546" y="1266"/>
      <point x="543" y="1265"/>
      <point x="543" y="1262" type="curve" smooth="yes"/>
      <point x="543" y="1260"/>
      <point x="546" y="1258"/>
      <point x="551" y="1257" type="curve" smooth="yes"/>
      <point x="611" y="1249" type="line" smooth="yes"/>
      <point x="621" y="1248"/>
      <point x="625" y="1240"/>
      <point x="622" y="1227" type="curve" smooth="yes"/>
      <point x="581" y="1049"/>
      <point x="515" y="770"/>
      <point x="468" y="582" type="curve" smooth="yes"/>
      <point x="464" y="567"/>
      <point x="458" y="561"/>
      <point x="445" y="559" type="curve" smooth="yes"/>
      <point x="386" y="549" type="line" smooth="yes"/>
      <point x="381" y="548"/>
      <point x="376" y="548"/>
      <point x="376" y="543" type="curve" smooth="yes"/>
      <point x="376" y="539"/>
      <point x="380" y="538"/>
      <point x="384" y="538" type="curve" smooth="yes"/>
      <point x="597" y="538" type="line" smooth="yes"/>
      <point x="600" y="538"/>
      <point x="602" y="539"/>
      <point x="602" y="543" type="curve" smooth="yes"/>
      <point x="602" y="546"/>
      <point x="600" y="548"/>
      <point x="596" y="548" type="curve" smooth="yes"/>
      <point x="532" y="556" type="line" smooth="yes"/>
      <point x="521" y="557"/>
      <point x="515" y="569"/>
      <point x="518" y="583" type="curve" smooth="yes"/>
      <point x="561" y="769"/>
      <point x="626" y="1045"/>
      <point x="674" y="1223" type="curve" smooth="yes"/>
      <point x="680" y="1245"/>
      <point x="703" y="1256"/>
      <point x="747" y="1256" type="curve" smooth="yes"/>
      <point x="893" y="1256"/>
      <point x="960" y="1184"/>
      <point x="936" y="1046" type="curve" smooth="yes"/>
      <point x="918" y="934"/>
      <point x="843" y="846"/>
      <point x="697" y="846" type="curve" smooth="yes"/>
      <point x="646" y="846"/>
      <point x="607" y="858"/>
      <point x="577" y="874" type="curve"/>
      <point x="570" y="866" type="line"/>
      <point x="596" y="847"/>
      <point x="642" y="836"/>
      <point x="693" y="836" type="curve" smooth="yes"/>
      <point x="709" y="836"/>
      <point x="724" y="837"/>
      <point x="739" y="838" type="curve" smooth="yes"/>
      <point x="879" y="853"/>
      <point x="966" y="935"/>
    </contour>
    <contour>
      <point x="712" y="838" type="line"/>
      <point x="773" y="658" type="line" smooth="yes"/>
      <point x="808" y="554"/>
      <point x="831" y="528"/>
      <point x="869" y="528" type="curve" smooth="yes"/>
      <point x="899" y="528"/>
      <point x="920" y="541"/>
      <point x="920" y="559" type="curve" smooth="yes"/>
      <point x="920" y="561"/>
      <point x="919" y="562"/>
      <point x="918" y="562" type="curve" smooth="yes"/>
      <point x="917" y="562"/>
      <point x="916" y="561"/>
      <point x="914" y="557" type="curve" smooth="yes"/>
      <point x="908" y="545"/>
      <point x="902" y="541"/>
      <point x="890" y="541" type="curve" smooth="yes"/>
      <point x="871" y="541"/>
      <point x="857" y="556"/>
      <point x="823" y="652" type="curve" smooth="yes"/>
      <point x="755" y="842" type="line"/>
    </contour>
  </outline>
</glyph>
<glyph name="ordmasculine" format="2">
  <advance width="764"/>
  <unicode hex="00BA"/>
  <outline>
    <contour>
      <point x="618" y="1414" type="curve" smooth="yes"/>
      <point x="452" y="1428"/>
      <point x="253" y="1264"/>
      <point x="210" y="1013" type="curve" smooth="yes"/>
      <point x="170" y="772"/>
      <point x="283" y="661"/>
      <point x="425" y="661" type="curve" smooth="yes"/>
      <point x="592" y="661"/>
      <point x="770" y="830"/>
      <point x="807" y="1046" type="curve" smooth="yes"/>
      <point x="845" y="1272"/>
      <point x="770" y="1403"/>
    </contour>
    <contour>
      <point x="426" y="668" type="curve" smooth="yes"/>
      <point x="304" y="668"/>
      <point x="217.0368812069" y="752.2137433582"/>
      <point x="261" y="1007" type="curve" smooth="yes"/>
      <point x="301.9840056893" y="1246.9063747667"/>
      <point x="470.0480124138" y="1419.8213143532"/>
      <point x="617" y="1407" type="curve" smooth="yes"/>
      <point x="732.7689181377" y="1398.3173311397"/>
      <point x="795.9541342819" y="1293.7418720052"/>
      <point x="753" y="1052" type="curve" smooth="yes"/>
      <point x="717.0152237606" y="841.0892281525"/>
      <point x="568" y="668"/>
    </contour>
  </outline>
</glyph>
<glyph name="Eth" format="2">
  <advance width="1245"/>
  <unicode hex="00D0"/>
  <guideline x="166" y="700" angle="0" identifier="9wALwiKkGu"/>
  <anchor x="905" y="1485" name="center"/>
  <outline>
    <contour>
      <point x="94" y="700" type="curve" smooth="yes"/>
      <point x="93" y="697"/>
      <point x="94" y="695"/>
      <point x="97" y="695" type="curve" smooth="yes"/>
      <point x="752" y="695" type="line" smooth="yes"/>
      <point x="755" y="695"/>
      <point x="758" y="697"/>
      <point x="759" y="700" type="curve" smooth="yes"/>
      <point x="760" y="703"/>
      <point x="759" y="705"/>
      <point x="756" y="705" type="curve" smooth="yes"/>
      <point x="101" y="705" type="line" smooth="yes"/>
      <point x="98" y="705"/>
      <point x="95" y="703"/>
    </contour>
    <component base="D"/>
  </outline>
</glyph>
<glyph name="Oslash" format="2">
  <advance width="1316"/>
  <unicode hex="00D8"/>
  <anchor x="987.0" y="1546.0" name="center"/>
  <outline>
    <contour>
      <point x="62" y="-9" type="curve" smooth="yes"/>
      <point x="65" y="-12"/>
      <point x="68" y="-10"/>
      <point x="69" y="-9" type="curve" smooth="yes"/>
      <point x="1397" y="1414" type="line" smooth="yes"/>
      <point x="1399" y="1416"/>
      <point x="1402" y="1419"/>
      <point x="1399" y="1422" type="curve" smooth="yes"/>
      <point x="1396" y="1425"/>
      <point x="1392" y="1423"/>
      <point x="1391" y="1421" type="curve" smooth="yes"/>
      <point x="63" y="-1" type="line" smooth="yes"/>
      <point x="60" y="-4"/>
      <point x="60" y="-7"/>
    </contour>
    <component base="O"/>
  </outline>
</glyph>
<glyph name="ae" format="2">
  <advance width="1126"/>
  <unicode hex="00E6"/>
  <anchor x="744" y="1023" name="center"/>
  <outline>
    <contour>
      <point x="775" y="865"/>
      <point x="565" y="618"/>
      <point x="524" y="331" type="curve" smooth="yes"/>
      <point x="492" y="104"/>
      <point x="576" y="-15"/>
      <point x="721" y="-15" type="curve" smooth="yes"/>
      <point x="887" y="-15"/>
      <point x="1007" y="89"/>
      <point x="1064" y="260" type="curve" smooth="yes"/>
      <point x="1067" y="268"/>
      <point x="1064" y="272"/>
      <point x="1062" y="272" type="curve" smooth="yes"/>
      <point x="1058" y="272"/>
      <point x="1056" y="268"/>
      <point x="1054" y="262" type="curve" smooth="yes"/>
      <point x="987" y="84"/>
      <point x="876" y="2"/>
      <point x="749" y="2" type="curve" smooth="yes"/>
      <point x="631" y="2"/>
      <point x="552" y="111"/>
      <point x="583" y="317" type="curve" smooth="yes"/>
      <point x="632" y="642"/>
      <point x="797" y="856"/>
      <point x="952" y="856" type="curve" smooth="yes"/>
      <point x="1019.9545454545455" y="856.0"/>
      <point x="1067.0" y="761"/>
      <point x="1067" y="641" type="curve" smooth="yes"/>
      <point x="1067" y="609"/>
      <point x="1065" y="599"/>
      <point x="1061" y="593" type="curve"/>
      <point x="1069" y="606" type="line"/>
      <point x="1010" y="581"/>
      <point x="567.0" y="469.0"/>
      <point x="567" y="469" type="curve"/>
      <point x="567" y="456" type="line"/>
      <point x="567.0" y="456.0"/>
      <point x="1125.0501442145137" y="598.0238781973875"/>
      <point x="1146" y="608" type="curve" smooth="yes"/>
      <point x="1150" y="610"/>
      <point x="1154" y="613"/>
      <point x="1152" y="618" type="curve" smooth="yes"/>
      <point x="1150" y="622"/>
      <point x="1147" y="623"/>
      <point x="1140" y="621" type="curve" smooth="yes"/>
      <point x="1122" y="614"/>
      <point x="1114" y="619"/>
      <point x="1114" y="632" type="curve" smooth="yes"/>
      <point x="1114.0" y="756.0649350649351"/>
      <point x="1057.8108108108108" y="865.0"/>
      <point x="960" y="865" type="curve" smooth="yes"/>
    </contour>
    <contour>
      <point x="313" y="864"/>
      <point x="202" y="775"/>
      <point x="177" y="680" type="curve" smooth="yes"/>
      <point x="168" y="648"/>
      <point x="179" y="630"/>
      <point x="199" y="630" type="curve" smooth="yes"/>
      <point x="219" y="630"/>
      <point x="240" y="642"/>
      <point x="249" y="674" type="curve" smooth="yes"/>
      <point x="261" y="718" type="line" smooth="yes"/>
      <point x="277" y="777"/>
      <point x="345" y="856"/>
      <point x="461" y="856" type="curve" smooth="yes"/>
      <point x="566" y="856"/>
      <point x="626" y="747"/>
      <point x="581" y="547" type="curve" smooth="yes"/>
      <point x="571" y="503" type="line"/>
      <point x="625" y="541" type="line"/>
      <point x="669" y="735"/>
      <point x="603" y="864"/>
      <point x="461" y="864" type="curve" smooth="yes"/>
    </contour>
    <contour>
      <point x="204" y="402"/>
      <point x="53" y="293"/>
      <point x="17" y="162" type="curve" smooth="yes"/>
      <point x="-6" y="77"/>
      <point x="64" y="-16"/>
      <point x="182" y="-16" type="curve" smooth="yes"/>
      <point x="305" y="-16"/>
      <point x="460" y="70"/>
      <point x="545" y="223" type="curve"/>
      <point x="540" y="233" type="line"/>
      <point x="456" y="78"/>
      <point x="299" y="4"/>
      <point x="219" y="4" type="curve" smooth="yes"/>
      <point x="109" y="4"/>
      <point x="60" y="82"/>
      <point x="78" y="157" type="curve" smooth="yes"/>
      <point x="108.0" y="283.0"/>
      <point x="216" y="392"/>
      <point x="570" y="456" type="curve"/>
      <point x="564" y="468" type="line"/>
    </contour>
  </outline>
</glyph>
<glyph name="eth" format="2">
  <advance width="779"/>
  <unicode hex="00F0"/>
  <outline>
    <contour>
      <point x="726" y="444" type="curve" smooth="yes"/>
      <point x="832" y="843"/>
      <point x="743" y="1335"/>
      <point x="500" y="1427" type="curve" smooth="yes"/>
      <point x="494" y="1429"/>
      <point x="488" y="1430"/>
      <point x="485" y="1426" type="curve" smooth="yes"/>
      <point x="480" y="1420"/>
      <point x="483" y="1415"/>
      <point x="487" y="1413" type="curve" smooth="yes"/>
      <point x="672" y="1338"/>
      <point x="743" y="1029"/>
      <point x="688" y="478" type="curve"/>
      <point x="694" y="481" type="line"/>
      <point x="721" y="738"/>
      <point x="660" y="871"/>
      <point x="510" y="871" type="curve" smooth="yes"/>
      <point x="302" y="871"/>
      <point x="130" y="685"/>
      <point x="69" y="461" type="curve" smooth="yes"/>
      <point x="-4" y="186"/>
      <point x="103" y="-21"/>
      <point x="282" y="-21" type="curve" smooth="yes"/>
      <point x="479" y="-21"/>
      <point x="648" y="157"/>
    </contour>
    <contour>
      <point x="297" y="-11" type="curve" smooth="yes"/>
      <point x="142" y="-11"/>
      <point x="56" y="204"/>
      <point x="127" y="467" type="curve" smooth="yes"/>
      <point x="193" y="712"/>
      <point x="337" y="861"/>
      <point x="508" y="861" type="curve" smooth="yes"/>
      <point x="679" y="861"/>
      <point x="735" y="650"/>
      <point x="667" y="395" type="curve" smooth="yes"/>
      <point x="594" y="121"/>
      <point x="429" y="-11"/>
    </contour>
    <contour>
      <point x="901" y="1293" type="line" smooth="yes"/>
      <point x="903" y="1294"/>
      <point x="905" y="1297"/>
      <point x="904" y="1299" type="curve" smooth="yes"/>
      <point x="904" y="1302"/>
      <point x="902" y="1304"/>
      <point x="898" y="1302" type="curve" smooth="yes"/>
      <point x="418" y="1093" type="line" smooth="yes"/>
      <point x="415" y="1092"/>
      <point x="413" y="1089"/>
      <point x="414" y="1086" type="curve" smooth="yes"/>
      <point x="415" y="1084"/>
      <point x="418" y="1083"/>
      <point x="420" y="1084" type="curve" smooth="yes"/>
    </contour>
  </outline>
</glyph>
<glyph name="thorn" format="2">
  <advance width="760"/>
  <unicode hex="00FE"/>
  <outline>
    <contour>
      <point x="410" y="1440" type="curve" smooth="yes"/>
      <point x="364" y="1440"/>
      <point x="313" y="1409"/>
      <point x="260" y="1348" type="curve" smooth="yes"/>
      <point x="256" y="1343"/>
      <point x="255" y="1341"/>
      <point x="258" y="1339" type="curve" smooth="yes"/>
      <point x="260" y="1338"/>
      <point x="262" y="1339"/>
      <point x="267" y="1343" type="curve" smooth="yes"/>
      <point x="318" y="1393"/>
      <point x="347" y="1406"/>
      <point x="379" y="1406" type="curve" smooth="yes"/>
      <point x="411" y="1406"/>
      <point x="436" y="1387"/>
      <point x="403" y="1272" type="curve" smooth="yes"/>
      <point x="-88" y="-424" type="line" smooth="yes"/>
      <point x="-98" y="-457"/>
      <point x="-128" y="-471"/>
      <point x="-195" y="-480" type="curve" smooth="yes"/>
      <point x="-201" y="-481"/>
      <point x="-203" y="-483"/>
      <point x="-203" y="-486" type="curve" smooth="yes"/>
      <point x="-203" y="-489"/>
      <point x="-200" y="-490"/>
      <point x="-195" y="-490" type="curve" smooth="yes"/>
      <point x="83" y="-483" type="line" smooth="yes"/>
      <point x="88" y="-483"/>
      <point x="90" y="-481"/>
      <point x="90" y="-478" type="curve" smooth="yes"/>
      <point x="90" y="-475"/>
      <point x="88" y="-473"/>
      <point x="84" y="-473" type="curve" smooth="yes"/>
      <point x="1" y="-463" type="line" smooth="yes"/>
      <point x="-33" y="-459"/>
      <point x="-44" y="-447"/>
      <point x="-36" y="-420" type="curve"/>
      <point x="459" y="1291" type="line" smooth="yes"/>
      <point x="486" y="1401"/>
      <point x="464" y="1440"/>
    </contour>
    <contour>
      <point x="103" y="650" type="curve" smooth="yes"/>
      <point x="208" y="808"/>
      <point x="351" y="875"/>
      <point x="483" y="861" type="curve" smooth="yes"/>
      <point x="612" y="847"/>
      <point x="685" y="712"/>
      <point x="653" y="469" type="curve" smooth="yes"/>
      <point x="614" y="171"/>
      <point x="434" y="-15"/>
      <point x="240" y="-5" type="curve" smooth="yes"/>
      <point x="172" y="-1"/>
      <point x="111" y="25"/>
      <point x="83" y="83" type="curve"/>
      <point x="73" y="77" type="line"/>
      <point x="104" y="14"/>
      <point x="162" y="-15"/>
      <point x="239" y="-19" type="curve" smooth="yes"/>
      <point x="463" y="-29"/>
      <point x="678" y="184"/>
      <point x="714" y="477" type="curve" smooth="yes"/>
      <point x="742" y="705"/>
      <point x="661" y="855"/>
      <point x="488" y="873" type="curve" smooth="yes"/>
      <point x="344" y="888"/>
      <point x="194" y="814"/>
      <point x="88" y="657" type="curve" smooth="yes"/>
      <point x="85" y="653"/>
      <point x="86" y="647"/>
      <point x="90" y="644" type="curve" smooth="yes"/>
      <point x="94" y="642"/>
      <point x="99" y="644"/>
    </contour>
  </outline>
</glyph>
<glyph name="Aogonek" format="2">
  <advance width="996"/>
  <unicode hex="0104"/>
  <outline>
    <contour>
      <point x="784" y="17" type="line"/>
      <point x="595" y="-45"/>
      <point x="500" y="-176"/>
      <point x="496" y="-277" type="curve" smooth="yes"/>
      <point x="494" y="-345"/>
      <point x="540" y="-384"/>
      <point x="625" y="-384" type="curve" smooth="yes"/>
      <point x="695" y="-384"/>
      <point x="754" y="-342"/>
      <point x="781" y="-305" type="curve" smooth="yes"/>
      <point x="784" y="-301"/>
      <point x="786" y="-297"/>
      <point x="784" y="-296" type="curve" smooth="yes"/>
      <point x="781" y="-295"/>
      <point x="778" y="-297"/>
      <point x="774" y="-301" type="curve" smooth="yes"/>
      <point x="745" y="-339"/>
      <point x="690" y="-369"/>
      <point x="642" y="-369" type="curve" smooth="yes"/>
      <point x="580" y="-369"/>
      <point x="550" y="-333"/>
      <point x="553" y="-272" type="curve" smooth="yes"/>
      <point x="556" y="-179"/>
      <point x="631" y="-51"/>
      <point x="786" y="10" type="curve"/>
    </contour>
    <component base="A"/>
  </outline>
</glyph>
<glyph name="Hbar" format="2">
  <advance width="1289"/>
  <unicode hex="0126"/>
  <anchor x="948" y="1499" name="center"/>
  <outline>
    <contour>
      <point x="217" y="1006" type="curve" smooth="yes"/>
      <point x="216" y="1003"/>
      <point x="217" y="1001"/>
      <point x="220" y="1001" type="curve" smooth="yes"/>
      <point x="1419" y="1001" type="line" smooth="yes"/>
      <point x="1422" y="1001"/>
      <point x="1425" y="1003"/>
      <point x="1426" y="1006" type="curve" smooth="yes"/>
      <point x="1426" y="1009"/>
      <point x="1425" y="1011"/>
      <point x="1422" y="1011" type="curve" smooth="yes"/>
      <point x="223" y="1011" type="line" smooth="yes"/>
      <point x="220" y="1011"/>
      <point x="217" y="1009"/>
    </contour>
    <component base="H"/>
  </outline>
</glyph>
<glyph name="hbar" format="2">
  <advance width="828"/>
  <unicode hex="0127"/>
  <outline>
    <contour>
      <point x="482" y="1404" type="line" smooth="yes"/>
      <point x="488" y="1424"/>
      <point x="486.0" y="1438.0"/>
      <point x="474" y="1438.0" type="curve" smooth="yes"/>
      <point x="458" y="1438"/>
      <point x="436" y="1417"/>
      <point x="426" y="1383" type="curve" smooth="yes"/>
      <point x="54" y="70" type="line"/>
      <point x="36" y="5"/>
      <point x="32" y="-15"/>
      <point x="63" y="-15" type="curve" smooth="yes"/>
      <point x="93" y="-15"/>
      <point x="120" y="8"/>
      <point x="120" y="30" type="curve" smooth="yes"/>
      <point x="120" y="44"/>
      <point x="110" y="52"/>
      <point x="110" y="68" type="curve" smooth="yes"/>
      <point x="110" y="104"/>
      <point x="113" y="141"/>
      <point x="152" y="262" type="curve" smooth="yes"/>
      <point x="290" y="686"/>
      <point x="529" y="835"/>
      <point x="635" y="835" type="curve" smooth="yes"/>
      <point x="704" y="835"/>
      <point x="731" y="791"/>
      <point x="682" y="639" type="curve" smooth="yes"/>
      <point x="519" y="135" type="line" smooth="yes"/>
      <point x="486" y="33"/>
      <point x="513" y="-15"/>
      <point x="572" y="-15" type="curve" smooth="yes"/>
      <point x="620" y="-15"/>
      <point x="676" y="22"/>
      <point x="740" y="108" type="curve" smooth="yes"/>
      <point x="743" y="112"/>
      <point x="744" y="115"/>
      <point x="742" y="117" type="curve" smooth="yes"/>
      <point x="739" y="119"/>
      <point x="736" y="117"/>
      <point x="733" y="113" type="curve" smooth="yes"/>
      <point x="670" y="38"/>
      <point x="630" y="19"/>
      <point x="599" y="19" type="curve" smooth="yes"/>
      <point x="561" y="19"/>
      <point x="539" y="46"/>
      <point x="583" y="181" type="curve" smooth="yes"/>
      <point x="728" y="625" type="line" smooth="yes"/>
      <point x="773" y="762"/>
      <point x="789" y="865"/>
      <point x="672" y="865" type="curve" smooth="yes"/>
      <point x="515" y="865"/>
      <point x="347" y="714"/>
      <point x="200" y="423" type="curve"/>
      <point x="201" y="421" type="line"/>
    </contour>
    <contour>
      <point x="231" y="1112" type="curve" smooth="yes"/>
      <point x="230" y="1109"/>
      <point x="232" y="1107"/>
      <point x="235" y="1107" type="curve" smooth="yes"/>
      <point x="649" y="1107" type="line" smooth="yes"/>
      <point x="652" y="1107"/>
      <point x="654" y="1109"/>
      <point x="655" y="1112" type="curve" smooth="yes"/>
      <point x="656" y="1115"/>
      <point x="654" y="1117"/>
      <point x="651" y="1117" type="curve" smooth="yes"/>
      <point x="237" y="1117" type="line" smooth="yes"/>
      <point x="234" y="1117"/>
      <point x="232" y="1115"/>
    </contour>
  </outline>
</glyph>
<glyph name="Iogonek" format="2">
  <advance width="582"/>
  <unicode hex="012E"/>
  <outline>
    <contour>
      <point x="251" y="7" type="line"/>
      <point x="80" y="-53"/>
      <point x="-22" y="-175"/>
      <point x="-26" y="-277" type="curve" smooth="yes"/>
      <point x="-28" y="-345"/>
      <point x="18" y="-384"/>
      <point x="103" y="-384" type="curve" smooth="yes"/>
      <point x="173" y="-384"/>
      <point x="232" y="-342"/>
      <point x="259" y="-305" type="curve" smooth="yes"/>
      <point x="262" y="-301"/>
      <point x="264" y="-297"/>
      <point x="262" y="-296" type="curve" smooth="yes"/>
      <point x="259" y="-295"/>
      <point x="256" y="-297"/>
      <point x="252" y="-301" type="curve" smooth="yes"/>
      <point x="223" y="-339"/>
      <point x="168" y="-369"/>
      <point x="120" y="-369" type="curve" smooth="yes"/>
      <point x="58" y="-369"/>
      <point x="28" y="-333"/>
      <point x="31" y="-272" type="curve" smooth="yes"/>
      <point x="34" y="-177"/>
      <point x="116" y="-58"/>
      <point x="254" y="0" type="curve"/>
    </contour>
    <component base="I" xOffset="-10"/>
  </outline>
</glyph>
<glyph name="iogonek" format="2">
  <advance width="412"/>
  <unicode hex="012F"/>
  <outline>
    <contour>
      <point x="198" y="11" type="line"/>
      <point x="51.5262759996" y="-49.9487979062"/>
      <point x="-48" y="-170"/>
      <point x="-48" y="-268" type="curve" smooth="yes"/>
      <point x="-48" y="-341"/>
      <point x="-2.7803030303" y="-384"/>
      <point x="79" y="-384" type="curve" smooth="yes"/>
      <point x="149" y="-384"/>
      <point x="207" y="-342"/>
      <point x="233" y="-305" type="curve" smooth="yes"/>
      <point x="236" y="-301"/>
      <point x="237" y="-297"/>
      <point x="235" y="-296" type="curve" smooth="yes"/>
      <point x="232" y="-295"/>
      <point x="229" y="-297"/>
      <point x="226" y="-301" type="curve" smooth="yes"/>
      <point x="198" y="-339"/>
      <point x="144" y="-369"/>
      <point x="96" y="-369" type="curve" smooth="yes"/>
      <point x="37.3333333333" y="-369"/>
      <point x="8" y="-331"/>
      <point x="8" y="-268" type="curve" smooth="yes"/>
      <point x="8" y="-158"/>
      <point x="87.3213680056" y="-56.8095548689"/>
      <point x="202" y="2" type="curve"/>
    </contour>
    <component base="i"/>
  </outline>
</glyph>
<glyph name="Lslash" format="2">
  <advance width="874"/>
  <unicode hex="0141"/>
  <anchor x="431" y="1502" name="center"/>
  <anchor x="863" y="1236" name="right"/>
  <outline>
    <contour>
      <point x="118" y="502" type="curve" smooth="yes"/>
      <point x="119" y="499"/>
      <point x="122" y="499"/>
      <point x="124" y="501" type="curve" smooth="yes"/>
      <point x="750" y="944" type="line" smooth="yes"/>
      <point x="752" y="945"/>
      <point x="754" y="948"/>
      <point x="752" y="951" type="curve" smooth="yes"/>
      <point x="750" y="954"/>
      <point x="747" y="953"/>
      <point x="744" y="951" type="curve" smooth="yes"/>
      <point x="119" y="509" type="line" smooth="yes"/>
      <point x="117" y="508"/>
      <point x="116" y="505"/>
    </contour>
    <component base="L"/>
  </outline>
</glyph>
<glyph name="OE" format="2">
  <advance width="1751"/>
  <unicode hex="0152"/>
  <outline>
    <contour>
      <point x="1386" y="0" type="line" smooth="yes"/>
      <point x="1402" y="0"/>
      <point x="1405" y="-20"/>
      <point x="1419" y="-20" type="curve" smooth="yes"/>
      <point x="1505" y="-20"/>
      <point x="1643" y="156"/>
      <point x="1648" y="298" type="curve" smooth="yes"/>
      <point x="1649" y="304"/>
      <point x="1649" y="308"/>
      <point x="1645" y="308" type="curve" smooth="yes"/>
      <point x="1643" y="308"/>
      <point x="1641" y="306"/>
      <point x="1638" y="300" type="curve" smooth="yes"/>
      <point x="1550" y="102"/>
      <point x="1440" y="8"/>
      <point x="1304" y="8" type="curve" smooth="yes"/>
      <point x="1108" y="8" type="line" smooth="yes"/>
      <point x="942" y="8"/>
      <point x="921" y="30"/>
      <point x="933" y="78" type="curve" smooth="yes"/>
      <point x="1021" y="420"/>
      <point x="1167" y="942"/>
      <point x="1299" y="1392" type="curve"/>
      <point x="1681" y="1392" type="line" smooth="yes"/>
      <point x="1771" y="1392"/>
      <point x="1814" y="1354"/>
      <point x="1862" y="1150" type="curve" smooth="yes"/>
      <point x="1865" y="1142"/>
      <point x="1868" y="1140"/>
      <point x="1872" y="1140" type="curve" smooth="yes"/>
      <point x="1876" y="1140"/>
      <point x="1876" y="1145"/>
      <point x="1874" y="1156" type="curve" smooth="yes"/>
      <point x="1843" y="1412" type="line" smooth="yes"/>
      <point x="1842" y="1426"/>
      <point x="1836" y="1430"/>
      <point x="1828" y="1430" type="curve" smooth="yes"/>
      <point x="1807" y="1430"/>
      <point x="1776" y="1400"/>
      <point x="1711" y="1400" type="curve" smooth="yes"/>
      <point x="1105" y="1400" type="line" smooth="yes"/>
      <point x="667" y="1400"/>
      <point x="324" y="1127"/>
      <point x="196" y="702" type="curve" smooth="yes"/>
      <point x="76" y="306"/>
      <point x="236" y="0"/>
      <point x="643" y="0" type="curve" smooth="yes"/>
    </contour>
    <contour>
      <point x="270" y="736" type="curve" smooth="yes"/>
      <point x="396" y="1155"/>
      <point x="708" y="1388"/>
      <point x="1104" y="1388" type="curve" smooth="yes"/>
      <point x="1239" y="1388" type="line"/>
      <point x="853" y="12" type="line"/>
      <point x="691" y="12" type="line" smooth="yes"/>
      <point x="280" y="12"/>
      <point x="134" y="286"/>
    </contour>
    <contour>
      <point x="1076" y="700" type="line"/>
      <point x="1076" y="692" type="line"/>
      <point x="1440" y="692" type="line" smooth="yes"/>
      <point x="1522" y="692"/>
      <point x="1565" y="660"/>
      <point x="1597" y="554" type="curve" smooth="yes"/>
      <point x="1599" y="550"/>
      <point x="1601" y="548"/>
      <point x="1605" y="550" type="curve" smooth="yes"/>
      <point x="1609" y="552"/>
      <point x="1607" y="554"/>
      <point x="1606" y="566" type="curve" smooth="yes"/>
      <point x="1566" y="854" type="line" smooth="yes"/>
      <point x="1564" y="866"/>
      <point x="1560" y="868"/>
      <point x="1556" y="868" type="curve" smooth="yes"/>
      <point x="1552" y="868"/>
      <point x="1550" y="864"/>
      <point x="1550" y="860" type="curve" smooth="yes"/>
      <point x="1550" y="734"/>
      <point x="1502" y="700"/>
      <point x="1440" y="700" type="curve" smooth="yes"/>
    </contour>
  </outline>
</glyph>
<glyph name="scedilla" format="2">
  <advance width="588"/>
  <unicode hex="015F"/>
  <outline>
    <contour>
      <point x="228" y="-7" type="line"/>
      <point x="144" y="-124" type="line" smooth="yes"/>
      <point x="138" y="-132"/>
      <point x="139" y="-137"/>
      <point x="147" y="-137" type="curve" smooth="yes"/>
      <point x="181" y="-137" type="line" smooth="yes"/>
      <point x="247" y="-137"/>
      <point x="266" y="-189"/>
      <point x="249" y="-257" type="curve" smooth="yes"/>
      <point x="230" y="-333"/>
      <point x="188" y="-372"/>
      <point x="132" y="-372" type="curve" smooth="yes"/>
      <point x="76" y="-372"/>
      <point x="30" y="-347"/>
      <point x="33" y="-287" type="curve" smooth="yes"/>
      <point x="33" y="-281"/>
      <point x="32" y="-278"/>
      <point x="28" y="-279" type="curve" smooth="yes"/>
      <point x="23" y="-280"/>
      <point x="22" y="-283"/>
      <point x="21" y="-289" type="curve" smooth="yes"/>
      <point x="18" y="-344"/>
      <point x="61" y="-384"/>
      <point x="134" y="-384" type="curve" smooth="yes"/>
      <point x="220" y="-384"/>
      <point x="295" y="-329"/>
      <point x="315" y="-251" type="curve" smooth="yes"/>
      <point x="332" y="-183"/>
      <point x="282" y="-125"/>
      <point x="184" y="-125" type="curve" smooth="yes"/>
      <point x="171" y="-125"/>
      <point x="166" y="-125"/>
      <point x="152" y="-125" type="curve"/>
      <point x="154" y="-131" type="line"/>
      <point x="242" y="-7" type="line"/>
    </contour>
    <component base="s"/>
  </outline>
</glyph>
<glyph name="Tbar" format="2">
  <advance width="903"/>
  <unicode hex="0166"/>
  <anchor x="357" y="1516" name="center"/>
  <outline>
    <contour>
      <point x="208" y="704" type="curve" smooth="yes"/>
      <point x="206" y="701"/>
      <point x="207" y="699"/>
      <point x="210" y="699" type="curve" smooth="yes"/>
      <point x="879" y="699" type="line" smooth="yes"/>
      <point x="882" y="699"/>
      <point x="885" y="701"/>
      <point x="887" y="704" type="curve" smooth="yes"/>
      <point x="887" y="707"/>
      <point x="886" y="709"/>
      <point x="883" y="709" type="curve" smooth="yes"/>
      <point x="214" y="709" type="line" smooth="yes"/>
      <point x="211" y="709"/>
      <point x="208" y="707"/>
    </contour>
    <component base="T"/>
  </outline>
</glyph>
<glyph name="Schwa" format="2">
  <advance width="1268"/>
  <unicode hex="018F"/>
  <outline>
    <contour>
      <point x="214" y="668"/>
      <point x="189" y="649"/>
      <point x="166" y="571" type="curve" smooth="yes"/>
      <point x="65" y="239"/>
      <point x="191" y="-20"/>
      <point x="487" y="-20" type="curve" smooth="yes"/>
      <point x="833" y="-20"/>
      <point x="1119" y="287"/>
      <point x="1236" y="674" type="curve" smooth="yes"/>
      <point x="1362" y="1092"/>
      <point x="1238" y="1416"/>
      <point x="927" y="1416" type="curve" smooth="yes"/>
      <point x="654" y="1416"/>
      <point x="437" y="1272"/>
      <point x="333" y="1067" type="curve" smooth="yes"/>
      <point x="332" y="1064"/>
      <point x="332" y="1062"/>
      <point x="334" y="1062" type="curve" smooth="yes"/>
      <point x="336" y="1062"/>
      <point x="336" y="1063"/>
      <point x="338" y="1066" type="curve" smooth="yes"/>
      <point x="448" y="1255"/>
      <point x="666" y="1389"/>
      <point x="897" y="1389" type="curve" smooth="yes"/>
      <point x="1180" y="1389"/>
      <point x="1300" y="1087"/>
      <point x="1162" y="634" type="curve" smooth="yes"/>
      <point x="1072" y="339"/>
      <point x="849" y="-12"/>
      <point x="497" y="-12" type="curve" smooth="yes"/>
      <point x="228" y="-12"/>
      <point x="141" y="290"/>
      <point x="226" y="572" type="curve" smooth="yes"/>
      <point x="247" y="640"/>
      <point x="264" y="658"/>
      <point x="309" y="658" type="curve" smooth="yes"/>
      <point x="1194" y="658" type="line"/>
      <point x="1198" y="668" type="line"/>
      <point x="272" y="668" type="line" smooth="yes"/>
    </contour>
  </outline>
</glyph>
<glyph name="fhook" format="2">
  <advance width="714"/>
  <unicode hex="0192"/>
  <outline>
    <contour>
      <point x="617" y="1220" type="curve" smooth="yes"/>
      <point x="652" y="1332"/>
      <point x="715.9485714285714" y="1390.0"/>
      <point x="773" y="1390" type="curve" smooth="yes"/>
      <point x="819" y="1390"/>
      <point x="838.0" y="1354.0"/>
      <point x="878" y="1354.0" type="curve" smooth="yes"/>
      <point x="901" y="1354.0"/>
      <point x="915.0" y="1368"/>
      <point x="915.0" y="1387" type="curve" smooth="yes"/>
      <point x="915.0" y="1408"/>
      <point x="895" y="1424"/>
      <point x="854" y="1424" type="curve" smooth="yes"/>
      <point x="721.0" y="1424.0"/>
      <point x="646" y="1346"/>
      <point x="572" y="1157" type="curve" smooth="yes"/>
      <point x="440" y="820" type="line"/>
      <point x="465" y="850" type="line"/>
      <point x="310" y="850" type="line" smooth="yes"/>
      <point x="305" y="850"/>
      <point x="302" y="848"/>
      <point x="301" y="845" type="curve" smooth="yes"/>
      <point x="301" y="843"/>
      <point x="302" y="841"/>
      <point x="306" y="840" type="curve" smooth="yes"/>
      <point x="425" y="818" type="line" smooth="yes"/>
      <point x="434" y="816"/>
      <point x="437" y="811"/>
      <point x="432" y="796" type="curve" smooth="yes"/>
      <point x="149" y="41" type="line" smooth="yes"/>
      <point x="114" y="-53"/>
      <point x="110.0" y="-175.0"/>
      <point x="76" y="-270" type="curve" smooth="yes"/>
      <point x="30" y="-399"/>
      <point x="-38" y="-448.0"/>
      <point x="-102.0" y="-448.0" type="curve" smooth="yes"/>
      <point x="-148" y="-448"/>
      <point x="-167.0" y="-418.0"/>
      <point x="-207.0" y="-418.0" type="curve" smooth="yes"/>
      <point x="-230.0" y="-418.0"/>
      <point x="-244.0" y="-432.0"/>
      <point x="-244.0" y="-451.0" type="curve" smooth="yes"/>
      <point x="-244.0" y="-472.0"/>
      <point x="-224" y="-488"/>
      <point x="-183.0" y="-488.0" type="curve" smooth="yes"/>
      <point x="-44.0" y="-488.0"/>
      <point x="44" y="-411"/>
      <point x="114.0" y="-221.0" type="curve" smooth="yes"/>
      <point x="545" y="960" type="line" smooth="yes"/>
      <point x="570.7535983869243" y="1030.568444767883"/>
      <point x="593" y="1141"/>
    </contour>
    <contour>
      <point x="477" y="840" type="line"/>
      <point x="709" y="840" type="line" smooth="yes"/>
      <point x="713" y="840"/>
      <point x="716" y="842"/>
      <point x="717" y="846" type="curve" smooth="yes"/>
      <point x="717" y="849"/>
      <point x="717" y="850"/>
      <point x="714" y="850" type="curve" smooth="yes"/>
      <point x="482" y="850" type="line"/>
    </contour>
  </outline>
</glyph>
<glyph name="ohorn" format="2">
  <advance width="759"/>
  <unicode hex="01A1"/>
  <anchor x="526" y="1000" name="center"/>
  <outline>
    <contour>
      <point x="879" y="1014" type="curve" smooth="yes"/>
      <point x="892.223" y="1063.84"/>
      <point x="883.941" y="1086"/>
      <point x="858" y="1086" type="curve" smooth="yes"/>
      <point x="835.846" y="1086"/>
      <point x="818.641" y="1066.684"/>
      <point x="810" y="1035" type="curve" smooth="yes"/>
      <point x="798" y="991" type="line" smooth="yes"/>
      <point x="764" y="867"/>
      <point x="684" y="823"/>
      <point x="545" y="854" type="curve" smooth="yes"/>
      <point x="541" y="855"/>
      <point x="538" y="853"/>
      <point x="538" y="851" type="curve" smooth="yes"/>
      <point x="536" y="847"/>
      <point x="537" y="846"/>
      <point x="543" y="845" type="curve" smooth="yes"/>
      <point x="725" y="809"/>
      <point x="847" y="898"/>
    </contour>
    <component base="o"/>
  </outline>
</glyph>
<glyph name="uhorn" format="2">
  <advance width="832"/>
  <unicode hex="01B0"/>
  <anchor x="560" y="1016" name="center"/>
  <outline>
    <contour>
      <point x="1016" y="1017" type="curve" smooth="yes"/>
      <point x="1031" y="1074"/>
      <point x="1023" y="1095"/>
      <point x="1001" y="1095" type="curve" smooth="yes"/>
      <point x="976" y="1095"/>
      <point x="957" y="1079"/>
      <point x="947" y="1040" type="curve" smooth="yes"/>
      <point x="937" y="1000" type="line" smooth="yes"/>
      <point x="913" y="903"/>
      <point x="862" y="865"/>
      <point x="782" y="865" type="curve" smooth="yes"/>
      <point x="780" y="865"/>
      <point x="777" y="864"/>
      <point x="776" y="860" type="curve" smooth="yes"/>
      <point x="776" y="858"/>
      <point x="776" y="856"/>
      <point x="778" y="856" type="curve" smooth="yes"/>
      <point x="883" y="854"/>
      <point x="993" y="929"/>
    </contour>
    <component base="u"/>
  </outline>
</glyph>
<glyph name="apostrophemod" format="2">
  <advance width="195"/>
  <unicode hex="02BC"/>
  <outline>
    <contour>
      <point x="426" y="1366" type="curve" smooth="yes"/>
      <point x="444" y="1366" type="line" smooth="yes"/>
      <point x="454" y="1366"/>
      <point x="456" y="1359"/>
      <point x="453" y="1349" type="curve" smooth="yes"/>
      <point x="431" y="1266"/>
      <point x="355" y="1158"/>
      <point x="268" y="1122" type="curve" smooth="yes"/>
      <point x="264" y="1121"/>
      <point x="263" y="1116"/>
      <point x="264" y="1115" type="curve" smooth="yes"/>
      <point x="265" y="1113"/>
      <point x="266" y="1114"/>
      <point x="272" y="1116" type="curve" smooth="yes"/>
      <point x="355" y="1151"/>
      <point x="438" y="1247"/>
      <point x="474" y="1382" type="curve" smooth="yes"/>
      <point x="491" y="1444"/>
      <point x="481" y="1479"/>
      <point x="449" y="1479" type="curve" smooth="yes"/>
      <point x="422" y="1479"/>
      <point x="397" y="1456"/>
      <point x="388" y="1421" type="curve" smooth="yes"/>
      <point x="379" y="1389"/>
      <point x="391" y="1366"/>
    </contour>
  </outline>
</glyph>
<glyph name="gravecmb" format="2">
  <unicode hex="0300"/>
  <anchor x="263" y="991" name="center"/>
  <outline>
    <contour>
      <point x="190" y="1114" type="line" smooth="yes"/>
      <point x="172" y="1156"/>
      <point x="160" y="1182"/>
      <point x="134" y="1182" type="curve" smooth="yes"/>
      <point x="112" y="1182"/>
      <point x="96" y="1166"/>
      <point x="91" y="1148" type="curve" smooth="yes"/>
      <point x="85" y="1123"/>
      <point x="102" y="1102"/>
      <point x="125" y="1075" type="curve" smooth="yes"/>
      <point x="251" y="934" type="line" smooth="yes"/>
      <point x="253" y="931"/>
      <point x="257" y="929"/>
      <point x="260" y="932" type="curve" smooth="yes"/>
      <point x="263" y="934"/>
      <point x="263" y="938"/>
      <point x="261" y="942" type="curve" smooth="yes"/>
    </contour>
  </outline>
</glyph>
<glyph name="acutecmb" format="2">
  <unicode hex="0301"/>
  <anchor x="131" y="991" name="center"/>
  <outline>
    <contour>
      <point x="252" y="1114" type="curve" smooth="yes"/>
      <point x="95" y="942" type="line" smooth="yes"/>
      <point x="91" y="938"/>
      <point x="89" y="934"/>
      <point x="90" y="932" type="curve" smooth="yes"/>
      <point x="93" y="929"/>
      <point x="97" y="931"/>
      <point x="101" y="934" type="curve" smooth="yes"/>
      <point x="297" y="1075" type="line" smooth="yes"/>
      <point x="334" y="1102"/>
      <point x="361" y="1123"/>
      <point x="367" y="1148" type="curve" smooth="yes"/>
      <point x="372" y="1166"/>
      <point x="364" y="1182"/>
      <point x="342" y="1182" type="curve" smooth="yes"/>
      <point x="316" y="1182"/>
      <point x="290" y="1156"/>
    </contour>
  </outline>
</glyph>
<glyph name="circumflexcmb" format="2">
  <unicode hex="0302"/>
  <anchor x="324" y="1062" name="center"/>
  <outline>
    <contour>
      <point x="334" y="1100" type="line"/>
      <point x="103" y="925" type="line" smooth="yes"/>
      <point x="97" y="921"/>
      <point x="93" y="918"/>
      <point x="90" y="921" type="curve" smooth="yes"/>
      <point x="89" y="923"/>
      <point x="91" y="927"/>
      <point x="96" y="933" type="curve" smooth="yes"/>
      <point x="309" y="1151" type="line" smooth="yes"/>
      <point x="325" y="1168"/>
      <point x="338" y="1176"/>
      <point x="352" y="1176" type="curve" smooth="yes"/>
      <point x="366" y="1176"/>
      <point x="375" y="1168"/>
      <point x="383" y="1151" type="curve" smooth="yes"/>
      <point x="486" y="933" type="line" smooth="yes"/>
      <point x="489" y="927"/>
      <point x="489" y="923"/>
      <point x="486" y="921" type="curve" smooth="yes"/>
      <point x="483" y="918"/>
      <point x="479" y="921"/>
      <point x="475" y="925" type="curve" smooth="yes"/>
      <point x="332" y="1100" type="line"/>
    </contour>
  </outline>
</glyph>
<glyph name="macroncmb" format="2">
  <unicode hex="0304"/>
  <anchor x="299" y="995" name="center"/>
  <outline>
    <contour>
      <point x="91" y="1015" type="curve" smooth="yes"/>
      <point x="88" y="1005"/>
      <point x="93" y="1000"/>
      <point x="103" y="1000" type="curve" smooth="yes"/>
      <point x="465" y="1000" type="line" smooth="yes"/>
      <point x="475" y="1000"/>
      <point x="482" y="1005"/>
      <point x="485" y="1015" type="curve" smooth="yes"/>
      <point x="487" y="1025"/>
      <point x="482" y="1030"/>
      <point x="472" y="1030" type="curve" smooth="yes"/>
      <point x="110" y="1030" type="line" smooth="yes"/>
      <point x="100" y="1030"/>
      <point x="93" y="1025"/>
    </contour>
  </outline>
</glyph>
<glyph name="dotaccentcmb" format="2">
  <unicode hex="0307"/>
  <anchor x="130" y="958" name="center"/>
  <outline>
    <contour>
      <point x="122" y="957" type="curve" smooth="yes"/>
      <point x="149" y="957"/>
      <point x="173" y="984"/>
      <point x="180" y="1015" type="curve" smooth="yes"/>
      <point x="188" y="1046"/>
      <point x="178" y="1072"/>
      <point x="151" y="1072" type="curve" smooth="yes"/>
      <point x="125" y="1072"/>
      <point x="100" y="1046"/>
      <point x="92" y="1015" type="curve" smooth="yes"/>
      <point x="85" y="984"/>
      <point x="96" y="957"/>
    </contour>
  </outline>
</glyph>
<glyph name="hungarumlautcmb" format="2">
  <unicode hex="030B"/>
  <anchor x="243" y="963" name="center"/>
  <outline>
    <contour>
      <point x="214" y="1107" type="curve" smooth="yes"/>
      <point x="94" y="943" type="line" smooth="yes"/>
      <point x="90" y="937"/>
      <point x="89" y="934"/>
      <point x="91" y="932" type="curve" smooth="yes"/>
      <point x="93" y="930"/>
      <point x="96" y="931"/>
      <point x="101" y="935" type="curve" smooth="yes"/>
      <point x="267" y="1078" type="line" smooth="yes"/>
      <point x="300" y="1106"/>
      <point x="322" y="1126"/>
      <point x="329" y="1154" type="curve" smooth="yes"/>
      <point x="334" y="1172"/>
      <point x="324" y="1185"/>
      <point x="304" y="1185" type="curve" smooth="yes"/>
      <point x="276" y="1185"/>
      <point x="249" y="1154"/>
    </contour>
    <contour>
      <point x="429" y="1107" type="curve" smooth="yes"/>
      <point x="309" y="943" type="line" smooth="yes"/>
      <point x="305" y="937"/>
      <point x="304" y="934"/>
      <point x="306" y="932" type="curve" smooth="yes"/>
      <point x="308" y="930"/>
      <point x="311" y="931"/>
      <point x="316" y="935" type="curve" smooth="yes"/>
      <point x="482" y="1078" type="line" smooth="yes"/>
      <point x="514" y="1106"/>
      <point x="537" y="1126"/>
      <point x="544" y="1154" type="curve" smooth="yes"/>
      <point x="549" y="1172"/>
      <point x="538" y="1185"/>
      <point x="518" y="1185" type="curve" smooth="yes"/>
      <point x="491" y="1185"/>
      <point x="464" y="1154"/>
    </contour>
  </outline>
</glyph>
<glyph name="dotbelowcmb" format="2">
  <unicode hex="0323"/>
  <outline>
    <contour>
      <point x="-13" y="-225" type="curve" smooth="yes"/>
      <point x="14" y="-225"/>
      <point x="38" y="-198"/>
      <point x="45" y="-167" type="curve" smooth="yes"/>
      <point x="53" y="-136"/>
      <point x="43" y="-110"/>
      <point x="16" y="-110" type="curve" smooth="yes"/>
      <point x="-10" y="-110"/>
      <point x="-35" y="-136"/>
      <point x="-43" y="-167" type="curve" smooth="yes"/>
      <point x="-50" y="-198"/>
      <point x="-39" y="-225"/>
    </contour>
  </outline>
</glyph>
<glyph name="dieresisbelowcmb" format="2">
  <unicode hex="0324"/>
  <outline>
    <contour>
      <point x="-12" y="-225" type="curve" smooth="yes"/>
      <point x="13" y="-225"/>
      <point x="39" y="-198"/>
      <point x="46" y="-167" type="curve" smooth="yes"/>
      <point x="54" y="-136"/>
      <point x="42" y="-110"/>
      <point x="17" y="-110" type="curve" smooth="yes"/>
      <point x="-10" y="-110"/>
      <point x="-35" y="-136"/>
      <point x="-43" y="-167" type="curve" smooth="yes"/>
      <point x="-50" y="-198"/>
      <point x="-39" y="-225"/>
    </contour>
    <contour>
      <point x="243" y="-225" type="curve" smooth="yes"/>
      <point x="270" y="-225"/>
      <point x="294" y="-198"/>
      <point x="301" y="-167" type="curve" smooth="yes"/>
      <point x="309" y="-136"/>
      <point x="299" y="-110"/>
      <point x="272" y="-110" type="curve" smooth="yes"/>
      <point x="246" y="-110"/>
      <point x="221" y="-136"/>
      <point x="213" y="-167" type="curve" smooth="yes"/>
      <point x="206" y="-198"/>
      <point x="217" y="-225"/>
    </contour>
  </outline>
</glyph>
<glyph name="macronbelowcmb" format="2">
  <unicode hex="0331"/>
  <outline>
    <contour>
      <point x="-44" y="-167" type="curve" smooth="yes"/>
      <point x="-47" y="-177"/>
      <point x="-42" y="-182"/>
      <point x="-32" y="-182" type="curve" smooth="yes"/>
      <point x="330" y="-182" type="line" smooth="yes"/>
      <point x="340" y="-182"/>
      <point x="347" y="-177"/>
      <point x="350" y="-167" type="curve" smooth="yes"/>
      <point x="352" y="-157"/>
      <point x="347" y="-152"/>
      <point x="337" y="-152" type="curve" smooth="yes"/>
      <point x="-25" y="-152" type="line" smooth="yes"/>
      <point x="-35" y="-152"/>
      <point x="-42" y="-157"/>
    </contour>
  </outline>
</glyph>
<glyph name="Germandbls" format="2">
  <advance width="1228"/>
  <unicode hex="1E9E"/>
  <outline>
    <contour>
      <point x="1417" y="1400" type="curve" smooth="yes"/>
      <point x="420" y="1400" type="line" smooth="yes"/>
      <point x="416" y="1400"/>
      <point x="414" y="1398"/>
      <point x="413" y="1396" type="curve" smooth="yes"/>
      <point x="413" y="1394"/>
      <point x="414" y="1393"/>
      <point x="418" y="1392" type="curve" smooth="yes"/>
      <point x="531" y="1376" type="line" smooth="yes"/>
      <point x="550" y="1373"/>
      <point x="556" y="1368"/>
      <point x="551" y="1352" type="curve" smooth="yes"/>
      <point x="157" y="48" type="line" smooth="yes"/>
      <point x="152" y="32"/>
      <point x="142" y="27"/>
      <point x="121" y="24" type="curve" smooth="yes"/>
      <point x="-2" y="8" type="line" smooth="yes"/>
      <point x="-6" y="7"/>
      <point x="-8" y="6"/>
      <point x="-9" y="4" type="curve" smooth="yes"/>
      <point x="-9" y="2"/>
      <point x="-8" y="0"/>
      <point x="-4" y="0" type="curve" smooth="yes"/>
      <point x="182" y="0" type="line" smooth="yes"/>
      <point x="190" y="0"/>
      <point x="197" y="4"/>
      <point x="199" y="11" type="curve" smooth="yes"/>
      <point x="611" y="1368" type="line" smooth="yes"/>
      <point x="614" y="1382"/>
      <point x="624" y="1390"/>
      <point x="639" y="1390" type="curve" smooth="yes"/>
      <point x="1332" y="1390" type="line" smooth="yes"/>
      <point x="1337" y="1390"/>
      <point x="1339" y="1387"/>
      <point x="1337" y="1382" type="curve" smooth="yes"/>
      <point x="1337" y="1379"/>
      <point x="1335" y="1376"/>
      <point x="1331" y="1372" type="curve" smooth="yes"/>
      <point x="645" y="753" type="line" smooth="yes"/>
      <point x="639" y="748"/>
      <point x="638" y="746"/>
      <point x="637" y="742" type="curve" smooth="yes"/>
      <point x="635" y="736"/>
      <point x="637" y="733"/>
      <point x="645" y="733" type="curve" smooth="yes"/>
      <point x="751" y="733" type="line" smooth="yes"/>
      <point x="1041" y="733"/>
      <point x="1145" y="577"/>
      <point x="1072" y="330" type="curve" smooth="yes"/>
      <point x="1000" y="92"/>
      <point x="836" y="-10"/>
      <point x="661" y="-10" type="curve" smooth="yes"/>
      <point x="467" y="-10"/>
      <point x="396" y="65"/>
      <point x="429" y="243" type="curve" smooth="yes"/>
      <point x="442" y="311" type="line" smooth="yes"/>
      <point x="443" y="316"/>
      <point x="442" y="318"/>
      <point x="439" y="318" type="curve" smooth="yes"/>
      <point x="436" y="318"/>
      <point x="433" y="315"/>
      <point x="432" y="310" type="curve" smooth="yes"/>
      <point x="335" y="-10" type="line" smooth="yes"/>
      <point x="335" y="-13"/>
      <point x="335" y="-15"/>
      <point x="339" y="-15" type="curve" smooth="yes"/>
      <point x="344" y="-15"/>
      <point x="416" y="95"/>
      <point x="420" y="95" type="curve" smooth="yes"/>
      <point x="426" y="95"/>
      <point x="431" y="-20"/>
      <point x="659" y="-20" type="curve" smooth="yes"/>
      <point x="875" y="-20"/>
      <point x="1065" y="105"/>
      <point x="1131" y="325" type="curve" smooth="yes"/>
      <point x="1206" y="570"/>
      <point x="1056" y="742"/>
      <point x="755" y="742" type="curve" smooth="yes"/>
      <point x="736" y="742"/>
      <point x="706" y="742"/>
      <point x="691" y="742" type="curve"/>
      <point x="698" y="737" type="line"/>
      <point x="1410" y="1381" type="line" smooth="yes"/>
      <point x="1418" y="1388"/>
      <point x="1421" y="1391"/>
      <point x="1422" y="1395" type="curve" smooth="yes"/>
      <point x="1423" y="1398"/>
      <point x="1420" y="1400"/>
    </contour>
  </outline>
</glyph>
<glyph name="quoteleft" format="2">
  <advance width="195"/>
  <unicode hex="2018"/>
  <outline>
    <contour>
      <point x="340" y="1246" type="curve" smooth="yes"/>
      <point x="322" y="1246" type="line" smooth="yes"/>
      <point x="312" y="1246"/>
      <point x="310" y="1253"/>
      <point x="313" y="1263" type="curve" smooth="yes"/>
      <point x="335" y="1346"/>
      <point x="411" y="1454"/>
      <point x="498" y="1490" type="curve" smooth="yes"/>
      <point x="502" y="1491"/>
      <point x="503" y="1496"/>
      <point x="502" y="1497" type="curve" smooth="yes"/>
      <point x="501" y="1499"/>
      <point x="500" y="1498"/>
      <point x="494" y="1496" type="curve" smooth="yes"/>
      <point x="411" y="1461"/>
      <point x="328" y="1365"/>
      <point x="292" y="1230" type="curve" smooth="yes"/>
      <point x="275" y="1168"/>
      <point x="285" y="1133"/>
      <point x="317" y="1133" type="curve" smooth="yes"/>
      <point x="344" y="1133"/>
      <point x="369" y="1156"/>
      <point x="378" y="1191" type="curve" smooth="yes"/>
      <point x="387" y="1223"/>
      <point x="375" y="1246"/>
    </contour>
  </outline>
</glyph>
<glyph name="quotedblleft" format="2">
  <advance width="399"/>
  <unicode hex="201C"/>
  <outline>
    <contour>
      <point x="524" y="1226" type="curve" smooth="yes"/>
      <point x="506" y="1226" type="line" smooth="yes"/>
      <point x="496" y="1226"/>
      <point x="494" y="1233"/>
      <point x="497" y="1243" type="curve" smooth="yes"/>
      <point x="519" y="1326"/>
      <point x="595" y="1434"/>
      <point x="682" y="1470" type="curve" smooth="yes"/>
      <point x="686" y="1471"/>
      <point x="687" y="1476"/>
      <point x="686" y="1477" type="curve" smooth="yes"/>
      <point x="685" y="1479"/>
      <point x="684" y="1478"/>
      <point x="678" y="1476" type="curve" smooth="yes"/>
      <point x="595" y="1441"/>
      <point x="512" y="1345"/>
      <point x="476" y="1210" type="curve" smooth="yes"/>
      <point x="459" y="1148"/>
      <point x="469" y="1113"/>
      <point x="501" y="1113" type="curve" smooth="yes"/>
      <point x="528" y="1113"/>
      <point x="553" y="1136"/>
      <point x="562" y="1171" type="curve" smooth="yes"/>
      <point x="571" y="1203"/>
      <point x="559" y="1226"/>
    </contour>
    <contour>
      <point x="350" y="1226" type="curve" smooth="yes"/>
      <point x="332" y="1226" type="line" smooth="yes"/>
      <point x="322" y="1226"/>
      <point x="320" y="1233"/>
      <point x="323" y="1243" type="curve" smooth="yes"/>
      <point x="345" y="1326"/>
      <point x="421" y="1434"/>
      <point x="508" y="1470" type="curve" smooth="yes"/>
      <point x="512" y="1471"/>
      <point x="513" y="1476"/>
      <point x="512" y="1477" type="curve" smooth="yes"/>
      <point x="511" y="1479"/>
      <point x="510" y="1478"/>
      <point x="504" y="1476" type="curve" smooth="yes"/>
      <point x="421" y="1441"/>
      <point x="338" y="1345"/>
      <point x="302" y="1210" type="curve" smooth="yes"/>
      <point x="285" y="1148"/>
      <point x="295" y="1113"/>
      <point x="327" y="1113" type="curve" smooth="yes"/>
      <point x="354" y="1113"/>
      <point x="379" y="1136"/>
      <point x="388" y="1171" type="curve" smooth="yes"/>
      <point x="397" y="1203"/>
      <point x="385" y="1226"/>
    </contour>
  </outline>
</glyph>
<glyph name="daggerdbl" format="2">
  <advance width="988"/>
  <unicode hex="2021"/>
  <outline>
    <contour>
      <point x="679" y="1041" type="curve" smooth="yes"/>
      <point x="393" y="1041"/>
      <point x="324" y="1065"/>
      <point x="278" y="1065" type="curve" smooth="yes"/>
      <point x="250" y="1065"/>
      <point x="231" y="1056"/>
      <point x="225" y="1035" type="curve" smooth="yes"/>
      <point x="220" y="1016"/>
      <point x="233" y="1007"/>
      <point x="262" y="1007" type="curve" smooth="yes"/>
      <point x="307" y="1007"/>
      <point x="392" y="1034"/>
      <point x="678" y="1034" type="curve" smooth="yes"/>
      <point x="978" y="1034"/>
      <point x="1040" y="1007"/>
      <point x="1088" y="1007" type="curve" smooth="yes"/>
      <point x="1111" y="1007"/>
      <point x="1126" y="1016"/>
      <point x="1131" y="1035" type="curve" smooth="yes"/>
      <point x="1137" y="1056"/>
      <point x="1126" y="1065"/>
      <point x="1104" y="1065" type="curve" smooth="yes"/>
      <point x="1055" y="1065"/>
      <point x="979" y="1041"/>
    </contour>
    <contour>
      <point x="612" y="667" type="curve" smooth="yes"/>
      <point x="631" y="735"/>
      <point x="618" y="799"/>
      <point x="681" y="1036" type="curve" smooth="yes"/>
      <point x="776" y="1392"/>
      <point x="814" y="1441"/>
      <point x="828" y="1494" type="curve" smooth="yes"/>
      <point x="834" y="1516"/>
      <point x="829" y="1529"/>
      <point x="808" y="1529" type="curve" smooth="yes"/>
      <point x="790" y="1529"/>
      <point x="778" y="1517"/>
      <point x="772" y="1494" type="curve" smooth="yes"/>
      <point x="758" y="1442"/>
      <point x="769" y="1392"/>
      <point x="674" y="1036" type="curve" smooth="yes"/>
      <point x="613" y="805"/>
      <point x="570" y="743"/>
      <point x="552" y="676" type="curve" smooth="yes"/>
      <point x="534" y="610"/>
      <point x="548" y="547"/>
      <point x="486" y="317" type="curve" smooth="yes"/>
      <point x="392" y="-39"/>
      <point x="354" y="-88"/>
      <point x="339" y="-141" type="curve" smooth="yes"/>
      <point x="333" y="-163"/>
      <point x="338" y="-176"/>
      <point x="359" y="-176" type="curve" smooth="yes"/>
      <point x="377" y="-176"/>
      <point x="389" y="-164"/>
      <point x="395" y="-141" type="curve" smooth="yes"/>
      <point x="409" y="-89"/>
      <point x="399" y="-39"/>
      <point x="493" y="317" type="curve" smooth="yes"/>
      <point x="554" y="542"/>
      <point x="595" y="602"/>
    </contour>
    <contour>
      <point x="488" y="312" type="curve" smooth="yes"/>
      <point x="774" y="312"/>
      <point x="843" y="288"/>
      <point x="889" y="288" type="curve" smooth="yes"/>
      <point x="917" y="288"/>
      <point x="937" y="297"/>
      <point x="942" y="318" type="curve" smooth="yes"/>
      <point x="948" y="337"/>
      <point x="934" y="346"/>
      <point x="905" y="346" type="curve" smooth="yes"/>
      <point x="860" y="346"/>
      <point x="776" y="319"/>
      <point x="490" y="319" type="curve" smooth="yes"/>
      <point x="190" y="319"/>
      <point x="127" y="346"/>
      <point x="79" y="346" type="curve" smooth="yes"/>
      <point x="56" y="346"/>
      <point x="42" y="337"/>
      <point x="36" y="318" type="curve" smooth="yes"/>
      <point x="31" y="297"/>
      <point x="41" y="288"/>
      <point x="63" y="288" type="curve" smooth="yes"/>
      <point x="112" y="288"/>
      <point x="188" y="312"/>
    </contour>
  </outline>
</glyph>
<glyph name="perthousand" format="2">
  <advance width="1588"/>
  <unicode hex="2030"/>
  <outline>
    <contour>
      <point x="585" y="1421" type="curve" smooth="yes"/>
      <point x="439" y="1421"/>
      <point x="324" y="1295"/>
      <point x="272" y="1101" type="curve" smooth="yes"/>
      <point x="214" y="885"/>
      <point x="274" y="770"/>
      <point x="405" y="770" type="curve" smooth="yes"/>
      <point x="551" y="770"/>
      <point x="665" y="893"/>
      <point x="720" y="1101" type="curve" smooth="yes"/>
      <point x="774" y="1301"/>
      <point x="716" y="1421"/>
    </contour>
    <contour>
      <point x="662" y="1094" type="curve" smooth="yes"/>
      <point x="602" y="870"/>
      <point x="509" y="780"/>
      <point x="407" y="780" type="curve" smooth="yes"/>
      <point x="306" y="780"/>
      <point x="264" y="863"/>
      <point x="330" y="1108" type="curve" smooth="yes"/>
      <point x="385" y="1311"/>
      <point x="476" y="1411"/>
      <point x="582" y="1411" type="curve" smooth="yes"/>
      <point x="683" y="1411"/>
      <point x="725" y="1326"/>
    </contour>
    <contour>
      <point x="842" y="630" type="curve" smooth="yes"/>
      <point x="696" y="630"/>
      <point x="581" y="504"/>
      <point x="529" y="310" type="curve" smooth="yes"/>
      <point x="471" y="94"/>
      <point x="531" y="-21"/>
      <point x="662" y="-21" type="curve" smooth="yes"/>
      <point x="808" y="-21"/>
      <point x="922" y="102"/>
      <point x="977" y="310" type="curve" smooth="yes"/>
      <point x="1031" y="510"/>
      <point x="973" y="630"/>
    </contour>
    <contour>
      <point x="919" y="303" type="curve" smooth="yes"/>
      <point x="859" y="79"/>
      <point x="766" y="-11"/>
      <point x="664" y="-11" type="curve" smooth="yes"/>
      <point x="563" y="-11"/>
      <point x="522" y="72"/>
      <point x="587" y="317" type="curve" smooth="yes"/>
      <point x="642" y="520"/>
      <point x="733" y="620"/>
      <point x="839" y="620" type="curve" smooth="yes"/>
      <point x="940" y="620"/>
      <point x="982" y="535"/>
    </contour>
    <contour>
      <point x="1390" y="630" type="curve" smooth="yes"/>
      <point x="1244" y="630"/>
      <point x="1129" y="504"/>
      <point x="1077" y="310" type="curve" smooth="yes"/>
      <point x="1019" y="94"/>
      <point x="1079" y="-21"/>
      <point x="1210" y="-21" type="curve" smooth="yes"/>
      <point x="1356" y="-21"/>
      <point x="1470" y="102"/>
      <point x="1525" y="310" type="curve" smooth="yes"/>
      <point x="1579" y="510"/>
      <point x="1521" y="630"/>
    </contour>
    <contour>
      <point x="1467" y="303" type="curve" smooth="yes"/>
      <point x="1407" y="79"/>
      <point x="1314" y="-11"/>
      <point x="1212" y="-11" type="curve" smooth="yes"/>
      <point x="1111" y="-11"/>
      <point x="1070" y="72"/>
      <point x="1135" y="317" type="curve" smooth="yes"/>
      <point x="1190" y="520"/>
      <point x="1281" y="620"/>
      <point x="1387" y="620" type="curve" smooth="yes"/>
      <point x="1488" y="620"/>
      <point x="1530" y="535"/>
    </contour>
    <component base="fraction" xOffset="20"/>
  </outline>
</glyph>
<glyph name="franc" format="2">
  <advance width="975"/>
  <unicode hex="20A3"/>
  <outline>
    <contour>
      <point x="364" y="1394" type="curve" smooth="yes"/>
      <point x="364" y="1390"/>
      <point x="365" y="1388"/>
      <point x="377" y="1386" type="curve" smooth="yes"/>
      <point x="501" y="1370" type="line" smooth="yes"/>
      <point x="515" y="1368"/>
      <point x="528" y="1358"/>
      <point x="524" y="1336" type="curve" smooth="yes"/>
      <point x="431" y="970"/>
      <point x="280" y="436"/>
      <point x="172" y="72" type="curve" smooth="yes"/>
      <point x="162" y="42"/>
      <point x="150" y="28"/>
      <point x="124" y="26" type="curve" smooth="yes"/>
      <point x="9" y="14" type="line" smooth="yes"/>
      <point x="1" y="14"/>
      <point x="-3" y="10"/>
      <point x="-3" y="6" type="curve" smooth="yes"/>
      <point x="-3" y="2"/>
      <point x="1" y="0"/>
      <point x="7" y="0" type="curve" smooth="yes"/>
      <point x="425" y="0" type="line" smooth="yes"/>
      <point x="429" y="0"/>
      <point x="431" y="2"/>
      <point x="431" y="6" type="curve" smooth="yes"/>
      <point x="431" y="10"/>
      <point x="427" y="12"/>
      <point x="423" y="12" type="curve" smooth="yes"/>
      <point x="260" y="24" type="line" smooth="yes"/>
      <point x="228" y="26"/>
      <point x="225" y="50"/>
      <point x="232" y="78" type="curve" smooth="yes"/>
      <point x="322" y="428"/>
      <point x="466" y="940"/>
      <point x="598" y="1392" type="curve"/>
      <point x="880" y="1392" type="line" smooth="yes"/>
      <point x="998" y="1392"/>
      <point x="1046" y="1360"/>
      <point x="1123" y="1148" type="curve" smooth="yes"/>
      <point x="1125" y="1142"/>
      <point x="1127" y="1140"/>
      <point x="1129" y="1140" type="curve" smooth="yes"/>
      <point x="1133" y="1140"/>
      <point x="1131" y="1146"/>
      <point x="1131" y="1156" type="curve" smooth="yes"/>
      <point x="1120" y="1412" type="line" smooth="yes"/>
      <point x="1119" y="1426"/>
      <point x="1113" y="1430"/>
      <point x="1105" y="1430" type="curve" smooth="yes"/>
      <point x="1084" y="1430"/>
      <point x="1053" y="1400"/>
      <point x="988" y="1400" type="curve" smooth="yes"/>
      <point x="372" y="1400" type="line" smooth="yes"/>
      <point x="368" y="1400"/>
      <point x="364" y="1398"/>
    </contour>
    <contour>
      <point x="412" y="813" type="line"/>
      <point x="409" y="803" type="line"/>
      <point x="922" y="803" type="line" smooth="yes"/>
      <point x="925" y="803"/>
      <point x="927" y="805"/>
      <point x="928" y="808" type="curve" smooth="yes"/>
      <point x="929" y="811"/>
      <point x="928" y="813"/>
      <point x="925" y="813" type="curve" smooth="yes"/>
    </contour>
    <contour>
      <point x="133" y="508" type="curve" smooth="yes"/>
      <point x="132" y="505"/>
      <point x="133" y="503"/>
      <point x="136" y="503" type="curve" smooth="yes"/>
      <point x="836" y="503" type="line" smooth="yes"/>
      <point x="839" y="503"/>
      <point x="842" y="505"/>
      <point x="843" y="508" type="curve" smooth="yes"/>
      <point x="844" y="511"/>
      <point x="842" y="513"/>
      <point x="839" y="513" type="curve" smooth="yes"/>
      <point x="139" y="513" type="line" smooth="yes"/>
      <point x="136" y="513"/>
      <point x="134" y="511"/>
    </contour>
  </outline>
</glyph>
<glyph name="won" format="2">
  <advance width="1582"/>
  <unicode hex="20A9"/>
  <outline>
    <contour>
      <point x="1642" y="1396" type="curve" smooth="yes"/>
      <point x="1642" y="1394"/>
      <point x="1643" y="1393"/>
      <point x="1647" y="1392" type="curve" smooth="yes"/>
      <point x="1712" y="1378" type="line" smooth="yes"/>
      <point x="1780" y="1364"/>
      <point x="1778" y="1344"/>
      <point x="1751" y="1294" type="curve" smooth="yes"/>
      <point x="1094" y="65" type="line"/>
      <point x="1097" y="65" type="line"/>
      <point x="1193" y="1377" type="line" smooth="yes"/>
      <point x="1193" y="1385"/>
      <point x="1193" y="1394"/>
      <point x="1184" y="1394" type="curve" smooth="yes"/>
      <point x="1156" y="1394" type="line" smooth="yes"/>
      <point x="1148" y="1394"/>
      <point x="1137" y="1383"/>
      <point x="1130" y="1370" type="curve" smooth="yes"/>
      <point x="406" y="63" type="line"/>
      <point x="410" y="63" type="line"/>
      <point x="492" y="1344" type="line" smooth="yes"/>
      <point x="494" y="1362"/>
      <point x="502" y="1376"/>
      <point x="522" y="1378" type="curve" smooth="yes"/>
      <point x="641" y="1392" type="line" smooth="yes"/>
      <point x="643" y="1392"/>
      <point x="648" y="1394"/>
      <point x="648" y="1396" type="curve" smooth="yes"/>
      <point x="649" y="1398"/>
      <point x="647" y="1400"/>
      <point x="645" y="1400" type="curve" smooth="yes"/>
      <point x="343" y="1400" type="line" smooth="yes"/>
      <point x="341" y="1400"/>
      <point x="339" y="1398"/>
      <point x="338" y="1396" type="curve" smooth="yes"/>
      <point x="338" y="1394"/>
      <point x="339" y="1393"/>
      <point x="343" y="1392" type="curve" smooth="yes"/>
      <point x="412" y="1378" type="line" smooth="yes"/>
      <point x="425" y="1375"/>
      <point x="429" y="1368"/>
      <point x="427" y="1348" type="curve" smooth="yes"/>
      <point x="349" y="14" type="line" smooth="yes"/>
      <point x="348" y="4"/>
      <point x="352" y="0"/>
      <point x="360" y="0" type="curve" smooth="yes"/>
      <point x="370" y="0" type="line" smooth="yes"/>
      <point x="379" y="0"/>
      <point x="386" y="5"/>
      <point x="391" y="14" type="curve" smooth="yes"/>
      <point x="1132" y="1356" type="line"/>
      <point x="1130" y="1356" type="line"/>
      <point x="1036" y="13" type="line" smooth="yes"/>
      <point x="1036" y="5"/>
      <point x="1041" y="0"/>
      <point x="1050" y="0" type="curve" smooth="yes"/>
      <point x="1062" y="0" type="line" smooth="yes"/>
      <point x="1069" y="0"/>
      <point x="1075" y="4"/>
      <point x="1079" y="13" type="curve" smooth="yes"/>
      <point x="1763" y="1294" type="line" smooth="yes"/>
      <point x="1791" y="1346"/>
      <point x="1815" y="1365"/>
      <point x="1845" y="1374" type="curve" smooth="yes"/>
      <point x="1905" y="1392" type="line" smooth="yes"/>
      <point x="1907" y="1393"/>
      <point x="1910" y="1394"/>
      <point x="1910" y="1396" type="curve" smooth="yes"/>
      <point x="1911" y="1398"/>
      <point x="1909" y="1400"/>
      <point x="1907" y="1400" type="curve" smooth="yes"/>
      <point x="1647" y="1400" type="line" smooth="yes"/>
      <point x="1645" y="1400"/>
      <point x="1643" y="1398"/>
    </contour>
    <contour>
      <point x="453" y="911" type="line"/>
      <point x="218" y="911" type="line" smooth="yes"/>
      <point x="215" y="911"/>
      <point x="213" y="909"/>
      <point x="212" y="906" type="curve" smooth="yes"/>
      <point x="211" y="903"/>
      <point x="211" y="901"/>
      <point x="214" y="901" type="curve" smooth="yes"/>
      <point x="454" y="901" type="line"/>
    </contour>
    <contour>
      <point x="882" y="911" type="line"/>
      <point x="453" y="911" type="line"/>
      <point x="454" y="901" type="line"/>
      <point x="875" y="901" type="line"/>
    </contour>
    <contour>
      <point x="1747" y="906" type="curve" smooth="yes"/>
      <point x="1748" y="909"/>
      <point x="1746" y="911"/>
      <point x="1743" y="911" type="curve" smooth="yes"/>
      <point x="1111" y="911" type="line"/>
      <point x="1112" y="901" type="line"/>
      <point x="1739" y="901" type="line" smooth="yes"/>
      <point x="1742" y="901"/>
      <point x="1746" y="903"/>
    </contour>
    <contour>
      <point x="413" y="502" type="line"/>
      <point x="95" y="502" type="line" smooth="yes"/>
      <point x="92" y="502"/>
      <point x="88" y="500"/>
      <point x="87" y="497" type="curve" smooth="yes"/>
      <point x="86" y="494"/>
      <point x="88" y="492"/>
      <point x="91" y="492" type="curve" smooth="yes"/>
      <point x="412" y="492" type="line"/>
    </contour>
    <contour>
      <point x="1622" y="497" type="curve" smooth="yes"/>
      <point x="1623" y="500"/>
      <point x="1623" y="502"/>
      <point x="1620" y="502" type="curve" smooth="yes"/>
      <point x="1342" y="502" type="line"/>
      <point x="1335" y="492" type="line"/>
      <point x="1616" y="492" type="line" smooth="yes"/>
      <point x="1619" y="492"/>
      <point x="1621" y="494"/>
    </contour>
    <contour>
      <point x="1098" y="502" type="line"/>
      <point x="658" y="502" type="line"/>
      <point x="651" y="492" type="line"/>
      <point x="1097" y="492" type="line"/>
    </contour>
  </outline>
</glyph>
<glyph name="dong" format="2">
  <advance width="794"/>
  <unicode hex="20AB"/>
  <outline>
    <contour>
      <point x="-24" y="-175" type="curve" smooth="yes"/>
      <point x="-24" y="-178"/>
      <point x="-22" y="-180"/>
      <point x="-19" y="-180" type="curve" smooth="yes"/>
      <point x="666" y="-180" type="line" smooth="yes"/>
      <point x="669" y="-180"/>
      <point x="671" y="-178"/>
      <point x="671" y="-175" type="curve" smooth="yes"/>
      <point x="671" y="-172"/>
      <point x="669" y="-170"/>
      <point x="666" y="-170" type="curve" smooth="yes"/>
      <point x="-19" y="-170" type="line" smooth="yes"/>
      <point x="-22" y="-170"/>
      <point x="-24" y="-172"/>
    </contour>
    <component base="dcroat"/>
  </outline>
</glyph>
<glyph name="manat" format="2">
  <advance width="1252"/>
  <unicode hex="20BC"/>
  <outline>
    <contour>
      <point x="949" y="1363" type="curve" smooth="yes"/>
      <point x="652" y="1363"/>
      <point x="360" y="1021"/>
      <point x="159" y="358" type="curve" smooth="yes"/>
      <point x="55" y="16" type="line" smooth="yes"/>
      <point x="52" y="6"/>
      <point x="55" y="0"/>
      <point x="63" y="0" type="curve" smooth="yes"/>
      <point x="92" y="0" type="line" smooth="yes"/>
      <point x="100" y="0"/>
      <point x="105" y="5"/>
      <point x="109" y="16" type="curve" smooth="yes"/>
      <point x="215" y="365" type="line" smooth="yes"/>
      <point x="427" y="1067"/>
      <point x="676" y="1353"/>
      <point x="946" y="1353" type="curve" smooth="yes"/>
      <point x="1216" y="1353"/>
      <point x="1291" y="1066"/>
      <point x="1079" y="365" type="curve" smooth="yes"/>
      <point x="973" y="16" type="line" smooth="yes"/>
      <point x="969" y="4"/>
      <point x="970" y="0"/>
      <point x="980" y="0" type="curve" smooth="yes"/>
      <point x="1009" y="0" type="line" smooth="yes"/>
      <point x="1015" y="0"/>
      <point x="1024" y="6"/>
      <point x="1027" y="16" type="curve" smooth="yes"/>
      <point x="1131" y="358" type="line" smooth="yes"/>
      <point x="1332" y="1021"/>
      <point x="1238" y="1363"/>
    </contour>
    <contour>
      <point x="586" y="165" type="curve" smooth="yes"/>
      <point x="589" y="165"/>
      <point x="592" y="167"/>
      <point x="593" y="170" type="curve" smooth="yes"/>
      <point x="1001" y="1520" type="line" smooth="yes"/>
      <point x="1002" y="1523"/>
      <point x="1001" y="1525"/>
      <point x="998" y="1525" type="curve" smooth="yes"/>
      <point x="995" y="1525"/>
      <point x="992" y="1523"/>
      <point x="991" y="1520" type="curve" smooth="yes"/>
      <point x="583" y="170" type="line" smooth="yes"/>
      <point x="582" y="167"/>
      <point x="583" y="165"/>
    </contour>
  </outline>
</glyph>
<glyph name="acute.cap" format="2">
  <advance width="344"/>
  <anchor x="129" y="991" name="center"/>
  <outline>
    <contour>
      <point x="275" y="1138" type="curve" smooth="yes"/>
      <point x="96" y="988" type="line" smooth="yes"/>
      <point x="92" y="985"/>
      <point x="89" y="981"/>
      <point x="90" y="978" type="curve" smooth="yes"/>
      <point x="92" y="975"/>
      <point x="97" y="977"/>
      <point x="101" y="979" type="curve" smooth="yes"/>
      <point x="311" y="1090" type="line" smooth="yes"/>
      <point x="350" y="1111"/>
      <point x="380" y="1128"/>
      <point x="391" y="1153" type="curve" smooth="yes"/>
      <point x="398" y="1170"/>
      <point x="394" y="1188"/>
      <point x="373" y="1192" type="curve" smooth="yes"/>
      <point x="348" y="1197"/>
      <point x="319" y="1174"/>
    </contour>
  </outline>
</glyph>
<glyph name="belowbrevecmb" format="2">
  <advance width="466"/>
  <outline>
    <contour>
      <point x="100" y="-275" type="curve"/>
      <point x="18" y="-275"/>
      <point x="-32" y="-235"/>
      <point x="-22" y="-123" type="curve" smooth="yes"/>
      <point x="-21" y="-112"/>
      <point x="-25" y="-110"/>
      <point x="-29" y="-110" type="curve" smooth="yes"/>
      <point x="-33" y="-110"/>
      <point x="-38" y="-114"/>
      <point x="-39" y="-125" type="curve" smooth="yes"/>
      <point x="-59" y="-248"/>
      <point x="-29" y="-334"/>
      <point x="85" y="-334" type="curve" smooth="yes"/>
      <point x="199" y="-334"/>
      <point x="273" y="-248"/>
      <point x="315" y="-125" type="curve" smooth="yes"/>
      <point x="318" y="-114"/>
      <point x="315" y="-110"/>
      <point x="311" y="-110" type="curve" smooth="yes"/>
      <point x="307" y="-110"/>
      <point x="303" y="-112"/>
      <point x="298" y="-123" type="curve" smooth="yes"/>
      <point x="252" y="-235"/>
      <point x="182" y="-275"/>
    </contour>
  </outline>
</glyph>
<glyph name="breveacute.cap" format="2">
  <advance width="447"/>
  <anchor x="237" y="954" name="center"/>
  <outline>
    <contour>
      <point x="239" y="1039" type="curve" smooth="yes"/>
      <point x="157" y="1039"/>
      <point x="104" y="1074"/>
      <point x="112" y="1174" type="curve" smooth="yes"/>
      <point x="113" y="1185"/>
      <point x="109" y="1187"/>
      <point x="105" y="1187" type="curve" smooth="yes"/>
      <point x="101" y="1187"/>
      <point x="96" y="1183"/>
      <point x="95" y="1172" type="curve" smooth="yes"/>
      <point x="76" y="1059"/>
      <point x="110" y="980"/>
      <point x="224" y="980" type="curve" smooth="yes"/>
      <point x="338" y="980"/>
      <point x="410" y="1059"/>
      <point x="449" y="1172" type="curve" smooth="yes"/>
      <point x="452" y="1183"/>
      <point x="449" y="1187"/>
      <point x="445" y="1187" type="curve" smooth="yes"/>
      <point x="441" y="1187"/>
      <point x="437" y="1185"/>
      <point x="432" y="1174" type="curve" smooth="yes"/>
      <point x="390" y="1074"/>
      <point x="321" y="1039"/>
    </contour>
    <contour>
      <point x="378" y="1297" type="curve" smooth="yes"/>
      <point x="198" y="1147" type="line" smooth="yes"/>
      <point x="195" y="1144"/>
      <point x="192" y="1140"/>
      <point x="193" y="1137" type="curve" smooth="yes"/>
      <point x="194" y="1134"/>
      <point x="200" y="1136"/>
      <point x="203" y="1138" type="curve" smooth="yes"/>
      <point x="414" y="1249" type="line" smooth="yes"/>
      <point x="453" y="1270"/>
      <point x="482" y="1287"/>
      <point x="494" y="1312" type="curve" smooth="yes"/>
      <point x="501" y="1329"/>
      <point x="496" y="1347"/>
      <point x="475" y="1351" type="curve" smooth="yes"/>
      <point x="451" y="1356"/>
      <point x="422" y="1333"/>
    </contour>
  </outline>
</glyph>
<glyph name="breveacute" format="2">
  <advance width="451"/>
  <anchor x="234" y="954" name="center"/>
  <outline>
    <contour>
      <point x="384" y="1286" type="curve" smooth="yes"/>
      <point x="227" y="1114" type="line" smooth="yes"/>
      <point x="223" y="1110"/>
      <point x="221" y="1106"/>
      <point x="223" y="1104" type="curve" smooth="yes"/>
      <point x="225" y="1101"/>
      <point x="230" y="1103"/>
      <point x="233" y="1106" type="curve" smooth="yes"/>
      <point x="429" y="1247" type="line" smooth="yes"/>
      <point x="466" y="1274"/>
      <point x="493" y="1295"/>
      <point x="500" y="1320" type="curve" smooth="yes"/>
      <point x="504" y="1338"/>
      <point x="496" y="1354"/>
      <point x="474" y="1354" type="curve" smooth="yes"/>
      <point x="448" y="1354"/>
      <point x="423" y="1328"/>
    </contour>
    <contour>
      <point x="235" y="989" type="curve" smooth="yes"/>
      <point x="153" y="989"/>
      <point x="103" y="1029"/>
      <point x="113" y="1141" type="curve" smooth="yes"/>
      <point x="114" y="1152"/>
      <point x="110" y="1154"/>
      <point x="106" y="1154" type="curve" smooth="yes"/>
      <point x="102" y="1154"/>
      <point x="97" y="1150"/>
      <point x="96" y="1139" type="curve" smooth="yes"/>
      <point x="76" y="1016"/>
      <point x="106" y="930"/>
      <point x="220" y="930" type="curve" smooth="yes"/>
      <point x="334" y="930"/>
      <point x="408" y="1016"/>
      <point x="450" y="1139" type="curve" smooth="yes"/>
      <point x="453" y="1150"/>
      <point x="450" y="1154"/>
      <point x="446" y="1154" type="curve" smooth="yes"/>
      <point x="442" y="1154"/>
      <point x="438" y="1152"/>
      <point x="433" y="1141" type="curve" smooth="yes"/>
      <point x="387" y="1029"/>
      <point x="317" y="989"/>
    </contour>
  </outline>
</glyph>
<glyph name="brevecmb" format="2">
  <advance width="401"/>
  <anchor x="235" y="954" name="center"/>
  <outline>
    <contour>
      <point x="235" y="999" type="curve" smooth="yes"/>
      <point x="153" y="999"/>
      <point x="103" y="1039"/>
      <point x="113" y="1151" type="curve" smooth="yes"/>
      <point x="114" y="1162"/>
      <point x="110" y="1164"/>
      <point x="106" y="1164" type="curve" smooth="yes"/>
      <point x="102" y="1164"/>
      <point x="97" y="1160"/>
      <point x="96" y="1149" type="curve" smooth="yes"/>
      <point x="76" y="1026"/>
      <point x="106" y="940"/>
      <point x="220" y="940" type="curve" smooth="yes"/>
      <point x="334" y="940"/>
      <point x="408" y="1026"/>
      <point x="450" y="1149" type="curve" smooth="yes"/>
      <point x="453" y="1160"/>
      <point x="450" y="1164"/>
      <point x="446" y="1164" type="curve" smooth="yes"/>
      <point x="442" y="1164"/>
      <point x="438" y="1162"/>
      <point x="433" y="1151" type="curve" smooth="yes"/>
      <point x="387" y="1039"/>
      <point x="317" y="999"/>
    </contour>
  </outline>
</glyph>
<glyph name="brevegrave.cap" format="2">
  <advance width="400"/>
  <anchor x="237" y="954" name="center"/>
  <outline>
    <contour>
      <point x="239" y="1039" type="curve" smooth="yes"/>
      <point x="157" y="1039"/>
      <point x="104" y="1074"/>
      <point x="112" y="1174" type="curve" smooth="yes"/>
      <point x="113" y="1185"/>
      <point x="109" y="1187"/>
      <point x="105" y="1187" type="curve" smooth="yes"/>
      <point x="101" y="1187"/>
      <point x="96" y="1183"/>
      <point x="95" y="1172" type="curve" smooth="yes"/>
      <point x="76" y="1059"/>
      <point x="110" y="980"/>
      <point x="224" y="980" type="curve" smooth="yes"/>
      <point x="338" y="980"/>
      <point x="410" y="1059"/>
      <point x="449" y="1172" type="curve" smooth="yes"/>
      <point x="452" y="1183"/>
      <point x="449" y="1187"/>
      <point x="445" y="1187" type="curve" smooth="yes"/>
      <point x="441" y="1187"/>
      <point x="437" y="1185"/>
      <point x="432" y="1174" type="curve" smooth="yes"/>
      <point x="390" y="1074"/>
      <point x="321" y="1039"/>
    </contour>
    <contour>
      <point x="239" y="1297" type="line" smooth="yes"/>
      <point x="213" y="1333"/>
      <point x="196" y="1356"/>
      <point x="168" y="1351" type="curve" smooth="yes"/>
      <point x="145" y="1347"/>
      <point x="132" y="1329"/>
      <point x="131" y="1312" type="curve" smooth="yes"/>
      <point x="129" y="1287"/>
      <point x="150" y="1270"/>
      <point x="179" y="1249" type="curve" smooth="yes"/>
      <point x="334" y="1138" type="line" smooth="yes"/>
      <point x="337" y="1136"/>
      <point x="341" y="1134"/>
      <point x="344" y="1137" type="curve" smooth="yes"/>
      <point x="347" y="1140"/>
      <point x="346" y="1144"/>
      <point x="343" y="1147" type="curve" smooth="yes"/>
    </contour>
  </outline>
</glyph>
<glyph name="brevehook.cap" format="2">
  <advance width="400"/>
  <anchor x="237" y="954" name="center"/>
  <outline>
    <contour>
      <point x="239" y="1039" type="curve" smooth="yes"/>
      <point x="157" y="1039"/>
      <point x="103" y="1074"/>
      <point x="112" y="1174" type="curve" smooth="yes"/>
      <point x="113" y="1185"/>
      <point x="109" y="1187"/>
      <point x="105" y="1187" type="curve" smooth="yes"/>
      <point x="101" y="1187"/>
      <point x="96" y="1183"/>
      <point x="95" y="1172" type="curve" smooth="yes"/>
      <point x="76" y="1059"/>
      <point x="110" y="980"/>
      <point x="224" y="980" type="curve" smooth="yes"/>
      <point x="338" y="980"/>
      <point x="410" y="1059"/>
      <point x="449" y="1172" type="curve" smooth="yes"/>
      <point x="452" y="1183"/>
      <point x="449" y="1187"/>
      <point x="445" y="1187" type="curve" smooth="yes"/>
      <point x="441" y="1187"/>
      <point x="437" y="1185"/>
      <point x="432" y="1174" type="curve" smooth="yes"/>
      <point x="391" y="1074"/>
      <point x="321" y="1039"/>
    </contour>
    <contour>
      <point x="231" y="1147" type="curve" smooth="yes"/>
      <point x="232" y="1150"/>
      <point x="234" y="1151"/>
      <point x="240" y="1152" type="curve" smooth="yes"/>
      <point x="329" y="1168"/>
      <point x="374" y="1216"/>
      <point x="389" y="1276" type="curve" smooth="yes"/>
      <point x="405" y="1343"/>
      <point x="383" y="1376"/>
      <point x="325" y="1376" type="curve" smooth="yes"/>
      <point x="266" y="1376"/>
      <point x="233" y="1344"/>
      <point x="222" y="1300" type="curve" smooth="yes"/>
      <point x="216" y="1277" type="line" smooth="yes"/>
      <point x="209" y="1250"/>
      <point x="190" y="1234"/>
      <point x="169" y="1234" type="curve" smooth="yes"/>
      <point x="149" y="1234"/>
      <point x="142" y="1254"/>
      <point x="148" y="1277" type="curve" smooth="yes"/>
      <point x="163" y="1337"/>
      <point x="245" y="1388"/>
      <point x="329" y="1388" type="curve" smooth="yes"/>
      <point x="412" y="1388"/>
      <point x="462" y="1346"/>
      <point x="445" y="1276" type="curve" smooth="yes"/>
      <point x="427" y="1204"/>
      <point x="355" y="1158"/>
      <point x="237" y="1143" type="curve" smooth="yes"/>
      <point x="232" y="1142"/>
      <point x="231" y="1144"/>
    </contour>
  </outline>
</glyph>
<glyph name="brevehook" format="2">
  <advance width="404"/>
  <anchor x="234" y="954" name="center"/>
  <outline>
    <contour>
      <point x="231" y="1114" type="curve" smooth="yes"/>
      <point x="232" y="1117"/>
      <point x="234" y="1118"/>
      <point x="240" y="1119" type="curve" smooth="yes"/>
      <point x="329" y="1135"/>
      <point x="376" y="1193"/>
      <point x="393" y="1263" type="curve" smooth="yes"/>
      <point x="413" y="1343"/>
      <point x="392" y="1383"/>
      <point x="334" y="1383" type="curve" smooth="yes"/>
      <point x="275" y="1383"/>
      <point x="240" y="1342"/>
      <point x="226" y="1287" type="curve" smooth="yes"/>
      <point x="221" y="1264" type="line" smooth="yes"/>
      <point x="214" y="1237"/>
      <point x="195" y="1221"/>
      <point x="174" y="1221" type="curve" smooth="yes"/>
      <point x="154" y="1221"/>
      <point x="147" y="1241"/>
      <point x="153" y="1264" type="curve" smooth="yes"/>
      <point x="170" y="1335"/>
      <point x="254" y="1395"/>
      <point x="338" y="1395" type="curve" smooth="yes"/>
      <point x="421" y="1395"/>
      <point x="470" y="1346"/>
      <point x="449" y="1263" type="curve" smooth="yes"/>
      <point x="429" y="1180"/>
      <point x="355" y="1125"/>
      <point x="237" y="1110" type="curve" smooth="yes"/>
      <point x="232" y="1109"/>
      <point x="231" y="1111"/>
    </contour>
    <contour>
      <point x="235" y="989" type="curve" smooth="yes"/>
      <point x="153" y="989"/>
      <point x="103" y="1029"/>
      <point x="113" y="1141" type="curve" smooth="yes"/>
      <point x="114" y="1152"/>
      <point x="110" y="1154"/>
      <point x="106" y="1154" type="curve" smooth="yes"/>
      <point x="102" y="1154"/>
      <point x="97" y="1150"/>
      <point x="96" y="1139" type="curve" smooth="yes"/>
      <point x="76" y="1016"/>
      <point x="106" y="930"/>
      <point x="220" y="930" type="curve" smooth="yes"/>
      <point x="334" y="930"/>
      <point x="408" y="1016"/>
      <point x="450" y="1139" type="curve" smooth="yes"/>
      <point x="453" y="1150"/>
      <point x="450" y="1154"/>
      <point x="446" y="1154" type="curve" smooth="yes"/>
      <point x="442" y="1154"/>
      <point x="438" y="1152"/>
      <point x="433" y="1141" type="curve" smooth="yes"/>
      <point x="387" y="1029"/>
      <point x="317" y="989"/>
    </contour>
  </outline>
</glyph>
<glyph name="cedillacmb" format="2">
  <advance width="402"/>
  <outline>
    <contour>
      <point x="167" y="0" type="line"/>
      <point x="78" y="-124" type="line" smooth="yes"/>
      <point x="72" y="-132"/>
      <point x="73" y="-137"/>
      <point x="81" y="-137" type="curve" smooth="yes"/>
      <point x="115" y="-137" type="line" smooth="yes"/>
      <point x="181" y="-137"/>
      <point x="200" y="-189"/>
      <point x="183" y="-257" type="curve" smooth="yes"/>
      <point x="164" y="-333"/>
      <point x="122" y="-372"/>
      <point x="66" y="-372" type="curve" smooth="yes"/>
      <point x="10" y="-372"/>
      <point x="-36" y="-347"/>
      <point x="-33" y="-287" type="curve" smooth="yes"/>
      <point x="-33" y="-281"/>
      <point x="-34" y="-278"/>
      <point x="-38" y="-279" type="curve" smooth="yes"/>
      <point x="-43" y="-280"/>
      <point x="-44" y="-283"/>
      <point x="-45" y="-289" type="curve" smooth="yes"/>
      <point x="-48" y="-344"/>
      <point x="-5" y="-384"/>
      <point x="68" y="-384" type="curve" smooth="yes"/>
      <point x="154" y="-384"/>
      <point x="229" y="-329"/>
      <point x="249" y="-251" type="curve" smooth="yes"/>
      <point x="266" y="-183"/>
      <point x="216" y="-125"/>
      <point x="118" y="-125" type="curve" smooth="yes"/>
      <point x="105" y="-125"/>
      <point x="100" y="-125"/>
      <point x="86" y="-125" type="curve"/>
      <point x="88" y="-131" type="line"/>
      <point x="181" y="0" type="line"/>
    </contour>
  </outline>
</glyph>
<glyph name="circumflex.cap" format="2">
  <advance width="439"/>
  <anchor x="312" y="1062" name="center"/>
  <outline>
    <contour>
      <point x="324" y="1119" type="line"/>
      <point x="104" y="984" type="line" smooth="yes"/>
      <point x="98" y="980"/>
      <point x="93" y="977"/>
      <point x="91" y="980" type="curve" smooth="yes"/>
      <point x="89" y="982"/>
      <point x="90" y="986"/>
      <point x="97" y="992" type="curve" smooth="yes"/>
      <point x="299" y="1170" type="line" smooth="yes"/>
      <point x="317" y="1186"/>
      <point x="328" y="1195"/>
      <point x="342" y="1195" type="curve" smooth="yes"/>
      <point x="356" y="1195"/>
      <point x="363" y="1186"/>
      <point x="373" y="1170" type="curve" smooth="yes"/>
      <point x="487" y="992" type="line" smooth="yes"/>
      <point x="490" y="986"/>
      <point x="489" y="982"/>
      <point x="487" y="980" type="curve" smooth="yes"/>
      <point x="483" y="977"/>
      <point x="480" y="980"/>
      <point x="476" y="984" type="curve" smooth="yes"/>
      <point x="322" y="1119" type="line"/>
    </contour>
  </outline>
</glyph>
<glyph name="circumflexacute.cap" format="2">
  <advance width="694"/>
  <anchor x="312" y="1062" name="center"/>
  <outline>
    <contour>
      <point x="324" y="1119" type="line"/>
      <point x="104" y="984" type="line" smooth="yes"/>
      <point x="98" y="980"/>
      <point x="93" y="977"/>
      <point x="91" y="980" type="curve" smooth="yes"/>
      <point x="89" y="982"/>
      <point x="90" y="986"/>
      <point x="97" y="992" type="curve" smooth="yes"/>
      <point x="299" y="1170" type="line" smooth="yes"/>
      <point x="317" y="1186"/>
      <point x="328" y="1195"/>
      <point x="342" y="1195" type="curve" smooth="yes"/>
      <point x="356" y="1195"/>
      <point x="363" y="1186"/>
      <point x="373" y="1170" type="curve" smooth="yes"/>
      <point x="487" y="992" type="line" smooth="yes"/>
      <point x="490" y="986"/>
      <point x="489" y="982"/>
      <point x="487" y="980" type="curve" smooth="yes"/>
      <point x="483" y="977"/>
      <point x="480" y="980"/>
      <point x="476" y="984" type="curve" smooth="yes"/>
      <point x="322" y="1119" type="line"/>
    </contour>
    <contour>
      <point x="628" y="1294" type="curve" smooth="yes"/>
      <point x="471" y="1122" type="line" smooth="yes"/>
      <point x="467" y="1118"/>
      <point x="465" y="1114"/>
      <point x="467" y="1112" type="curve" smooth="yes"/>
      <point x="469" y="1109"/>
      <point x="473" y="1111"/>
      <point x="477" y="1114" type="curve" smooth="yes"/>
      <point x="673" y="1255" type="line" smooth="yes"/>
      <point x="710" y="1282"/>
      <point x="737" y="1303"/>
      <point x="743" y="1328" type="curve" smooth="yes"/>
      <point x="748" y="1346"/>
      <point x="740" y="1362"/>
      <point x="718" y="1362" type="curve" smooth="yes"/>
      <point x="692" y="1362"/>
      <point x="666" y="1336"/>
    </contour>
  </outline>
</glyph>
<glyph name="circumflexhook" format="2">
  <advance width="688"/>
  <anchor x="324" y="1062" name="center"/>
  <outline>
    <contour>
      <point x="334" y="1090" type="line"/>
      <point x="103" y="915" type="line" smooth="yes"/>
      <point x="97" y="911"/>
      <point x="93" y="908"/>
      <point x="90" y="911" type="curve" smooth="yes"/>
      <point x="89" y="913"/>
      <point x="91" y="917"/>
      <point x="96" y="923" type="curve" smooth="yes"/>
      <point x="309" y="1141" type="line" smooth="yes"/>
      <point x="325" y="1158"/>
      <point x="338" y="1166"/>
      <point x="352" y="1166" type="curve" smooth="yes"/>
      <point x="366" y="1166"/>
      <point x="375" y="1158"/>
      <point x="383" y="1141" type="curve" smooth="yes"/>
      <point x="486" y="923" type="line" smooth="yes"/>
      <point x="489" y="917"/>
      <point x="489" y="913"/>
      <point x="486" y="911" type="curve" smooth="yes"/>
      <point x="483" y="908"/>
      <point x="479" y="911"/>
      <point x="475" y="915" type="curve" smooth="yes"/>
      <point x="332" y="1090" type="line"/>
    </contour>
    <contour>
      <point x="515" y="1101" type="curve" smooth="yes"/>
      <point x="516" y="1104"/>
      <point x="518" y="1105"/>
      <point x="523" y="1106" type="curve" smooth="yes"/>
      <point x="612" y="1122"/>
      <point x="660" y="1180"/>
      <point x="677" y="1250" type="curve" smooth="yes"/>
      <point x="697" y="1330"/>
      <point x="676" y="1370"/>
      <point x="618" y="1370" type="curve" smooth="yes"/>
      <point x="559" y="1370"/>
      <point x="524" y="1329"/>
      <point x="510" y="1274" type="curve" smooth="yes"/>
      <point x="504" y="1251" type="line" smooth="yes"/>
      <point x="498" y="1224"/>
      <point x="479" y="1208"/>
      <point x="458" y="1208" type="curve" smooth="yes"/>
      <point x="438" y="1208"/>
      <point x="431" y="1228"/>
      <point x="436" y="1251" type="curve" smooth="yes"/>
      <point x="454" y="1322"/>
      <point x="538" y="1382"/>
      <point x="622" y="1382" type="curve" smooth="yes"/>
      <point x="705" y="1382"/>
      <point x="754" y="1333"/>
      <point x="733" y="1250" type="curve" smooth="yes"/>
      <point x="712" y="1167"/>
      <point x="639" y="1112"/>
      <point x="521" y="1097" type="curve" smooth="yes"/>
      <point x="516" y="1096"/>
      <point x="514" y="1098"/>
    </contour>
  </outline>
</glyph>
<glyph name="circumflextilde.cap" format="2">
  <advance width="530"/>
  <anchor x="312" y="1062" name="center"/>
  <outline>
    <contour>
      <point x="324" y="1119" type="line"/>
      <point x="104" y="984" type="line" smooth="yes"/>
      <point x="98" y="980"/>
      <point x="93" y="977"/>
      <point x="91" y="980" type="curve" smooth="yes"/>
      <point x="89" y="982"/>
      <point x="90" y="986"/>
      <point x="97" y="992" type="curve" smooth="yes"/>
      <point x="299" y="1170" type="line" smooth="yes"/>
      <point x="317" y="1186"/>
      <point x="328" y="1195"/>
      <point x="342" y="1195" type="curve" smooth="yes"/>
      <point x="356" y="1195"/>
      <point x="363" y="1186"/>
      <point x="373" y="1170" type="curve" smooth="yes"/>
      <point x="487" y="992" type="line" smooth="yes"/>
      <point x="490" y="986"/>
      <point x="489" y="982"/>
      <point x="487" y="980" type="curve" smooth="yes"/>
      <point x="483" y="977"/>
      <point x="480" y="980"/>
      <point x="476" y="984" type="curve" smooth="yes"/>
      <point x="322" y="1119" type="line"/>
    </contour>
    <contour>
      <point x="443" y="1225" type="curve" smooth="yes"/>
      <point x="507" y="1225"/>
      <point x="556" y="1270"/>
      <point x="579" y="1364" type="curve" smooth="yes"/>
      <point x="582" y="1376"/>
      <point x="580" y="1378"/>
      <point x="575" y="1378" type="curve" smooth="yes"/>
      <point x="570" y="1378"/>
      <point x="567" y="1373"/>
      <point x="564" y="1364" type="curve" smooth="yes"/>
      <point x="551" y="1312"/>
      <point x="524" y="1280"/>
      <point x="484" y="1280" type="curve" smooth="yes"/>
      <point x="404" y="1280"/>
      <point x="374" y="1364"/>
      <point x="297" y="1364" type="curve" smooth="yes"/>
      <point x="233" y="1364"/>
      <point x="184" y="1319"/>
      <point x="161" y="1225" type="curve" smooth="yes"/>
      <point x="158" y="1213"/>
      <point x="160" y="1211"/>
      <point x="165" y="1211" type="curve" smooth="yes"/>
      <point x="170" y="1211"/>
      <point x="173" y="1216"/>
      <point x="176" y="1225" type="curve" smooth="yes"/>
      <point x="189" y="1277"/>
      <point x="216" y="1309"/>
      <point x="256" y="1309" type="curve" smooth="yes"/>
      <point x="336" y="1309"/>
      <point x="365" y="1225"/>
    </contour>
  </outline>
</glyph>
<glyph name="circumflextilde" format="2">
  <advance width="540"/>
  <anchor x="324" y="1062" name="center"/>
  <outline>
    <contour>
      <point x="334" y="1090" type="line"/>
      <point x="103" y="915" type="line" smooth="yes"/>
      <point x="97" y="911"/>
      <point x="93" y="908"/>
      <point x="90" y="911" type="curve" smooth="yes"/>
      <point x="89" y="913"/>
      <point x="91" y="917"/>
      <point x="96" y="923" type="curve" smooth="yes"/>
      <point x="309" y="1141" type="line" smooth="yes"/>
      <point x="325" y="1158"/>
      <point x="338" y="1166"/>
      <point x="352" y="1166" type="curve" smooth="yes"/>
      <point x="366" y="1166"/>
      <point x="375" y="1158"/>
      <point x="383" y="1141" type="curve" smooth="yes"/>
      <point x="486" y="923" type="line" smooth="yes"/>
      <point x="489" y="917"/>
      <point x="489" y="913"/>
      <point x="486" y="911" type="curve" smooth="yes"/>
      <point x="483" y="908"/>
      <point x="479" y="911"/>
      <point x="475" y="915" type="curve" smooth="yes"/>
      <point x="332" y="1090" type="line"/>
    </contour>
    <contour>
      <point x="453" y="1196" type="curve" smooth="yes"/>
      <point x="517" y="1196"/>
      <point x="566" y="1241"/>
      <point x="589" y="1335" type="curve" smooth="yes"/>
      <point x="592" y="1347"/>
      <point x="590" y="1349"/>
      <point x="585" y="1349" type="curve" smooth="yes"/>
      <point x="580" y="1349"/>
      <point x="576" y="1344"/>
      <point x="574" y="1335" type="curve" smooth="yes"/>
      <point x="561" y="1283"/>
      <point x="534" y="1251"/>
      <point x="494" y="1251" type="curve" smooth="yes"/>
      <point x="414" y="1251"/>
      <point x="384" y="1335"/>
      <point x="307" y="1335" type="curve" smooth="yes"/>
      <point x="243" y="1335"/>
      <point x="194" y="1290"/>
      <point x="171" y="1196" type="curve" smooth="yes"/>
      <point x="168" y="1184"/>
      <point x="170" y="1182"/>
      <point x="175" y="1182" type="curve" smooth="yes"/>
      <point x="180" y="1182"/>
      <point x="183" y="1187"/>
      <point x="186" y="1196" type="curve" smooth="yes"/>
      <point x="199" y="1248"/>
      <point x="225" y="1280"/>
      <point x="265" y="1280" type="curve" smooth="yes"/>
      <point x="345" y="1280"/>
      <point x="375" y="1196"/>
    </contour>
  </outline>
</glyph>
<glyph name="commaaccentbelowcmb" format="2">
  <advance width="273"/>
  <outline>
    <contour>
      <point x="68" y="-223" type="curve" smooth="yes"/>
      <point x="86" y="-223" type="line" smooth="yes"/>
      <point x="96" y="-223"/>
      <point x="97" y="-228"/>
      <point x="95" y="-238" type="curve" smooth="yes"/>
      <point x="84" y="-281"/>
      <point x="32" y="-332"/>
      <point x="-40" y="-354" type="curve" smooth="yes"/>
      <point x="-44" y="-355"/>
      <point x="-45" y="-358"/>
      <point x="-45" y="-360" type="curve" smooth="yes"/>
      <point x="-45" y="-363"/>
      <point x="-42" y="-363"/>
      <point x="-36" y="-361" type="curve" smooth="yes"/>
      <point x="35" y="-340"/>
      <point x="97" y="-286"/>
      <point x="116" y="-207" type="curve" smooth="yes"/>
      <point x="132" y="-145"/>
      <point x="121" y="-110"/>
      <point x="89" y="-110" type="curve" smooth="yes"/>
      <point x="62" y="-110"/>
      <point x="38" y="-133"/>
      <point x="29" y="-168" type="curve" smooth="yes"/>
      <point x="21" y="-200"/>
      <point x="33" y="-223"/>
    </contour>
  </outline>
</glyph>
<glyph name="commaturnedabovecmb" format="2">
  <advance width="208"/>
  <outline>
    <contour>
      <point x="145" y="1043" type="curve" smooth="yes"/>
      <point x="127" y="1043" type="line" smooth="yes"/>
      <point x="117" y="1043"/>
      <point x="116" y="1048"/>
      <point x="119" y="1058" type="curve" smooth="yes"/>
      <point x="130" y="1101"/>
      <point x="181" y="1152"/>
      <point x="254" y="1174" type="curve" smooth="yes"/>
      <point x="257" y="1175"/>
      <point x="259" y="1178"/>
      <point x="258" y="1180" type="curve" smooth="yes"/>
      <point x="258" y="1183"/>
      <point x="255" y="1183"/>
      <point x="249" y="1181" type="curve" smooth="yes"/>
      <point x="178" y="1160"/>
      <point x="117" y="1106"/>
      <point x="97" y="1027" type="curve" smooth="yes"/>
      <point x="82" y="965"/>
      <point x="92" y="930"/>
      <point x="124" y="930" type="curve" smooth="yes"/>
      <point x="151" y="930"/>
      <point x="176" y="953"/>
      <point x="184" y="988" type="curve" smooth="yes"/>
      <point x="192" y="1020"/>
      <point x="180" y="1043"/>
    </contour>
  </outline>
</glyph>
<glyph name="dieresiscmb" format="2">
  <advance width="380"/>
  <anchor x="255" y="949" name="center"/>
  <outline>
    <contour>
      <point x="122" y="957" type="curve" smooth="yes"/>
      <point x="149" y="957"/>
      <point x="173" y="984"/>
      <point x="180" y="1015" type="curve" smooth="yes"/>
      <point x="188" y="1046"/>
      <point x="178" y="1072"/>
      <point x="151" y="1072" type="curve" smooth="yes"/>
      <point x="125" y="1072"/>
      <point x="100" y="1046"/>
      <point x="92" y="1015" type="curve" smooth="yes"/>
      <point x="85" y="984"/>
      <point x="96" y="957"/>
    </contour>
    <contour>
      <point x="369" y="957" type="curve" smooth="yes"/>
      <point x="396" y="957"/>
      <point x="420" y="984"/>
      <point x="427" y="1015" type="curve" smooth="yes"/>
      <point x="435" y="1046"/>
      <point x="425" y="1072"/>
      <point x="398" y="1072" type="curve" smooth="yes"/>
      <point x="372" y="1072"/>
      <point x="347" y="1046"/>
      <point x="339" y="1015" type="curve" smooth="yes"/>
      <point x="332" y="984"/>
      <point x="343" y="957"/>
    </contour>
  </outline>
</glyph>
<glyph name="dotaccent.cap" format="2">
  <advance width="133"/>
  <anchor x="141" y="958" name="center"/>
  <outline>
    <contour>
      <point x="122" y="1012" type="curve" smooth="yes"/>
      <point x="149" y="1012"/>
      <point x="173" y="1039"/>
      <point x="180" y="1070" type="curve" smooth="yes"/>
      <point x="188" y="1101"/>
      <point x="178" y="1127"/>
      <point x="151" y="1127" type="curve" smooth="yes"/>
      <point x="125" y="1127"/>
      <point x="100" y="1101"/>
      <point x="92" y="1070" type="curve" smooth="yes"/>
      <point x="85" y="1039"/>
      <point x="96" y="1012"/>
    </contour>
  </outline>
</glyph>
<glyph name="gravedoublecmb" format="2">
  <advance width="387"/>
  <anchor x="353" y="973" name="center"/>
  <outline>
    <contour>
      <point x="183" y="1107" type="line" smooth="yes"/>
      <point x="172" y="1154"/>
      <point x="161" y="1185"/>
      <point x="134" y="1185" type="curve" smooth="yes"/>
      <point x="114" y="1185"/>
      <point x="96" y="1172"/>
      <point x="92" y="1154" type="curve" smooth="yes"/>
      <point x="85" y="1126"/>
      <point x="98" y="1106"/>
      <point x="116" y="1078" type="curve" smooth="yes"/>
      <point x="210" y="935" type="line" smooth="yes"/>
      <point x="213" y="931"/>
      <point x="216" y="930"/>
      <point x="220" y="932" type="curve" smooth="yes"/>
      <point x="222" y="934"/>
      <point x="223" y="937"/>
      <point x="221" y="943" type="curve" smooth="yes"/>
    </contour>
    <contour>
      <point x="398" y="1107" type="line" smooth="yes"/>
      <point x="387" y="1154"/>
      <point x="376" y="1185"/>
      <point x="348" y="1185" type="curve" smooth="yes"/>
      <point x="328" y="1185"/>
      <point x="311" y="1172"/>
      <point x="307" y="1154" type="curve" smooth="yes"/>
      <point x="300" y="1126"/>
      <point x="312" y="1106"/>
      <point x="331" y="1078" type="curve" smooth="yes"/>
      <point x="425" y="935" type="line" smooth="yes"/>
      <point x="428" y="931"/>
      <point x="431" y="930"/>
      <point x="435" y="932" type="curve" smooth="yes"/>
      <point x="437" y="934"/>
      <point x="438" y="937"/>
      <point x="436" y="943" type="curve" smooth="yes"/>
    </contour>
  </outline>
</glyph>
<glyph name="h.alt" format="2">
  <advance width="828"/>
  <anchor x="318" y="980" name="center"/>
  <outline>
    <contour>
      <point x="201" y="421" type="line"/>
      <point x="200" y="423" type="line"/>
      <point x="347" y="714"/>
      <point x="515" y="865"/>
      <point x="672" y="865" type="curve" smooth="yes"/>
      <point x="789" y="865"/>
      <point x="773" y="762"/>
      <point x="728" y="625" type="curve" smooth="yes"/>
      <point x="583" y="181" type="line" smooth="yes"/>
      <point x="539" y="46"/>
      <point x="561.1052631578948" y="19.0"/>
      <point x="599" y="19" type="curve" smooth="yes"/>
      <point x="629.6870229007634" y="19.0"/>
      <point x="670.4104863135578" y="38.296386890375416"/>
      <point x="733" y="113" type="curve" smooth="yes"/>
      <point x="736" y="117"/>
      <point x="739" y="119"/>
      <point x="742" y="117" type="curve" smooth="yes"/>
      <point x="744" y="115"/>
      <point x="743" y="112"/>
      <point x="740" y="108" type="curve" smooth="yes"/>
      <point x="676" y="22"/>
      <point x="620" y="-15"/>
      <point x="572" y="-15" type="curve" smooth="yes"/>
      <point x="513" y="-15"/>
      <point x="486" y="33"/>
      <point x="519" y="135" type="curve" smooth="yes"/>
      <point x="682" y="639" type="line" smooth="yes"/>
      <point x="731" y="791"/>
      <point x="704" y="835"/>
      <point x="635" y="835" type="curve" smooth="yes"/>
      <point x="529" y="835"/>
      <point x="290" y="686"/>
      <point x="152" y="262" type="curve" smooth="yes"/>
      <point x="113" y="141"/>
      <point x="110" y="104"/>
      <point x="110" y="68" type="curve" smooth="yes"/>
      <point x="110" y="52"/>
      <point x="120" y="44"/>
      <point x="120" y="30" type="curve" smooth="yes"/>
      <point x="120" y="8"/>
      <point x="93" y="-15"/>
      <point x="63" y="-15" type="curve" smooth="yes"/>
      <point x="32" y="-15"/>
      <point x="36" y="5"/>
      <point x="54" y="70" type="curve"/>
      <point x="394" y="1270" type="line" smooth="yes"/>
      <point x="426" y="1382"/>
      <point x="405" y="1404"/>
      <point x="370" y="1404" type="curve" smooth="yes"/>
      <point x="341" y="1404"/>
      <point x="305.0" y="1390.0"/>
      <point x="258" y="1341" type="curve" smooth="yes"/>
      <point x="255" y="1337"/>
      <point x="251" y="1335"/>
      <point x="249" y="1337" type="curve" smooth="yes"/>
      <point x="247" y="1339"/>
      <point x="248" y="1342"/>
      <point x="251" y="1346" type="curve" smooth="yes"/>
      <point x="302" y="1412"/>
      <point x="358" y="1438.0"/>
      <point x="401" y="1438" type="curve" smooth="yes"/>
      <point x="459" y="1438.0"/>
      <point x="480" y="1395"/>
      <point x="450" y="1289" type="curve" smooth="yes"/>
    </contour>
  </outline>
</glyph>
<glyph name="horncmb" format="2">
  <advance width="445"/>
  <outline>
    <contour>
      <point x="492" y="1046" type="curve" smooth="yes"/>
      <point x="500" y="1077"/>
      <point x="490" y="1095"/>
      <point x="467" y="1095" type="curve" smooth="yes"/>
      <point x="443" y="1095"/>
      <point x="424" y="1076"/>
      <point x="416" y="1044" type="curve" smooth="yes"/>
      <point x="406" y="1000" type="line" smooth="yes"/>
      <point x="376" y="883"/>
      <point x="276" y="825"/>
      <point x="98" y="863" type="curve" smooth="yes"/>
      <point x="94" y="864"/>
      <point x="91" y="862"/>
      <point x="90" y="859" type="curve" smooth="yes"/>
      <point x="89" y="855"/>
      <point x="90" y="854"/>
      <point x="96" y="853" type="curve" smooth="yes"/>
      <point x="314" y="809"/>
      <point x="457" y="907"/>
    </contour>
  </outline>
</glyph>
<glyph name="hungarumlaut.cap" format="2">
  <advance width="534"/>
  <anchor x="240" y="963" name="center"/>
  <outline>
    <contour>
      <point x="239" y="1136" type="curve" smooth="yes"/>
      <point x="96" y="988" type="line" smooth="yes"/>
      <point x="90" y="983"/>
      <point x="90" y="980"/>
      <point x="90" y="978" type="curve" smooth="yes"/>
      <point x="92" y="975"/>
      <point x="96" y="976"/>
      <point x="101" y="979" type="curve" smooth="yes"/>
      <point x="284" y="1097" type="line" smooth="yes"/>
      <point x="320" y="1120"/>
      <point x="344" y="1137"/>
      <point x="356" y="1164" type="curve" smooth="yes"/>
      <point x="363" y="1182"/>
      <point x="357" y="1197"/>
      <point x="338" y="1201" type="curve" smooth="yes"/>
      <point x="311" y="1206"/>
      <point x="280" y="1178"/>
    </contour>
    <contour>
      <point x="464" y="1136" type="curve" smooth="yes"/>
      <point x="321" y="988" type="line" smooth="yes"/>
      <point x="315" y="983"/>
      <point x="315" y="980"/>
      <point x="315" y="978" type="curve" smooth="yes"/>
      <point x="317" y="975"/>
      <point x="321" y="976"/>
      <point x="326" y="979" type="curve" smooth="yes"/>
      <point x="509" y="1097" type="line" smooth="yes"/>
      <point x="544" y="1120"/>
      <point x="569" y="1137"/>
      <point x="581" y="1164" type="curve" smooth="yes"/>
      <point x="588" y="1182"/>
      <point x="581" y="1197"/>
      <point x="562" y="1201" type="curve" smooth="yes"/>
      <point x="536" y="1206"/>
      <point x="505" y="1178"/>
    </contour>
  </outline>
</glyph>
<glyph name="invertedbrevecmb" format="2">
  <advance width="401"/>
  <anchor x="294" y="996" name="center"/>
  <outline>
    <contour>
      <point x="306" y="1095" type="curve" smooth="yes"/>
      <point x="388" y="1095"/>
      <point x="438" y="1055"/>
      <point x="428" y="943" type="curve" smooth="yes"/>
      <point x="427" y="932"/>
      <point x="431" y="930"/>
      <point x="435" y="930" type="curve" smooth="yes"/>
      <point x="439" y="930"/>
      <point x="444" y="934"/>
      <point x="446" y="945" type="curve" smooth="yes"/>
      <point x="465" y="1068"/>
      <point x="435" y="1154"/>
      <point x="321" y="1154" type="curve" smooth="yes"/>
      <point x="207" y="1154"/>
      <point x="133" y="1068"/>
      <point x="92" y="945" type="curve" smooth="yes"/>
      <point x="88" y="934"/>
      <point x="91" y="930"/>
      <point x="95" y="930" type="curve" smooth="yes"/>
      <point x="99" y="930"/>
      <point x="103" y="932"/>
      <point x="108" y="943" type="curve" smooth="yes"/>
      <point x="154" y="1055"/>
      <point x="224" y="1095"/>
    </contour>
  </outline>
</glyph>
<glyph name="k.alt" format="2">
  <advance width="812"/>
  <anchor x="315" y="980" name="center"/>
  <outline>
    <contour>
      <point x="394" y="1270" type="line" smooth="yes"/>
      <point x="426" y="1382"/>
      <point x="405" y="1404"/>
      <point x="370" y="1404" type="curve" smooth="yes"/>
      <point x="341" y="1404"/>
      <point x="305" y="1390"/>
      <point x="258" y="1341" type="curve" smooth="yes"/>
      <point x="255" y="1337"/>
      <point x="251" y="1335"/>
      <point x="249" y="1337" type="curve" smooth="yes"/>
      <point x="247" y="1339"/>
      <point x="248" y="1342"/>
      <point x="251" y="1346" type="curve" smooth="yes"/>
      <point x="302" y="1412"/>
      <point x="358" y="1438"/>
      <point x="401" y="1438" type="curve" smooth="yes"/>
      <point x="459.0" y="1438.0"/>
      <point x="480" y="1395"/>
      <point x="450" y="1289" type="curve" smooth="yes"/>
      <point x="229" y="520" type="line"/>
      <point x="194" y="455" type="line"/>
      <point x="274.70417020695606" y="704.0869450831977"/>
      <point x="528.3319853743731" y="888.4561484954526"/>
      <point x="685" y="875" type="curve" smooth="yes"/>
      <point x="787" y="867"/>
      <point x="813" y="809"/>
      <point x="804" y="737" type="curve" smooth="yes"/>
      <point x="787.008243759387" y="604.0644952940279"/>
      <point x="609.8756216245961" y="442.9511952888995"/>
      <point x="171" y="341" type="curve"/>
      <point x="169" y="352" type="line"/>
      <point x="587.3443258716609" y="448.83896432214374"/>
      <point x="735.0051054838344" y="612.0481374190099"/>
      <point x="749" y="744" type="curve" smooth="yes"/>
      <point x="757" y="814"/>
      <point x="738" y="856"/>
      <point x="672" y="863" type="curve" smooth="yes"/>
      <point x="535.7073236112271" y="877.3971137030394"/>
      <point x="265.81056180064706" y="676.3197446477781"/>
      <point x="200" y="440" type="curve" smooth="yes"/>
      <point x="123" y="163"/>
      <point x="108" y="112"/>
      <point x="108" y="72" type="curve" smooth="yes"/>
      <point x="108" y="53"/>
      <point x="119" y="45"/>
      <point x="119" y="33" type="curve" smooth="yes"/>
      <point x="119" y="3"/>
      <point x="91" y="-15"/>
      <point x="57" y="-15" type="curve" smooth="yes"/>
      <point x="39" y="-15"/>
      <point x="31" y="-1"/>
      <point x="43" y="39" type="curve"/>
    </contour>
    <contour>
      <point x="384" y="411" type="line"/>
      <point x="432" y="428" type="line"/>
      <point x="525" y="128" type="line" smooth="yes"/>
      <point x="550.9140352161094" y="44.40633801255025"/>
      <point x="569" y="19"/>
      <point x="604" y="19" type="curve" smooth="yes"/>
      <point x="628" y="19.0"/>
      <point x="668.3685413373071" y="43.670075158740225"/>
      <point x="701" y="103" type="curve" smooth="yes"/>
      <point x="703" y="107"/>
      <point x="706" y="109"/>
      <point x="709" y="107" type="curve" smooth="yes"/>
      <point x="711" y="105"/>
      <point x="711" y="103"/>
      <point x="708" y="98" type="curve" smooth="yes"/>
      <point x="665" y="16"/>
      <point x="623" y="-15.0"/>
      <point x="573" y="-15" type="curve" smooth="yes"/>
      <point x="529" y="-15"/>
      <point x="503" y="10"/>
      <point x="475" y="104" type="curve" smooth="yes"/>
    </contour>
  </outline>
</glyph>
<glyph name="ogonekcmb" format="2">
  <advance width="395"/>
  <outline>
    <contour>
      <point x="242" y="5" type="line"/>
      <point x="77" y="-50"/>
      <point x="-16" y="-144"/>
      <point x="-39" y="-237" type="curve" smooth="yes"/>
      <point x="-62" y="-328"/>
      <point x="-14" y="-384"/>
      <point x="87" y="-384" type="curve" smooth="yes"/>
      <point x="157" y="-384"/>
      <point x="215" y="-342"/>
      <point x="242" y="-305" type="curve" smooth="yes"/>
      <point x="245" y="-301"/>
      <point x="246" y="-297"/>
      <point x="243" y="-296" type="curve" smooth="yes"/>
      <point x="240" y="-295"/>
      <point x="238" y="-297"/>
      <point x="235" y="-301" type="curve" smooth="yes"/>
      <point x="206" y="-339"/>
      <point x="153" y="-369"/>
      <point x="105" y="-369" type="curve" smooth="yes"/>
      <point x="26" y="-369"/>
      <point x="-3" y="-318"/>
      <point x="19" y="-233" type="curve" smooth="yes"/>
      <point x="42" y="-138"/>
      <point x="111" y="-55"/>
      <point x="245" y="-2" type="curve"/>
    </contour>
  </outline>
</glyph>
<glyph name="quotesinglbase" format="2">
  <advance width="231"/>
  <outline>
    <contour>
      <point x="67" y="0" type="curve" smooth="yes"/>
      <point x="85" y="0" type="line" smooth="yes"/>
      <point x="95" y="0"/>
      <point x="97" y="-7"/>
      <point x="94" y="-17" type="curve" smooth="yes"/>
      <point x="72" y="-100"/>
      <point x="-4" y="-208"/>
      <point x="-91" y="-244" type="curve" smooth="yes"/>
      <point x="-95" y="-245"/>
      <point x="-96" y="-250"/>
      <point x="-95" y="-251" type="curve" smooth="yes"/>
      <point x="-94" y="-253"/>
      <point x="-93" y="-252"/>
      <point x="-87" y="-250" type="curve" smooth="yes"/>
      <point x="-4" y="-215"/>
      <point x="79" y="-119"/>
      <point x="115" y="16" type="curve" smooth="yes"/>
      <point x="132" y="78"/>
      <point x="122" y="113"/>
      <point x="90" y="113" type="curve" smooth="yes"/>
      <point x="63" y="113"/>
      <point x="38" y="90"/>
      <point x="29" y="55" type="curve" smooth="yes"/>
      <point x="20" y="23"/>
      <point x="32" y="0"/>
    </contour>
  </outline>
</glyph>
<glyph name="ring.cap" format="2">
  <advance width="323"/>
  <anchor x="220" y="943" name="center"/>
  <outline>
    <contour>
      <point x="198" y="970" type="curve" smooth="yes"/>
      <point x="273" y="970"/>
      <point x="350" y="1032"/>
      <point x="369" y="1108" type="curve" smooth="yes"/>
      <point x="388" y="1183"/>
      <point x="341" y="1245"/>
      <point x="266" y="1245" type="curve" smooth="yes"/>
      <point x="190" y="1245"/>
      <point x="113" y="1183"/>
      <point x="94" y="1108" type="curve" smooth="yes"/>
      <point x="75" y="1032"/>
      <point x="122" y="970"/>
    </contour>
    <contour>
      <point x="259" y="1214" type="curve" smooth="yes"/>
      <point x="317" y="1214"/>
      <point x="350" y="1167"/>
      <point x="335" y="1108" type="curve" smooth="yes"/>
      <point x="321" y="1049"/>
      <point x="264" y="1001"/>
      <point x="206" y="1001" type="curve" smooth="yes"/>
      <point x="149" y="1001"/>
      <point x="114" y="1049"/>
      <point x="128" y="1108" type="curve" smooth="yes"/>
      <point x="143" y="1167"/>
      <point x="202" y="1214"/>
    </contour>
  </outline>
</glyph>
<glyph name="ringcmb" format="2">
  <anchor x="220" y="943" name="center"/>
  <outline>
    <contour>
      <point x="198" y="920" type="curve" smooth="yes"/>
      <point x="273" y="920"/>
      <point x="350" y="982"/>
      <point x="369" y="1058" type="curve" smooth="yes"/>
      <point x="388" y="1133"/>
      <point x="341" y="1195"/>
      <point x="266" y="1195" type="curve" smooth="yes"/>
      <point x="190" y="1195"/>
      <point x="113" y="1133"/>
      <point x="94" y="1058" type="curve" smooth="yes"/>
      <point x="75" y="982"/>
      <point x="122" y="920"/>
    </contour>
    <contour>
      <point x="259" y="1164" type="curve" smooth="yes"/>
      <point x="317" y="1164"/>
      <point x="350" y="1117"/>
      <point x="335" y="1058" type="curve" smooth="yes"/>
      <point x="321" y="999"/>
      <point x="264" y="951"/>
      <point x="206" y="951" type="curve" smooth="yes"/>
      <point x="149" y="951"/>
      <point x="114" y="999"/>
      <point x="128" y="1058" type="curve" smooth="yes"/>
      <point x="143" y="1117"/>
      <point x="202" y="1164"/>
    </contour>
  </outline>
</glyph>
<glyph name="tilde.cap" format="2">
  <advance width="461"/>
  <anchor x="300" y="995" name="center"/>
  <outline>
    <contour>
      <point x="373" y="1005" type="curve" smooth="yes"/>
      <point x="437" y="1005"/>
      <point x="487" y="1050"/>
      <point x="510" y="1144" type="curve" smooth="yes"/>
      <point x="513" y="1156"/>
      <point x="511" y="1158"/>
      <point x="506" y="1158" type="curve" smooth="yes"/>
      <point x="501" y="1158"/>
      <point x="497" y="1153"/>
      <point x="495" y="1144" type="curve" smooth="yes"/>
      <point x="482" y="1092"/>
      <point x="455" y="1060"/>
      <point x="415" y="1060" type="curve" smooth="yes"/>
      <point x="335" y="1060"/>
      <point x="305" y="1144"/>
      <point x="228" y="1144" type="curve" smooth="yes"/>
      <point x="164" y="1144"/>
      <point x="115" y="1099"/>
      <point x="91" y="1005" type="curve" smooth="yes"/>
      <point x="88" y="993"/>
      <point x="91" y="991"/>
      <point x="96" y="991" type="curve" smooth="yes"/>
      <point x="101" y="991"/>
      <point x="104" y="996"/>
      <point x="106" y="1005" type="curve" smooth="yes"/>
      <point x="119" y="1057"/>
      <point x="146" y="1089"/>
      <point x="186" y="1089" type="curve" smooth="yes"/>
      <point x="266" y="1089"/>
      <point x="295" y="1005"/>
    </contour>
  </outline>
</glyph>
<glyph name="tildecmb" format="2">
  <advance width="461"/>
  <anchor x="313" y="1062" name="center"/>
  <outline>
    <contour>
      <point x="373" y="959" type="curve" smooth="yes"/>
      <point x="437" y="959"/>
      <point x="487" y="1004"/>
      <point x="510" y="1098" type="curve" smooth="yes"/>
      <point x="513" y="1110"/>
      <point x="511" y="1112"/>
      <point x="506" y="1112" type="curve" smooth="yes"/>
      <point x="501" y="1112"/>
      <point x="497" y="1107"/>
      <point x="495" y="1098" type="curve" smooth="yes"/>
      <point x="482" y="1046"/>
      <point x="455" y="1014"/>
      <point x="415" y="1014" type="curve" smooth="yes"/>
      <point x="335" y="1014"/>
      <point x="305" y="1098"/>
      <point x="228" y="1098" type="curve" smooth="yes"/>
      <point x="164" y="1098"/>
      <point x="115" y="1053"/>
      <point x="91" y="959" type="curve" smooth="yes"/>
      <point x="88" y="947"/>
      <point x="91" y="945"/>
      <point x="96" y="945" type="curve" smooth="yes"/>
      <point x="101" y="945"/>
      <point x="104" y="950"/>
      <point x="106" y="959" type="curve" smooth="yes"/>
      <point x="119" y="1011"/>
      <point x="146" y="1043"/>
      <point x="186" y="1043" type="curve" smooth="yes"/>
      <point x="266" y="1043"/>
      <point x="295" y="959"/>
    </contour>
  </outline>
</glyph>
<glyph name="turnedcommaabovecmb" format="2">
  <advance width="201"/>
  <outline>
    <contour>
      <point x="149" y="1349" type="curve" smooth="yes"/>
      <point x="92" y="1171" type="line" smooth="yes"/>
      <point x="90" y="1165"/>
      <point x="88" y="1162"/>
      <point x="92" y="1161" type="curve" smooth="yes"/>
      <point x="96" y="1160"/>
      <point x="97" y="1162"/>
      <point x="101" y="1167" type="curve" smooth="yes"/>
      <point x="214" y="1341" type="line" smooth="yes"/>
      <point x="230" y="1366"/>
      <point x="244" y="1389"/>
      <point x="249" y="1407" type="curve" smooth="yes"/>
      <point x="255" y="1432"/>
      <point x="243" y="1446"/>
      <point x="223" y="1446" type="curve" smooth="yes"/>
      <point x="188" y="1446"/>
      <point x="170" y="1413"/>
    </contour>
  </outline>
</glyph>
